<svg width="253" height="257" viewBox="0 0 253 257" fill="none" xmlns="http://www.w3.org/2000/svg">
<path d="M2.56025 2.56025H250.354V253.465H2.56025V2.56025Z" fill="white" stroke="#0A0A0A" stroke-width="5.1205"/>
<path d="M54.253 6.41846H6.11523V52.9685H54.253V6.41846Z" fill="#93E928"/>
<path d="M102.387 6.41797H54.249V52.9681H102.387V6.41797Z" fill="#35A7FF"/>
<path d="M150.526 6.41797H102.388V52.9681H150.526V6.41797Z" fill="#FDE74C"/>
<path d="M198.667 6.41797H150.529V52.9681H198.667V6.41797Z" fill="#FA8426"/>
<path d="M246.804 6.41797H198.666V52.9681H246.804V6.41797Z" fill="#FB2022"/>
<path d="M4.26709 4.26709H248.648V251.758H4.26709V4.26709Z" stroke="#0A0A0A" stroke-width="8.53417"/>
<path d="M39.2817 213.222C39.2817 211.103 38.7189 209.593 37.5934 208.691C36.4863 207.788 34.9272 207.337 32.916 207.337H24.9726V219.328H32.916C34.9272 219.328 36.4863 218.84 37.5934 217.863C38.7189 216.887 39.2817 215.34 39.2817 213.222ZM47.7232 213.166C47.7232 217.974 46.5054 221.372 44.0698 223.362C41.6342 225.351 38.1562 226.345 33.6356 226.345H24.9726V240.989H16.5034V200.264H34.2721C38.3683 200.264 41.6342 201.314 44.0698 203.413C46.5054 205.513 47.7232 208.764 47.7232 213.166Z" fill="#0A0A0A"/>
<path d="M70.114 226.345C69.6158 226.659 69.1084 226.916 68.5918 227.119C68.0936 227.303 67.4017 227.478 66.516 227.644L64.7446 227.976C63.084 228.27 61.8939 228.629 61.1743 229.053C59.9565 229.771 59.3476 230.886 59.3476 232.396C59.3476 233.741 59.7166 234.717 60.4547 235.325C61.2112 235.914 62.1245 236.209 63.1947 236.209C64.8923 236.209 66.4514 235.712 67.8722 234.717C69.3114 233.722 70.0587 231.908 70.114 229.274V226.345ZM65.3259 222.671C66.7835 222.487 67.826 222.256 68.4534 221.98C69.5789 221.501 70.1417 220.755 70.1417 219.742C70.1417 218.508 69.7081 217.661 68.8409 217.2C67.9921 216.721 66.7374 216.482 65.0768 216.482C63.2132 216.482 61.8939 216.942 61.1189 217.863C60.5654 218.545 60.1964 219.466 60.0119 220.626H52.4007C52.5667 217.992 53.3048 215.828 54.6148 214.133C56.6998 211.481 60.2794 210.155 65.3535 210.155C68.6563 210.155 71.5901 210.809 74.1549 212.117C76.7196 213.424 78.002 215.892 78.002 219.521V233.336C78.002 234.293 78.0204 235.454 78.0573 236.817C78.1127 237.848 78.2695 238.548 78.5279 238.917C78.7862 239.285 79.1737 239.589 79.6903 239.828V240.989H71.1104C70.8705 240.381 70.7045 239.81 70.6122 239.276C70.5199 238.742 70.4461 238.134 70.3908 237.452C69.3021 238.631 68.0475 239.635 66.6267 240.464C64.9292 241.44 63.0102 241.928 60.8699 241.928C58.139 241.928 55.8787 241.155 54.089 239.607C52.3176 238.042 51.432 235.831 51.432 232.976C51.432 229.274 52.8619 226.594 55.7219 224.936C57.2903 224.034 59.5967 223.389 62.6412 223.002L65.3259 222.671Z" fill="#0A0A0A"/>
<path d="M93.086 240.989H85.198V200.264H93.086V240.989Z" fill="#0A0A0A"/>
<path d="M112.709 216.565C110.882 216.565 109.462 217.136 108.447 218.278C107.45 219.42 106.823 220.967 106.565 222.919H118.826C118.697 220.838 118.06 219.263 116.916 218.195C115.79 217.108 114.388 216.565 112.709 216.565ZM112.709 210.072C115.219 210.072 117.479 210.542 119.49 211.481C121.501 212.42 123.162 213.903 124.472 215.929C125.653 217.716 126.419 219.788 126.769 222.146C126.972 223.527 127.055 225.517 127.018 228.114H106.371C106.482 231.134 107.432 233.253 109.222 234.468C110.31 235.224 111.62 235.601 113.152 235.601C114.776 235.601 116.095 235.141 117.11 234.22C117.663 233.722 118.152 233.032 118.577 232.148H126.631C126.428 233.934 125.496 235.749 123.835 237.59C121.252 240.519 117.636 241.983 112.986 241.983C109.148 241.983 105.762 240.749 102.828 238.281C99.8946 235.813 98.4277 231.798 98.4277 226.235C98.4277 221.022 99.747 217.025 102.386 214.244C105.043 211.463 108.484 210.072 112.709 210.072Z" fill="#0A0A0A"/>
<path d="M129.26 216.758V211.15H133.467V202.75H141.272V211.15H146.171V216.758H141.272V232.673C141.272 233.907 141.429 234.68 141.742 234.993C142.056 235.288 143.016 235.435 144.621 235.435C144.861 235.435 145.11 235.435 145.368 235.435C145.645 235.417 145.912 235.399 146.171 235.38V241.265L142.434 241.403C138.707 241.532 136.161 240.888 134.795 239.469C133.91 238.567 133.467 237.176 133.467 235.297V216.758H129.26Z" fill="#0A0A0A"/>
<path d="M148.136 216.758V211.15H152.343V202.75H160.148V211.15H165.047V216.758H160.148V232.673C160.148 233.907 160.305 234.68 160.618 234.993C160.932 235.288 161.891 235.435 163.497 235.435C163.737 235.435 163.986 235.435 164.244 235.435C164.521 235.417 164.788 235.399 165.047 235.38V241.265L161.31 241.403C157.583 241.532 155.037 240.888 153.671 239.469C152.786 238.567 152.343 237.176 152.343 235.297V216.758H148.136Z" fill="#0A0A0A"/>
<path d="M182.013 216.565C180.186 216.565 178.765 217.136 177.75 218.278C176.754 219.42 176.127 220.967 175.868 222.919H188.129C188 220.838 187.364 219.263 186.22 218.195C185.094 217.108 183.692 216.565 182.013 216.565ZM182.013 210.072C184.522 210.072 186.782 210.542 188.794 211.481C190.805 212.42 192.465 213.903 193.775 215.929C194.956 217.716 195.722 219.788 196.073 222.146C196.276 223.527 196.359 225.517 196.322 228.114H175.675C175.785 231.134 176.736 233.253 178.525 234.468C179.614 235.224 180.924 235.601 182.455 235.601C184.079 235.601 185.398 235.141 186.413 234.22C186.967 233.722 187.456 233.032 187.88 232.148H195.934C195.731 233.934 194.799 235.749 193.139 237.59C190.556 240.519 186.939 241.983 182.289 241.983C178.452 241.983 175.066 240.749 172.132 238.281C169.198 235.813 167.731 231.798 167.731 226.235C167.731 221.022 169.051 217.025 171.689 214.244C174.346 211.463 177.787 210.072 182.013 210.072Z" fill="#0A0A0A"/>
</svg>
