<svg width="19" height="18" viewBox="0 0 19 18" fill="none" xmlns="http://www.w3.org/2000/svg">
<path d="M18.5556 0H0.444397V18H18.5556V0Z" fill="#BC85F3"/>
<path d="M17.0377 1.50848H1.96222V16.4915H17.0377V1.50848Z" fill="#252653"/>
<path fill-rule="evenodd" clip-rule="evenodd" d="M7.72594 11.0662L8.35671 13.1517H10.1285L7.61242 4.75847C7.60774 4.74325 7.59604 4.73272 7.57146 4.73272L5.48954 4.72687C5.40879 4.72687 5.40645 4.769 5.41347 4.84858C5.43922 5.13763 5.42518 5.29913 5.36549 5.525L3.13495 13.1528L4.81546 13.1505L5.33858 11.0651L7.72594 11.0662ZM7.42401 9.55425H5.69902L6.53577 6.17567L7.42401 9.55425Z" fill="#BC85F3"/>
<path fill-rule="evenodd" clip-rule="evenodd" d="M12.1952 10.3886L15.4474 10.3933C15.6522 10.1311 15.6897 9.63843 15.6838 9.31543C15.6616 8.00472 14.7932 6.75019 13.2251 6.742C10.592 6.72678 10.0934 10.0562 10.9899 11.9766C11.2719 12.5805 11.8383 12.9644 12.503 13.1469C12.8061 13.23 13.1279 13.2721 13.4533 13.2733C14.0969 13.2756 14.7511 13.12 15.2766 12.8204C15.2848 12.8157 15.2988 12.8157 15.3 12.8064V12.7689L15.2988 11.6841C15.2988 11.6349 15.2614 11.6068 15.2052 11.6244C14.5405 11.8245 12.2889 12.4635 12.1847 10.4494C12.1835 10.4342 12.18 10.3886 12.1952 10.3886ZM13.8254 9.30139H12.1695C12.1777 8.42134 12.5814 7.92163 13.2052 7.91929C13.7716 7.91695 14.132 8.31016 14.1496 9.28032C14.1496 9.32479 14.1496 9.30139 14.1496 9.30139H13.8254Z" fill="#BC85F3"/>
</svg>
