<svg width="10" height="14" viewBox="0 0 10 14" fill="none" xmlns="http://www.w3.org/2000/svg">
<g clip-path="url(#clip0)">
<path d="M5 7C5 6.40326 5.23705 5.83097 5.65901 5.40901C6.08097 4.98705 6.65326 4.75 7.25 4.75C7.84674 4.75 8.41903 4.98705 8.84099 5.40901C9.26295 5.83097 9.5 6.40326 9.5 7C9.5 7.59674 9.26295 8.16903 8.84099 8.59099C8.41903 9.01295 7.84674 9.25 7.25 9.25C6.65326 9.25 6.08097 9.01295 5.65901 8.59099C5.23705 8.16903 5 7.59674 5 7V7Z" fill="#1ABCFE"/>
<path d="M0.5 11.5C0.5 10.9033 0.737053 10.331 1.15901 9.90901C1.58097 9.48705 2.15326 9.25 2.75 9.25H5V11.5C5 12.0967 4.76295 12.669 4.34099 13.091C3.91903 13.5129 3.34674 13.75 2.75 13.75C2.15326 13.75 1.58097 13.5129 1.15901 13.091C0.737053 12.669 0.5 12.0967 0.5 11.5H0.5Z" fill="#C2C2C2"/>
<path d="M5 0.25V4.75H7.25C7.84674 4.75 8.41903 4.51295 8.84099 4.09099C9.26295 3.66903 9.5 3.09674 9.5 2.5C9.5 1.90326 9.26295 1.33097 8.84099 0.90901C8.41903 0.487053 7.84674 0.25 7.25 0.25L5 0.25Z" fill="#FF7262"/>
<path d="M0.5 2.5C0.5 3.09674 0.737053 3.66903 1.15901 4.09099C1.58097 4.51295 2.15326 4.75 2.75 4.75H5V0.25H2.75C2.15326 0.25 1.58097 0.487053 1.15901 0.90901C0.737053 1.33097 0.5 1.90326 0.5 2.5H0.5Z" fill="#F24E1E"/>
<path d="M0.5 7C0.5 7.59674 0.737053 8.16903 1.15901 8.59099C1.58097 9.01295 2.15326 9.25 2.75 9.25H5V4.75H2.75C2.15326 4.75 1.58097 4.98705 1.15901 5.40901C0.737053 5.83097 0.5 6.40326 0.5 7H0.5Z" fill="#A259FF"/>
</g>
<defs>
<clipPath id="clip0">
<rect width="9" height="13.5" fill="white" transform="translate(0.5 0.25)"/>
</clipPath>
</defs>
</svg>
