<svg width="18" height="18" viewBox="0 0 18 18" fill="none" xmlns="http://www.w3.org/2000/svg">
<path d="M11.6175 7.2225C11.4825 5.13 10.635 3.09 9.045 1.5C7.44 3.105 6.555 5.145 6.3825 7.2225C7.3425 7.7325 8.2275 8.3925 9 9.195C9.7725 8.4 10.6575 7.74 11.6175 7.2225ZM9.0375 3.8925C9.51 4.665 9.84 5.5275 10.0125 6.4275C9.66 6.6525 9.33 6.9 9.0075 7.1625C8.6925 6.9075 8.355 6.66 8.01 6.435C8.1975 5.535 8.5425 4.6725 9.0375 3.8925ZM9 11.5875C8.385 10.65 7.605 9.8325 6.705 9.1875C6.6075 9.12 6.5025 9.0675 6.405 8.9925C6.5025 9.06 6.6075 9.12 6.6975 9.18C5.235 8.1225 3.4425 7.5 1.5 7.5C1.5 11.49 4.02 14.865 7.5225 16.1175C7.995 16.29 8.49 16.4175 9 16.5C9.51 16.41 9.9975 16.2825 10.4775 16.1175C13.98 14.865 16.5 11.49 16.5 7.5C13.365 7.5 10.6125 9.1275 9 11.5875ZM9.99 14.7C9.66 14.8125 9.33 14.9025 8.9925 14.9775C8.6625 14.91 8.34 14.82 8.0325 14.7075C5.565 13.8225 3.7575 11.715 3.195 9.195C4.02 9.39 4.8075 9.7275 5.535 10.1925L5.52 10.2C5.6175 10.2675 5.715 10.335 5.8125 10.3875L5.865 10.4175C6.6075 10.9575 7.245 11.625 7.7475 12.405L9 14.325L10.2525 12.4125C10.77 11.625 11.415 10.95 12.15 10.4175L12.2025 10.38C12.27 10.3425 12.3375 10.2975 12.405 10.2525L12.3975 10.2375C13.1325 9.75 13.95 9.39 14.805 9.1875C14.2425 11.715 12.4425 13.8225 9.99 14.7ZM6.7425 9.21C6.7275 9.2025 6.7125 9.1875 6.705 9.18C6.705 9.18 6.7125 9.18 6.7125 9.1875C6.72 9.195 6.7275 9.2025 6.7425 9.21Z" fill="#C2C2C2"/>
</svg>
