<svg width="19" height="18" viewBox="0 0 19 18" fill="none" xmlns="http://www.w3.org/2000/svg">
<path d="M1.03848 0.769226H17.9616V17.2308H1.03848V0.769226Z" fill="url(#paint0_radial)"/>
<path d="M1.03848 0.769219H17.9615V17.2307H1.03848V0.769219ZM0.269257 18H18.7308V0H0.269257V18ZM12.3615 6.41538C12.3615 6.35385 12.3846 6.32305 12.4539 6.32305H13.6615C13.723 6.32305 13.7538 6.34613 13.7538 6.41538V12.4846C13.7538 12.5461 13.7385 12.5769 13.6615 12.5769H12.4692C12.3923 12.5769 12.3692 12.5385 12.3692 12.4769V6.41538H12.3615ZM12.2769 4.66922C12.2769 4.17691 12.6231 3.88461 13.0616 3.88461C13.5308 3.88461 13.8462 4.19999 13.8462 4.66922C13.8462 5.1769 13.5154 5.45382 13.0462 5.45382C12.6 5.45385 12.2769 5.1769 12.2769 4.66922ZM8.81539 8.94615C8.60004 8.09229 8.09235 6.23076 7.90001 5.33076H7.88463C7.72308 6.23076 7.31541 7.75381 6.99235 8.94615H8.81539ZM6.67694 10.1923L6.06924 12.5C6.05386 12.5615 6.03079 12.5769 5.95387 12.5769H4.8231C4.74619 12.5769 4.73078 12.5538 4.74619 12.4615L6.93079 4.81535C6.96924 4.67691 6.99232 4.55382 7.0077 4.17691C7.0077 4.12307 7.03077 4.1 7.06923 4.1H8.68461C8.73845 4.1 8.76152 4.11538 8.77694 4.17691L11.2231 12.4769C11.2385 12.5384 11.2231 12.5769 11.1615 12.5769H9.8846C9.82307 12.5769 9.78459 12.5615 9.76923 12.5077L9.13846 10.1923H6.67694Z" fill="#FF7F18"/>
<defs>
<radialGradient id="paint0_radial" cx="0" cy="0" r="1" gradientUnits="userSpaceOnUse" gradientTransform="translate(6.61212 4.45827) scale(12.8615 12.4523)">
<stop stop-color="#423325" stop-opacity="0.98"/>
<stop offset="1" stop-color="#1C0A00"/>
</radialGradient>
</defs>
</svg>
