<svg width="19" height="18" viewBox="0 0 19 18" fill="none" xmlns="http://www.w3.org/2000/svg">
<path fill-rule="evenodd" clip-rule="evenodd" d="M9.50118 15.064L9.54906 18C9.11089 18.0002 8.68986 17.8297 8.37528 17.5247L8.14603 17.2518L2.57641 10.6287L0.681959 8.37389C0.676983 8.37122 0.672996 8.36702 0.670587 8.36192L0.640659 8.3272L0.634673 8.31942C0.597625 8.27056 0.567977 8.21651 0.546684 8.159C0.518351 8.08849 0.502747 8.0135 0.500595 7.93754V7.89204C0.500595 7.87768 0.501792 7.86272 0.504785 7.84835C0.517883 7.70088 0.5803 7.56213 0.681959 7.4545C0.803468 7.32281 0.980044 7.23901 1.17398 7.23901H3.04448L9.50058 15.0652L9.50177 15.064H9.50118Z" fill="#FCD1CA"/>
<path fill-rule="evenodd" clip-rule="evenodd" d="M9.49998 11.5433V15.182L0.668795 4.64368C0.615755 4.58428 0.573973 4.51573 0.545491 4.44136C0.517526 4.37013 0.502134 4.29459 0.5 4.2181V4.17321C0.504788 4.00441 0.572426 3.85298 0.681364 3.73745C0.802274 3.60398 0.97885 3.52197 1.17338 3.52197H2.84816L9.49998 11.5427V11.5433Z" fill="#FF9D8D"/>
<path fill-rule="evenodd" clip-rule="evenodd" d="M1.1702 0.000611801C0.977463 0.000611801 0.800288 0.0820165 0.680576 0.214897C0.572835 0.328026 0.505796 0.481257 0.501007 0.648256V0.69255C0.502803 0.772159 0.518365 0.84638 0.546498 0.914018C0.547096 0.920602 0.550089 0.925989 0.552483 0.931975C0.581714 1.00237 0.623494 1.06686 0.675787 1.12232L0.685364 1.13309L9.50039 11.5433V18C9.93606 18.0009 10.3549 17.8317 10.6676 17.5283C10.6694 17.5283 10.6694 17.5283 10.6694 17.5271L18.331 8.43136C18.3406 8.42179 18.3489 8.41101 18.3573 8.40024C18.398 8.34996 18.4303 8.29309 18.4543 8.23084C18.4842 8.15662 18.4998 8.07522 18.4998 7.98843V0.669206C18.5005 0.499561 18.4358 0.336171 18.319 0.213101C18.2566 0.145399 18.1808 0.0914723 18.0964 0.0547776C18.012 0.0180829 17.9208 -0.000570299 17.8288 1.32821e-05H1.1708L1.1702 0.000611801Z" fill="#FF6661"/>
</svg>
