<svg width="2960" height="681" viewBox="0 0 2960 681" fill="none" xmlns="http://www.w3.org/2000/svg">
<g opacity="0.5">
<rect x="83.0566" y="359.356" width="141.665" height="141.665" fill="#C3C3C3" fill-opacity="0.08"/>
<rect x="176.068" width="141.665" height="141.665" fill="#C3C3C3" fill-opacity="0.08"/>
<rect x="29.5605" y="179.678" width="141.665" height="141.665" fill="#C3C3C3" fill-opacity="0.08"/>
<rect x="331.714" y="359.356" width="141.665" height="141.665" fill="#C3C3C3" fill-opacity="0.08"/>
<rect y="539.035" width="141.665" height="141.665" fill="#C3C3C3" fill-opacity="0.08"/>
<rect x="424.725" width="141.665" height="141.665" fill="#C3C3C3" fill-opacity="0.08"/>
<rect x="278.218" y="179.678" width="141.665" height="141.665" fill="#C3C3C3" fill-opacity="0.08"/>
<rect x="580.371" y="359.356" width="141.665" height="141.665" fill="#C3C3C3" fill-opacity="0.08"/>
<rect x="248.657" y="539.035" width="141.665" height="141.665" fill="#C3C3C3" fill-opacity="0.08"/>
<rect x="673.382" width="141.665" height="141.665" fill="#C3C3C3" fill-opacity="0.08"/>
<rect x="526.875" y="179.678" width="141.665" height="141.665" fill="#C3C3C3" fill-opacity="0.08"/>
<rect x="829.028" y="359.356" width="141.665" height="141.665" fill="#C4C4C4" fill-opacity="0.25"/>
<rect x="497.314" y="539.035" width="141.665" height="141.665" fill="#C3C3C3" fill-opacity="0.08"/>
<rect x="922.039" width="141.665" height="141.665" fill="#C3C3C3" fill-opacity="0.08"/>
<rect x="775.532" y="179.678" width="141.665" height="141.665" fill="#C3C3C3" fill-opacity="0.08"/>
<rect x="1077.69" y="359.356" width="141.665" height="141.665" fill="#C3C3C3" fill-opacity="0.08"/>
<rect x="745.972" y="539.035" width="141.665" height="141.665" fill="#C3C3C3" fill-opacity="0.08"/>
<rect x="1170.7" width="141.665" height="141.665" fill="#C3C3C3" fill-opacity="0.08"/>
<rect x="1024.19" y="179.678" width="141.665" height="141.665" fill="#C3C3C3" fill-opacity="0.08"/>
<rect x="1326.34" y="359.356" width="141.665" height="141.665" fill="#C3C3C3" fill-opacity="0.08"/>
<rect x="994.629" y="539.035" width="141.665" height="141.665" fill="#C3C3C3" fill-opacity="0.08"/>
<rect x="1419.35" width="141.665" height="141.665" fill="#C3C3C3" fill-opacity="0.08"/>
<rect x="1272.85" y="179.678" width="141.665" height="141.665" fill="#C4C4C4" fill-opacity="0.25"/>
<rect x="1575" y="359.356" width="141.665" height="141.665" fill="#C3C3C3" fill-opacity="0.08"/>
<rect x="1243.29" y="539.035" width="141.665" height="141.665" fill="#C3C3C3" fill-opacity="0.08"/>
<rect x="1668.01" width="141.665" height="141.665" fill="#C3C3C3" fill-opacity="0.08"/>
<rect x="1521.5" y="179.678" width="141.665" height="141.665" fill="#C3C3C3" fill-opacity="0.08"/>
<rect x="1823.66" y="359.356" width="141.665" height="141.665" fill="#C3C3C3" fill-opacity="0.08"/>
<rect x="1491.94" y="539.035" width="141.665" height="141.665" fill="#C3C3C3" fill-opacity="0.08"/>
<rect x="1916.67" width="141.665" height="141.665" fill="#C3C3C3" fill-opacity="0.08"/>
<rect x="1770.16" y="179.678" width="141.665" height="141.665" fill="#C3C3C3" fill-opacity="0.08"/>
<rect x="2072.31" y="359.356" width="141.665" height="141.665" fill="#C3C3C3" fill-opacity="0.08"/>
<rect x="1740.6" y="539.035" width="141.665" height="141.665" fill="#C4C4C4" fill-opacity="0.25"/>
<rect x="2165.32" width="141.665" height="141.665" fill="#C3C3C3" fill-opacity="0.08"/>
<rect x="2018.82" y="179.678" width="141.665" height="141.665" fill="#C3C3C3" fill-opacity="0.08"/>
<rect x="2320.97" y="359.356" width="141.665" height="141.665" fill="#C3C3C3" fill-opacity="0.08"/>
<rect x="1989.26" y="539.035" width="141.665" height="141.665" fill="#C3C3C3" fill-opacity="0.08"/>
<rect x="2413.98" width="141.665" height="141.665" fill="#C3C3C3" fill-opacity="0.08"/>
<rect x="2267.47" y="179.678" width="141.665" height="141.665" fill="#C3C3C3" fill-opacity="0.08"/>
<rect x="2569.63" y="359.356" width="141.665" height="141.665" fill="#C3C3C3" fill-opacity="0.08"/>
<rect x="2237.91" y="539.035" width="141.665" height="141.665" fill="#C3C3C3" fill-opacity="0.08"/>
<rect x="2662.64" width="141.665" height="141.665" fill="#C3C3C3" fill-opacity="0.08"/>
<rect x="2516.13" y="179.678" width="141.665" height="141.665" fill="#C3C3C3" fill-opacity="0.08"/>
<rect x="2818.29" y="359.356" width="141.665" height="141.665" fill="#C3C3C3" fill-opacity="0.08"/>
<rect x="2486.57" y="539.035" width="141.665" height="141.665" fill="#C3C3C3" fill-opacity="0.08"/>
</g>
</svg>
