<svg width="18" height="18" viewBox="0 0 18 18" fill="none" xmlns="http://www.w3.org/2000/svg">
<g clip-path="url(#clip0)">
<path d="M4.94196 2.69454L9.14577 2.25L13.3496 2.69454L16.604 7.07143L9.14577 15.75L1.6875 7.07143L4.94196 2.69454Z" fill="#FDB300"/>
<path d="M4.70861 7.07153L9.14577 15.7501L1.6875 7.07153H4.70861Z" fill="#C2C2C2"/>
<path d="M13.5829 7.07153L9.14526 15.7501L16.6035 7.07153H13.5829Z" fill="#EA6C00"/>
<path d="M4.70862 7.07153H13.5829L9.14578 15.7501L4.70862 7.07153Z" fill="#FDAD00"/>
<path d="M9.14578 2.25L4.94198 2.69454L4.70862 7.07143L9.14578 2.25Z" fill="#FDD231"/>
<path d="M9.14526 2.25L13.3491 2.69454L13.5824 7.07143L9.14526 2.25Z" fill="#FDD231"/>
<path d="M16.6036 7.07147L13.3491 2.69458L13.5829 7.07147H16.6036ZM1.6875 7.07147L4.94196 2.69458L4.70861 7.07147H1.6875Z" fill="#FDAD00"/>
<path d="M9.14578 2.25L4.70862 7.07143H13.5829L9.14578 2.25Z" fill="#FEEEB7"/>
</g>
<defs>
<clipPath id="clip0">
<rect width="14.9464" height="13.5" fill="white" transform="translate(1.6875 2.25)"/>
</clipPath>
</defs>
</svg>
