<svg width="21" height="18" viewBox="0 0 21 18" fill="none" xmlns="http://www.w3.org/2000/svg">
<g clip-path="url(#clip0)">
<path d="M5.08929 0.592714L10.6944 0L16.2994 0.592714L20.6387 6.42857L10.6944 18L0.75 6.42857L5.08929 0.592714Z" fill="#FDB300"/>
<path d="M4.77814 6.42859L10.6944 18L0.75 6.42859H4.77814Z" fill="#EA6C00"/>
<path d="M16.6106 6.42859L10.6937 18L20.6381 6.42859H16.6106Z" fill="#EA6C00"/>
<path d="M4.77814 6.42859H16.6106L10.6944 18L4.77814 6.42859Z" fill="#FDAD00"/>
<path d="M10.6944 0L5.08928 0.592714L4.77814 6.42857L10.6944 0Z" fill="#FDD231"/>
<path d="M10.6937 0L16.2988 0.592714L16.6099 6.42857L10.6937 0Z" fill="#FDD231"/>
<path d="M20.6381 6.42857L16.2988 0.592712L16.6106 6.42857H20.6381ZM0.75 6.42857L5.08929 0.592712L4.77814 6.42857H0.75Z" fill="#FDAD00"/>
<path d="M10.6944 0L4.77814 6.42857H16.6106L10.6944 0Z" fill="#FEEEB7"/>
</g>
<defs>
<clipPath id="clip0">
<rect width="19.9286" height="18" fill="white" transform="translate(0.75)"/>
</clipPath>
</defs>
</svg>
