<svg width="25" height="18" viewBox="0 0 25 18" fill="none" xmlns="http://www.w3.org/2000/svg">
<path d="M18.302 5.55997C18.302 5.55997 16.356 11.663 16.197 12.167C15.707 8.34204 15.2123 4.5177 14.713 0.69397C11.397 0.69397 9.624 3.05397 8.687 5.54497L6.122 12.182C6.107 11.706 5.762 5.61697 5.762 5.61697C5.558 2.56497 2.762 0.70697 0.5 0.70697L3.239 17.307C6.713 17.292 8.586 14.946 9.567 12.455C9.567 12.455 11.657 7.05697 11.743 6.81197C11.758 7.04197 13.243 17.306 13.243 17.306C16.731 17.306 18.605 15.104 19.613 12.7L24.5 0.70797C21.055 0.70797 19.239 3.05397 18.302 5.55897V5.55997Z" fill="#4353FF"/>
</svg>
