<svg width="275" height="275" viewBox="0 0 275 275" fill="none" xmlns="http://www.w3.org/2000/svg">
<path fill-rule="evenodd" clip-rule="evenodd" d="M143.709 68.4108L137.482 0.589355L131.256 68.4108L113.02 2.79103L119.003 70.6343L89.3433 9.32529L107.345 75.0098L67.2142 19.9821L96.6547 81.3968L47.3435 34.419L87.277 89.5899L30.37 52.1719L79.5129 99.3258L16.8392 72.6702L73.612 110.292L7.18591 95.2552L69.7639 122.135L1.72047 119.201L68.0923 134.475L0.61853 143.738L68.651 146.915L3.9155 168.077L71.422 159.055L11.5054 191.436L76.3162 170.506L23.1443 213.065L83.1763 180.898L38.4581 232.268L91.7819 189.899L56.9547 248.428L101.856 197.219L78.0394 261.025L113.076 202.622L101.035 269.655L125.08 205.935L125.201 274.041L137.482 207.051L149.763 274.041L149.885 205.935L173.93 269.655L161.889 202.622L196.925 261.025L173.108 197.219L218.01 248.428L183.183 189.899L236.506 232.268L191.788 180.898L251.82 213.065L198.648 170.506L263.459 191.436L203.542 159.055L271.049 168.077L206.313 146.915L274.346 143.738L206.872 134.475L273.244 119.201L205.201 122.135L267.779 95.2552L201.352 110.292L258.125 72.6702L195.452 99.3258L244.594 52.1719L187.687 89.5899L227.621 34.419L178.31 81.3968L207.75 19.9821L167.62 75.0098L185.621 9.32529L155.961 70.6343L161.945 2.79103L143.709 68.4108ZM125.088 116.552C125.088 121.506 121.072 125.522 116.118 125.522C111.163 125.522 107.147 121.506 107.147 116.552C107.147 111.598 111.163 107.582 116.118 107.582C121.072 107.582 125.088 111.598 125.088 116.552ZM167.816 116.552C167.816 121.506 163.8 125.522 158.846 125.522C153.892 125.522 149.876 121.506 149.876 116.552C149.876 111.598 153.892 107.582 158.846 107.582C163.8 107.582 167.816 111.598 167.816 116.552ZM173.867 149.595C174.44 147.857 173.324 146.066 171.543 145.645C169.762 145.224 167.994 146.334 167.389 148.061C165.37 153.828 161.718 158.912 156.844 162.674C151.093 167.114 143.99 169.442 136.727 169.269C129.463 169.096 122.48 166.432 116.946 161.723C112.258 157.733 108.851 152.481 107.11 146.625C106.588 144.871 104.874 143.677 103.076 144.013C101.277 144.349 100.076 146.085 100.566 147.848C102.608 155.196 106.805 161.795 112.652 166.77C119.342 172.464 127.786 175.685 136.569 175.894C145.352 176.103 153.939 173.288 160.894 167.92C166.971 163.229 171.477 156.838 173.867 149.595Z" fill="#84D321"/>
</svg>
