<svg width="25" height="24" viewBox="0 0 25 24" fill="none" xmlns="http://www.w3.org/2000/svg">
<path d="M21.5556 3H3.4444V21H21.5556V3Z" fill="#BC85F3"/>
<path d="M20.0377 4.50848H4.96222V19.4915H20.0377V4.50848Z" fill="#252653"/>
<path fill-rule="evenodd" clip-rule="evenodd" d="M10.7259 14.0662L11.3567 16.1517H13.1285L10.6124 7.75847C10.6077 7.74325 10.596 7.73272 10.5715 7.73272L8.48954 7.72687C8.40879 7.72687 8.40645 7.769 8.41347 7.84858C8.43922 8.13763 8.42518 8.29913 8.36549 8.525L6.13495 16.1528L7.81546 16.1505L8.33858 14.0651L10.7259 14.0662ZM10.424 12.5543H8.69902L9.53577 9.17567L10.424 12.5543Z" fill="#BC85F3"/>
<path fill-rule="evenodd" clip-rule="evenodd" d="M15.1952 13.3886L18.4474 13.3933C18.6522 13.1311 18.6897 12.6384 18.6838 12.3154C18.6616 11.0047 17.7932 9.75019 16.2251 9.742C13.592 9.72678 13.0934 13.0562 13.9899 14.9766C14.2719 15.5805 14.8383 15.9644 15.503 16.1469C15.8061 16.23 16.1279 16.2721 16.4533 16.2733C17.0969 16.2756 17.7511 16.12 18.2766 15.8204C18.2848 15.8157 18.2988 15.8157 18.3 15.8064V15.7689L18.2988 14.6841C18.2988 14.6349 18.2614 14.6068 18.2052 14.6244C17.5405 14.8245 15.2889 15.4635 15.1847 13.4494C15.1835 13.4342 15.18 13.3886 15.1952 13.3886ZM16.8254 12.3014H15.1695C15.1777 11.4213 15.5814 10.9216 16.2052 10.9193C16.7716 10.917 17.132 11.3102 17.1496 12.2803C17.1496 12.3248 17.1496 12.3014 17.1496 12.3014H16.8254Z" fill="#BC85F3"/>
</svg>
