<svg width="25" height="24" viewBox="0 0 25 24" fill="none" xmlns="http://www.w3.org/2000/svg">
<path d="M4.03848 3.76923H20.9616V20.2308H4.03848V3.76923Z" fill="url(#paint0_radial)"/>
<path d="M4.03848 3.76922H20.9615V20.2307H4.03848V3.76922ZM3.26926 21H21.7308V3H3.26926V21ZM15.3615 9.41538C15.3615 9.35385 15.3846 9.32305 15.4539 9.32305H16.6615C16.723 9.32305 16.7538 9.34613 16.7538 9.41538V15.4846C16.7538 15.5461 16.7385 15.5769 16.6615 15.5769H15.4692C15.3923 15.5769 15.3692 15.5385 15.3692 15.4769V9.41538H15.3615ZM15.2769 7.66922C15.2769 7.17691 15.6231 6.88461 16.0616 6.88461C16.5308 6.88461 16.8462 7.19999 16.8462 7.66922C16.8462 8.1769 16.5154 8.45382 16.0462 8.45382C15.6 8.45385 15.2769 8.1769 15.2769 7.66922ZM11.8154 11.9461C11.6 11.0923 11.0924 9.23076 10.9 8.33076H10.8846C10.7231 9.23076 10.3154 10.7538 9.99235 11.9461H11.8154ZM9.67694 13.1923L9.06924 15.5C9.05386 15.5615 9.03079 15.5769 8.95387 15.5769H7.8231C7.74619 15.5769 7.73078 15.5538 7.74619 15.4615L9.93079 7.81535C9.96924 7.67691 9.99232 7.55382 10.0077 7.17691C10.0077 7.12307 10.0308 7.1 10.0692 7.1H11.6846C11.7385 7.1 11.7615 7.11538 11.7769 7.17691L14.2231 15.4769C14.2385 15.5384 14.2231 15.5769 14.1615 15.5769H12.8846C12.8231 15.5769 12.7846 15.5615 12.7692 15.5077L12.1385 13.1923H9.67694Z" fill="#FF7F18"/>
<defs>
<radialGradient id="paint0_radial" cx="0" cy="0" r="1" gradientUnits="userSpaceOnUse" gradientTransform="translate(9.61212 7.45827) scale(12.8615 12.4523)">
<stop stop-color="#423325" stop-opacity="0.98"/>
<stop offset="1" stop-color="#1C0A00"/>
</radialGradient>
</defs>
</svg>
