<svg width="25" height="24" viewBox="0 0 25 24" fill="none" xmlns="http://www.w3.org/2000/svg">
<path fill-rule="evenodd" clip-rule="evenodd" d="M19.3423 3.47635C19.2022 3.17813 18.9018 3 18.5387 3H17.1365C16.7293 3 16.425 3.16412 16.2648 3.46034L14.1865 6.50256L16.0059 8.99504L19.1821 4.43038C19.5312 4.0054 19.4104 3.62179 19.3423 3.47635Z" fill="#74BB11"/>
<path fill-rule="evenodd" clip-rule="evenodd" d="M8.38621 3.42595L8.38421 3.42328C8.06718 3.00031 7.64604 3.00031 7.50722 3.00031H6.13566C5.78459 3.00031 5.49694 3.16176 5.3461 3.4433C5.19192 3.73151 5.22463 4.07843 5.4382 4.39933L10.5193 11.4565L4.67667 19.6204C4.47244 19.9273 4.44374 20.2689 4.59858 20.5571C4.74942 20.8387 5.03708 21.0001 5.38814 21.0001H6.7904C7.15081 21.0001 7.46784 20.8126 7.62602 20.5171L14.1654 11.4885L8.38621 3.42595Z" fill="#009CD9"/>
<path fill-rule="evenodd" clip-rule="evenodd" d="M20.0546 19.8647L16.5151 15.0016L14.9578 17.1504L17.7571 20.8905L17.8302 20.9223C17.9507 20.9744 18.066 20.9999 18.1831 20.9999H19.3736C19.661 20.9999 19.9056 20.8714 20.0436 20.6485C20.1856 20.4193 20.189 20.1339 20.0546 19.8647Z" fill="#EB2084"/>
</svg>
