<svg width="25" height="24" viewBox="0 0 25 24" fill="none" xmlns="http://www.w3.org/2000/svg">
<path d="M21.5 17.85C21.5 19.5938 20.0938 21 18.35 21H6.65C4.90625 21 3.5 19.5938 3.5 17.85V6.15C3.5 4.40625 4.90625 3 6.65 3H18.35C20.0938 3 21.5 4.40625 21.5 6.15V17.85Z" fill="#CF0A2C"/>
<path d="M8.45203 18.1245L8.52234 15.9307V5.68225H10.0467V11.01H10.0816C10.625 10.0636 11.606 9.45016 12.9728 9.45016C15.076 9.45016 16.5652 11.2023 16.5447 13.7814C16.5447 16.8133 14.6345 18.3202 12.7422 18.3202C11.5154 18.3202 10.5344 17.8472 9.90328 16.7255H9.85631L9.786 18.1276H8.45428L8.45203 18.1245ZM10.0467 14.7247C10.0467 14.9174 10.0816 15.11 10.117 15.2855C10.4152 16.3543 11.3087 17.0906 12.43 17.0906C14.0424 17.0906 15.0063 15.776 15.0063 13.8281C15.0063 12.1282 14.1299 10.6736 12.4829 10.6736C11.431 10.6736 10.45 11.3922 10.1345 12.5664C10.0996 12.7416 10.0467 12.9517 10.0467 13.1973V14.7247Z" fill="white"/>
</svg>
