<svg width="244" height="473" viewBox="0 0 244 473" fill="none" xmlns="http://www.w3.org/2000/svg">
<circle cx="32.7951" cy="6.853" r="6.79099" fill="#F0F0F0"/>
<circle cx="32.7951" cy="57.854" r="6.79099" fill="#F0F0F0"/>
<circle cx="32.7951" cy="108.855" r="6.79099" fill="#F0F0F0"/>
<circle cx="32.7951" cy="159.856" r="6.79099" fill="#F0F0F0"/>
<circle cx="32.7951" cy="210.857" r="6.79099" fill="#F0F0F0"/>
<circle cx="32.7951" cy="261.858" r="6.79099" fill="#F0F0F0"/>
<circle cx="32.7951" cy="312.859" r="6.79099" fill="#F0F0F0"/>
<circle cx="32.7951" cy="363.86" r="6.79099" fill="#F0F0F0"/>
<circle cx="32.7951" cy="414.861" r="6.79099" fill="#F0F0F0"/>
<circle cx="32.7951" cy="465.862" r="6.79099" fill="#F0F0F0"/>
<circle cx="83.7963" cy="6.853" r="6.79099" fill="#F0F0F0"/>
<circle cx="83.7963" cy="57.854" r="6.79099" fill="#F0F0F0"/>
<circle cx="83.7963" cy="108.855" r="6.79099" fill="#F0F0F0"/>
<circle cx="83.7963" cy="159.856" r="6.79099" fill="#F0F0F0"/>
<circle cx="83.7963" cy="210.857" r="6.79099" fill="#F0F0F0"/>
<circle cx="83.7963" cy="261.858" r="6.79099" fill="#F0F0F0"/>
<circle cx="83.7963" cy="312.859" r="6.79099" fill="#F0F0F0"/>
<circle cx="83.7963" cy="363.86" r="6.79099" fill="#F0F0F0"/>
<circle cx="83.7963" cy="414.861" r="6.79099" fill="#F0F0F0"/>
<circle cx="83.7963" cy="465.862" r="6.79099" fill="#F0F0F0"/>
<circle cx="134.797" cy="6.853" r="6.79099" fill="#F0F0F0"/>
<circle cx="134.797" cy="57.854" r="6.79099" fill="#F0F0F0"/>
<circle cx="134.797" cy="108.855" r="6.79099" fill="#F0F0F0"/>
<circle cx="134.797" cy="159.856" r="6.79099" fill="#F0F0F0"/>
<circle cx="134.797" cy="210.857" r="6.79099" fill="#F0F0F0"/>
<circle cx="134.797" cy="261.858" r="6.79099" fill="#F0F0F0"/>
<circle cx="134.797" cy="312.859" r="6.79099" fill="#F0F0F0"/>
<circle cx="134.797" cy="363.86" r="6.79099" fill="#F0F0F0"/>
<circle cx="134.797" cy="414.861" r="6.79099" fill="#F0F0F0"/>
<circle cx="134.797" cy="465.862" r="6.79099" fill="#F0F0F0"/>
<circle cx="185.798" cy="6.853" r="6.79099" fill="#F0F0F0"/>
<circle cx="185.798" cy="57.854" r="6.79099" fill="#F0F0F0"/>
<circle cx="185.798" cy="108.855" r="6.79099" fill="#F0F0F0"/>
<circle cx="185.798" cy="159.856" r="6.79099" fill="#F0F0F0"/>
<circle cx="185.798" cy="210.857" r="6.79099" fill="#F0F0F0"/>
<circle cx="185.798" cy="261.858" r="6.79099" fill="#F0F0F0"/>
<circle cx="185.798" cy="312.859" r="6.79099" fill="#F0F0F0"/>
<circle cx="185.798" cy="363.86" r="6.79099" fill="#F0F0F0"/>
<circle cx="185.798" cy="414.861" r="6.79099" fill="#F0F0F0"/>
<circle cx="185.798" cy="465.862" r="6.79099" fill="#F0F0F0"/>
<circle cx="236.799" cy="6.853" r="6.79099" fill="#F0F0F0"/>
<circle cx="236.799" cy="57.854" r="6.79099" fill="#F0F0F0"/>
<circle cx="236.799" cy="108.855" r="6.79099" fill="#F0F0F0"/>
<circle cx="236.799" cy="159.856" r="6.79099" fill="#F0F0F0"/>
<circle cx="236.799" cy="210.857" r="6.79099" fill="#F0F0F0"/>
<circle cx="236.799" cy="261.858" r="6.79099" fill="#F0F0F0"/>
<circle cx="236.799" cy="312.859" r="6.79099" fill="#F0F0F0"/>
<circle cx="236.799" cy="363.86" r="6.79099" fill="#F0F0F0"/>
<circle cx="236.799" cy="414.861" r="6.79099" fill="#F0F0F0"/>
<circle cx="236.799" cy="465.862" r="6.79099" fill="#F0F0F0"/>
</svg>
