<svg width="121" height="107" viewBox="0 0 121 107" fill="none" xmlns="http://www.w3.org/2000/svg">
<path d="M0.333984 77.9038H117.968" stroke="white" stroke-width="1.30705"/>
<path d="M69.6022 40.3486H71.4022V28.5886H71.4422L75.7622 40.3486H77.3622L81.6822 28.5886H81.7222V40.3486H83.5222V26.0486H81.0622L76.5822 37.9286H76.5422L72.0622 26.0486H69.6022V40.3486ZM95.2838 36.7686L96.5438 40.3486H98.4038L93.1438 26.0486H91.1438L85.8638 40.3486H87.7238L88.9838 36.7686H95.2838ZM89.5838 35.1686L92.1238 27.7086H92.1638L94.7038 35.1686H89.5838ZM98.1091 26.0486L103.309 34.4886V40.3486H105.109V34.4886L110.329 26.0486H108.389L104.229 33.0486H104.189L100.049 26.0486H98.1091ZM71.0822 56.3686C71.0822 54.4686 71.8022 52.8486 74.2222 52.8486C76.3422 52.8486 76.8622 54.2486 76.8622 55.4086C76.8622 57.4286 75.5822 57.9086 73.0022 59.4086C70.4622 60.8886 68.8822 62.8486 68.8822 65.3486H78.4622V63.7486H71.0622V63.7086C71.9222 60.4086 78.6622 60.1286 78.6622 55.3886C78.6622 52.7486 76.6222 51.2486 74.2622 51.2486C70.8422 51.2486 69.2822 53.5086 69.2822 56.3686H71.0822ZM86.3755 65.6286C90.1555 65.6286 91.6955 62.3686 91.6955 58.4486C91.6955 54.5286 90.1555 51.2486 86.3755 51.2486C82.5955 51.2486 81.0555 54.5286 81.0555 58.4486C81.0555 62.3686 82.5955 65.6286 86.3755 65.6286ZM86.3755 64.0286C83.7355 64.0286 82.8555 61.3886 82.8555 58.4486C82.8555 55.5086 83.7355 52.8486 86.3755 52.8486C89.0155 52.8486 89.8955 55.5086 89.8955 58.4486C89.8955 61.3886 89.0155 64.0286 86.3755 64.0286ZM96.1002 56.3686C96.1002 54.4686 96.8202 52.8486 99.2402 52.8486C101.36 52.8486 101.88 54.2486 101.88 55.4086C101.88 57.4286 100.6 57.9086 98.0202 59.4086C95.4802 60.8886 93.9002 62.8486 93.9002 65.3486H103.48V63.7486H96.0802V63.7086C96.9402 60.4086 103.68 60.1286 103.68 55.3886C103.68 52.7486 101.64 51.2486 99.2802 51.2486C95.8602 51.2486 94.3002 53.5086 94.3002 56.3686H96.1002ZM109.153 51.5286C108.953 53.3286 108.293 54.5086 105.873 54.5086V55.8086C107.113 55.8086 107.913 55.8086 108.753 55.0086V65.3486H110.553V51.5286H109.153Z" fill="white"/>
<path d="M12.9969 40.2017C12.9969 35.0717 15.3189 33.1277 18.8289 33.1277C21.7449 33.1277 23.3649 34.8557 23.3649 37.7177C23.3649 42.6317 17.0469 45.5477 10.3509 51.1097C7.05691 53.8637 3.81691 57.6977 3.81691 63.9077H32.5449V56.5097H16.7229V56.4017C21.5289 51.6497 32.5449 46.8977 32.5449 37.0697C32.5449 29.9417 27.1449 25.7297 19.0989 25.7297C9.00091 25.7297 4.35691 31.4537 4.35691 40.2017H12.9969ZM51.3812 26.5937C51.3812 30.6437 48.9512 34.3697 41.8772 34.3697V40.8497C44.5232 40.8497 47.6552 40.8497 49.7612 38.6897V63.9077H58.9412V26.5937H51.3812Z" fill="#84D321"/>
<path d="M6.53659 88.9512C6.41059 90.4812 5.76259 91.5972 3.51259 91.5972V93.0912C4.55659 93.0912 5.38459 93.0912 6.12259 92.3712V101.389H8.21059V88.9512H6.53659ZM12.8948 93.3612C12.8948 91.6512 13.5968 90.4632 15.4508 90.4632C17.0528 90.4632 17.5388 91.4892 17.5388 92.5152C17.5388 94.2792 16.0808 94.8732 13.7948 96.3852C11.8868 97.5912 10.5728 99.1932 10.5728 101.389H19.5008V99.6252H13.2908V99.5892C14.3168 97.0512 19.6268 96.3852 19.6268 92.4252C19.6268 90.0492 17.8088 88.6812 15.5048 88.6812C12.3188 88.6812 10.8788 90.6792 10.8788 93.3612H12.8948ZM22.7657 96.0072C23.4137 96.0072 23.9177 95.5572 23.9177 94.8372C23.9177 94.1352 23.4137 93.6672 22.7657 93.6672C22.0997 93.6672 21.5957 94.1352 21.5957 94.8372C21.5957 95.5572 22.0997 96.0072 22.7657 96.0072ZM22.7657 101.533C23.4137 101.533 23.9177 101.083 23.9177 100.363C23.9177 99.6612 23.4137 99.1932 22.7657 99.1932C22.0997 99.1932 21.5957 99.6612 21.5957 100.363C21.5957 101.083 22.0997 101.533 22.7657 101.533ZM30.9872 101.659C34.4972 101.659 35.9912 98.7072 35.9912 95.1792C35.9912 91.6512 34.4972 88.6812 30.9872 88.6812C27.4772 88.6812 25.9832 91.6512 25.9832 95.1792C25.9832 98.7072 27.4772 101.659 30.9872 101.659ZM30.9872 99.8772C28.7912 99.8772 28.0532 97.7712 28.0532 95.1792C28.0532 92.5872 28.7912 90.4632 30.9872 90.4632C33.1832 90.4632 33.9032 92.5872 33.9032 95.1792C33.9032 97.7712 33.1832 99.8772 30.9872 99.8772ZM42.8827 101.659C46.3927 101.659 47.8867 98.7072 47.8867 95.1792C47.8867 91.6512 46.3927 88.6812 42.8827 88.6812C39.3727 88.6812 37.8787 91.6512 37.8787 95.1792C37.8787 98.7072 39.3727 101.659 42.8827 101.659ZM42.8827 99.8772C40.6867 99.8772 39.9487 97.7712 39.9487 95.1792C39.9487 92.5872 40.6867 90.4632 42.8827 90.4632C45.0787 90.4632 45.7987 92.5872 45.7987 95.1792C45.7987 97.7712 45.0787 99.8772 42.8827 99.8772ZM58.7279 91.9392C57.2879 91.9392 56.3879 92.6232 55.9019 93.2712H55.8659V92.1912H53.9579V104.521H55.8659V100.291H55.9019C56.3879 100.975 57.2879 101.659 58.7279 101.659C61.0679 101.659 62.8139 99.8232 62.8139 96.7992C62.8139 93.7752 61.0679 91.9392 58.7279 91.9392ZM58.3679 100.111C56.8379 100.111 55.8839 98.8332 55.8839 96.7992C55.8839 94.7472 56.8379 93.4872 58.3679 93.4872C60.0239 93.4872 60.9059 94.9992 60.9059 96.7992C60.9059 98.5992 60.0239 100.111 58.3679 100.111ZM74.8803 91.9392C73.4583 91.9392 72.5583 92.6412 71.8743 93.5232H71.8383C71.4603 92.5332 70.6863 91.9392 69.3903 91.9392C68.0043 91.9392 67.1403 92.6592 66.6543 93.3792H66.6183V92.1912H64.7283V101.389H66.6183V95.7912C66.6183 94.4232 67.4283 93.5412 68.6883 93.5412C70.0023 93.5412 70.2543 94.3332 70.2543 95.5752V101.389H72.1623V95.7912C72.1623 94.4232 72.9543 93.5412 74.2323 93.5412C75.5283 93.5412 75.7803 94.3332 75.7803 95.5752V101.389H77.6883V95.0352C77.6883 93.0552 76.7343 91.9392 74.8803 91.9392ZM84.183 88.5192V101.389H86.325V88.5192H84.183ZM94.0122 93.7212C92.2122 93.2712 91.0062 93.0192 91.0062 91.6152C91.0062 90.6612 91.9242 90.0852 93.4542 90.0852C95.2362 90.0852 96.1722 90.8772 96.3702 92.3712H98.5122C98.3322 89.7252 96.2802 88.2492 93.4542 88.2492C90.6462 88.2492 88.8822 89.5272 88.8822 91.8132C88.8822 94.2612 91.0602 95.0352 93.0762 95.5392C95.6142 96.1692 96.7122 96.4572 96.7122 97.9872C96.7122 98.9772 95.9742 99.8232 94.0662 99.8232C91.7622 99.8232 90.6462 98.7432 90.5382 97.1052H88.3962C88.5222 100.021 90.9162 101.659 94.0662 101.659C97.3062 101.659 98.8542 99.9492 98.8542 97.8972C98.8542 95.0172 96.7662 94.4232 94.0122 93.7212ZM103.869 101.389H106.011V90.3372H110.115V88.5192H99.7468V90.3372H103.869V101.389Z" fill="#84D321"/>
</svg>
