<svg width="25" height="24" viewBox="0 0 25 24" fill="none" xmlns="http://www.w3.org/2000/svg">
<g clip-path="url(#clip0)">
<path d="M12.5 12C12.5 11.2044 12.8161 10.4413 13.3787 9.87868C13.9413 9.31607 14.7044 9 15.5 9C16.2956 9 17.0587 9.31607 17.6213 9.87868C18.1839 10.4413 18.5 11.2044 18.5 12C18.5 12.7956 18.1839 13.5587 17.6213 14.1213C17.0587 14.6839 16.2956 15 15.5 15C14.7044 15 13.9413 14.6839 13.3787 14.1213C12.8161 13.5587 12.5 12.7956 12.5 12Z" fill="#1ABCFE"/>
<path d="M6.5 18C6.5 17.2044 6.81607 16.4413 7.37868 15.8787C7.94129 15.3161 8.70435 15 9.5 15H12.5V18C12.5 18.7956 12.1839 19.5587 11.6213 20.1213C11.0587 20.6839 10.2956 21 9.5 21C8.70435 21 7.94129 20.6839 7.37868 20.1213C6.81607 19.5587 6.5 18.7956 6.5 18V18Z" fill="#0ACF83"/>
<path d="M12.5 3V9H15.5C16.2956 9 17.0587 8.68393 17.6213 8.12132C18.1839 7.55871 18.5 6.79565 18.5 6C18.5 5.20435 18.1839 4.44129 17.6213 3.87868C17.0587 3.31607 16.2956 3 15.5 3H12.5Z" fill="#FF7262"/>
<path d="M6.5 6C6.5 6.79565 6.81607 7.55871 7.37868 8.12132C7.94129 8.68393 8.70435 9 9.5 9H12.5V3H9.5C8.70435 3 7.94129 3.31607 7.37868 3.87868C6.81607 4.44129 6.5 5.20435 6.5 6V6Z" fill="#F24E1E"/>
<path d="M6.5 12C6.5 12.7956 6.81607 13.5587 7.37868 14.1213C7.94129 14.6839 8.70435 15 9.5 15H12.5V9H9.5C8.70435 9 7.94129 9.31607 7.37868 9.87868C6.81607 10.4413 6.5 11.2044 6.5 12V12Z" fill="#A259FF"/>
</g>
<defs>
<clipPath id="clip0">
<rect width="12" height="18" fill="white" transform="translate(6.5 3)"/>
</clipPath>
</defs>
</svg>
