<svg width="33" height="33" viewBox="0 0 33 33" fill="none" xmlns="http://www.w3.org/2000/svg">
<circle cx="16.4824" cy="16.2065" r="16" fill="white"/>
<path d="M25.7219 10.4752C25.03 10.7817 24.296 10.9828 23.5444 11.0718C24.336 10.5982 24.9284 9.85282 25.2112 8.97471C24.4671 9.41644 23.6529 9.72749 22.8038 9.89439C22.449 9.51601 22.0203 9.21452 21.5443 9.00859C21.0683 8.80267 20.555 8.69671 20.0363 8.69727C17.9426 8.69727 16.2448 10.3945 16.2448 12.4888C16.2448 12.7857 16.2784 13.0753 16.3432 13.353C13.192 13.1949 10.3984 11.6853 8.52833 9.39111C8.19115 9.96976 8.01397 10.6277 8.01497 11.2974C8.01447 11.9217 8.16818 12.5364 8.46244 13.0869C8.75669 13.6374 9.18239 14.1068 9.70169 14.4532C9.0997 14.4341 8.51098 14.2715 7.98449 13.9789C7.98401 13.9948 7.98401 14.0104 7.98401 14.0267C7.98401 15.8632 9.29081 17.3956 11.025 17.7443C10.4666 17.8955 9.88114 17.9176 9.31289 17.8091C9.79529 19.3151 11.1954 20.4117 12.8546 20.4424C11.5115 21.4964 9.85301 22.0681 8.14577 22.0655C7.83977 22.0655 7.53809 22.0477 7.24121 22.0125C8.97481 23.1264 10.9924 23.7176 13.053 23.7155C20.027 23.7155 23.8406 17.9385 23.8406 12.9287C23.8406 12.7645 23.8367 12.6006 23.8295 12.4377C24.5722 11.9015 25.2131 11.2369 25.7219 10.4752Z" fill="#0A0A0A"/>
</svg>
