<svg width="33" height="33" viewBox="0 0 33 33" fill="none" xmlns="http://www.w3.org/2000/svg">
<circle cx="16.4824" cy="16.2065" r="16" fill="white"/>
<path d="M22.4824 7.20654H10.4824C8.78242 7.20654 7.48242 8.50654 7.48242 10.2065V22.2065C7.48242 23.9065 8.78242 25.2065 10.4824 25.2065H22.4824C24.1824 25.2065 25.4824 23.9065 25.4824 22.2065V10.2065C25.4824 8.50654 24.1824 7.20654 22.4824 7.20654ZM16.4824 13.2065C18.1824 13.2065 19.4824 14.5065 19.4824 16.2065C19.4824 17.9065 18.1824 19.2065 16.4824 19.2065C14.7824 19.2065 13.4824 17.9065 13.4824 16.2065C13.4824 14.5065 14.7824 13.2065 16.4824 13.2065ZM20.2824 11.2065C20.2824 10.5065 20.8824 10.0065 21.4824 10.0065C22.0824 10.0065 22.6824 10.6065 22.6824 11.2065C22.6824 11.8065 22.1824 12.4065 21.4824 12.4065C20.7824 12.4065 20.2824 11.9065 20.2824 11.2065ZM22.4824 23.2065H10.4824C9.88242 23.2065 9.48242 22.8065 9.48242 22.2065V16.2065H11.4824C11.4824 19.0065 13.6824 21.2065 16.4824 21.2065C19.2824 21.2065 21.4824 19.0065 21.4824 16.2065H23.4824V22.2065C23.4824 22.8065 23.0824 23.2065 22.4824 23.2065Z" fill="#0A0A0A"/>
</svg>
