<svg width="33" height="33" viewBox="0 0 33 33" fill="none" xmlns="http://www.w3.org/2000/svg">
<circle cx="16.4824" cy="16.2065" r="16" fill="white"/>
<path d="M12.4829 23.2065H9.48291V13.2065H12.4829V23.2065ZM23.4829 23.2065H20.4829V17.8645C20.4829 16.4725 19.9869 15.7795 19.0039 15.7795C18.2249 15.7795 17.7309 16.1675 17.4829 16.9445V23.2065H14.4829C14.4829 23.2065 14.5229 14.2065 14.4829 13.2065H16.8509L17.0339 15.2065H17.0959C17.7109 14.2065 18.6939 13.5285 20.0419 13.5285C21.0669 13.5285 21.8959 13.8135 22.5289 14.5295C23.1659 15.2465 23.4829 16.2085 23.4829 17.5595V23.2065Z" fill="#0A0A0A"/>
<path d="M10.9821 12.2065C11.8382 12.2065 12.5321 11.535 12.5321 10.7065C12.5321 9.87812 11.8382 9.20654 10.9821 9.20654C10.1261 9.20654 9.43213 9.87812 9.43213 10.7065C9.43213 11.535 10.1261 12.2065 10.9821 12.2065Z" fill="#0A0A0A"/>
</svg>
