<svg width="339" height="591" viewBox="0 0 339 591" fill="none" xmlns="http://www.w3.org/2000/svg">
<mask id="mask0" mask-type="alpha" maskUnits="userSpaceOnUse" x="0" y="125" width="339" height="353">
<path d="M0.388553 477.493H88.9052L113.985 350.127H198.567C271.84 350.127 321.999 313.737 335.768 242.432C350.521 166.209 310.197 125.885 236.925 125.885H68.7431L0.388553 477.493ZM143.49 198.173H209.386C239.875 198.173 254.136 206.533 249.219 233.58C242.826 265.544 219.221 277.838 188.732 277.838H127.754L143.49 198.173Z" fill="white"/>
</mask>
<g mask="url(#mask0)">
<rect x="-260.999" y="84.9556" width="705.856" height="421.063" fill="url(#paint0_linear)"/>
<rect x="-58.8533" y="84.186" width="441.583" height="408.053" fill="url(#paint1_linear)"/>
</g>
<defs>
<linearGradient id="paint0_linear" x1="91.9295" y1="84.9556" x2="91.9295" y2="506.019" gradientUnits="userSpaceOnUse">
<stop stop-color="white"/>
<stop offset="1" stop-color="white" stop-opacity="0"/>
</linearGradient>
<linearGradient id="paint1_linear" x1="161.938" y1="84.186" x2="161.938" y2="492.239" gradientUnits="userSpaceOnUse">
<stop stop-color="white"/>
<stop offset="1" stop-color="white" stop-opacity="0"/>
</linearGradient>
</defs>
</svg>
