<svg width="200" height="85" viewBox="0 0 200 85" fill="none" xmlns="http://www.w3.org/2000/svg">
<path d="M1.64004 16H3.08004V11.376H6.36004C9.25604 11.376 8.16804 15.52 8.66404 16H10.216V15.904C9.62404 15.712 10.552 11.216 8.00804 10.72V10.688C9.27204 10.368 10.056 9.456 10.056 7.808C10.056 5.776 8.53604 4.56 6.28004 4.56H1.64004V16ZM3.08004 5.84H5.94404C7.12804 5.84 8.61604 5.984 8.61604 7.968C8.61604 9.952 7.12804 10.096 5.94404 10.096H3.08004V5.84ZM15.6069 15.104C13.8309 15.104 12.9509 13.728 12.9509 12.256H19.3989C19.3989 9.36 18.1509 7.616 15.5909 7.616C13.2069 7.616 11.6709 9.2 11.6709 11.92C11.6709 14.48 13.1749 16.224 15.6549 16.224C17.6869 16.224 18.8549 15.008 19.2709 13.488H17.9909C17.8469 14.048 17.2389 15.104 15.6069 15.104ZM15.5909 8.736C17.1269 8.736 18.1189 9.824 18.1189 11.136H12.9509C12.9509 9.824 14.0549 8.736 15.5909 8.736ZM27.1142 7.84V8.848H27.0822C26.6022 8.224 25.8342 7.616 24.4902 7.616C22.4742 7.616 20.8422 8.912 20.8422 11.6C20.8422 14.288 22.4742 15.584 24.4902 15.584C25.8342 15.584 26.6022 15.008 27.0822 14.304H27.1142V15.536C27.1142 17.056 26.2342 17.712 24.7142 17.712C23.1942 17.712 22.5222 17.088 22.3622 16.256H21.0822C21.2102 17.648 22.5382 18.832 24.7782 18.832C27.0182 18.832 28.3942 17.728 28.3942 15.552V7.84H27.1142ZM24.6502 14.464C22.9702 14.464 22.1222 13.2 22.1222 11.6C22.1222 10 22.9702 8.736 24.6502 8.736C26.1702 8.736 27.1142 9.68 27.1142 11.6C27.1142 13.52 26.1702 14.464 24.6502 14.464ZM31.5899 6.256C31.9579 6.256 32.3899 5.984 32.3899 5.488C32.3899 4.992 31.9579 4.72 31.5899 4.72C31.2379 4.72 30.7899 4.992 30.7899 5.488C30.7899 5.984 31.2379 6.256 31.5899 6.256ZM30.9499 7.84V16H32.2299V7.84H30.9499ZM38.1013 11.152C36.9653 10.88 35.8613 10.8 35.8613 9.84C35.8613 9.2 36.4853 8.736 37.6373 8.736C39.1733 8.736 39.4773 9.552 39.6053 10.176H40.8853C40.7573 8.768 39.6693 7.616 37.6373 7.616C35.7173 7.616 34.5813 8.656 34.5813 9.936C34.5813 11.856 36.4373 12 37.6853 12.304C38.8533 12.592 39.9253 12.656 39.9253 13.84C39.9253 14.384 39.3813 15.104 37.9893 15.104C35.9413 15.104 35.6213 14.192 35.5413 13.28H34.2613C34.3413 15.04 35.4933 16.224 37.9893 16.224C39.8453 16.224 41.2053 15.248 41.2053 13.76C41.2053 11.744 39.5573 11.504 38.1013 11.152ZM46.4813 8.96V7.84H44.8813V5.12H43.6013V7.84H42.4013V8.96H43.6013V14C43.6013 15.664 44.4333 16.096 45.5213 16.096C45.8573 16.096 46.1933 16.064 46.4813 16V14.88C45.3933 14.96 44.8813 14.8 44.8813 13.872V8.96H46.4813ZM52.0279 7.616C50.8599 7.616 50.2039 8.384 49.7719 9.456H49.7399V7.84H48.4599V16H49.7399V11.648C49.7399 9.904 50.9719 8.656 52.7479 8.944H52.7799V7.664C52.5559 7.632 52.3319 7.616 52.0279 7.616ZM59.2638 9.92C59.2638 10.736 58.6398 10.912 57.2638 11.168C55.1518 11.568 53.7758 12.048 53.7758 13.904C53.7758 15.28 54.8158 16.224 56.4638 16.224C57.8078 16.224 58.7198 15.744 59.2318 14.976H59.2638C59.4878 15.872 59.9518 16.08 60.7198 16.08C60.9598 16.08 61.1358 16.064 61.4718 15.952V15.056C60.6558 15.152 60.5438 14.8 60.5438 14.16V10.192C60.5438 8.224 59.1518 7.616 57.5998 7.616C55.2318 7.616 54.2558 8.8 54.1758 10.368H55.4558C55.5358 9.184 56.0478 8.736 57.5998 8.736C58.9118 8.736 59.2638 9.28 59.2638 9.92ZM56.5918 15.104C55.5358 15.104 55.0558 14.64 55.0558 13.84C55.0558 12.864 55.7918 12.464 57.3758 12.128C58.2398 11.952 59.0238 11.728 59.2638 11.488V12.848C59.2638 14.416 58.1118 15.104 56.5918 15.104ZM66.4638 8.96V7.84H64.8638V5.12H63.5838V7.84H62.3838V8.96H63.5838V14C63.5838 15.664 64.4158 16.096 65.5038 16.096C65.8398 16.096 66.1758 16.064 66.4638 16V14.88C65.3758 14.96 64.8638 14.8 64.8638 13.872V8.96H66.4638ZM69.2424 6.256C69.6104 6.256 70.0424 5.984 70.0424 5.488C70.0424 4.992 69.6104 4.72 69.2424 4.72C68.8904 4.72 68.4424 4.992 68.4424 5.488C68.4424 5.984 68.8904 6.256 69.2424 6.256ZM68.6024 7.84V16H69.8824V7.84H68.6024ZM75.9778 16.224C73.4818 16.224 71.9778 14.464 71.9778 11.92C71.9778 9.376 73.4818 7.616 75.9778 7.616C78.4578 7.616 79.9618 9.376 79.9618 11.92C79.9618 14.464 78.4578 16.224 75.9778 16.224ZM75.9778 15.104C77.8018 15.104 78.6818 13.664 78.6818 11.92C78.6818 10.176 77.8018 8.736 75.9778 8.736C74.1378 8.736 73.2578 10.176 73.2578 11.92C73.2578 13.664 74.1378 15.104 75.9778 15.104ZM85.8943 7.616C84.5023 7.616 83.6383 8.24 83.2063 8.816H83.1743V7.84H81.8943V16H83.1743V10.912C83.1743 9.648 84.1343 8.736 85.5743 8.736C86.8543 8.736 87.3503 9.568 87.3503 10.624V16H88.6303V10.304C88.6303 8.432 87.3823 7.616 85.8943 7.616ZM94.2994 11.152C93.1634 10.88 92.0594 10.8 92.0594 9.84C92.0594 9.2 92.6834 8.736 93.8354 8.736C95.3714 8.736 95.6754 9.552 95.8034 10.176H97.0834C96.9554 8.768 95.8674 7.616 93.8354 7.616C91.9154 7.616 90.7794 8.656 90.7794 9.936C90.7794 11.856 92.6354 12 93.8834 12.304C95.0514 12.592 96.1234 12.656 96.1234 13.84C96.1234 14.384 95.5794 15.104 94.1874 15.104C92.1394 15.104 91.8194 14.192 91.7394 13.28H90.4594C90.5394 15.04 91.6914 16.224 94.1874 16.224C96.0434 16.224 97.4034 15.248 97.4034 13.76C97.4034 11.744 95.7554 11.504 94.2994 11.152ZM111.607 8.336H113.047C112.775 6.16 110.983 4.336 108.183 4.336C105.047 4.336 102.887 6.832 102.887 10.272C102.887 13.728 105.047 16.224 108.183 16.224C110.999 16.224 112.791 14.4 113.047 11.872H111.607C111.511 13.312 110.583 14.944 108.183 14.944C105.463 14.944 104.327 12.592 104.327 10.272C104.327 7.968 105.463 5.616 108.183 5.616C110.567 5.616 111.399 7.248 111.607 8.336ZM115.159 4.56V16H116.439V4.56H115.159ZM122.427 16.224C119.931 16.224 118.427 14.464 118.427 11.92C118.427 9.376 119.931 7.616 122.427 7.616C124.907 7.616 126.411 9.376 126.411 11.92C126.411 14.464 124.907 16.224 122.427 16.224ZM122.427 15.104C124.251 15.104 125.131 13.664 125.131 11.92C125.131 10.176 124.251 8.736 122.427 8.736C120.587 8.736 119.707 10.176 119.707 11.92C119.707 13.664 120.587 15.104 122.427 15.104ZM131.656 11.152C130.52 10.88 129.416 10.8 129.416 9.84C129.416 9.2 130.04 8.736 131.192 8.736C132.728 8.736 133.032 9.552 133.16 10.176H134.44C134.312 8.768 133.224 7.616 131.192 7.616C129.272 7.616 128.136 8.656 128.136 9.936C128.136 11.856 129.992 12 131.24 12.304C132.408 12.592 133.48 12.656 133.48 13.84C133.48 14.384 132.936 15.104 131.544 15.104C129.496 15.104 129.176 14.192 129.096 13.28H127.816C127.896 15.04 129.048 16.224 131.544 16.224C133.4 16.224 134.76 15.248 134.76 13.76C134.76 11.744 133.112 11.504 131.656 11.152ZM137.44 6.256C137.808 6.256 138.24 5.984 138.24 5.488C138.24 4.992 137.808 4.72 137.44 4.72C137.088 4.72 136.64 4.992 136.64 5.488C136.64 5.984 137.088 6.256 137.44 6.256ZM136.8 7.84V16H138.08V7.84H136.8ZM144.639 7.616C143.247 7.616 142.383 8.24 141.951 8.816H141.919V7.84H140.639V16H141.919V10.912C141.919 9.648 142.879 8.736 144.319 8.736C145.599 8.736 146.095 9.568 146.095 10.624V16H147.375V10.304C147.375 8.432 146.127 7.616 144.639 7.616ZM155.54 7.84V8.848H155.508C155.028 8.224 154.26 7.616 152.916 7.616C150.9 7.616 149.268 8.912 149.268 11.6C149.268 14.288 150.9 15.584 152.916 15.584C154.26 15.584 155.028 15.008 155.508 14.304H155.54V15.536C155.54 17.056 154.66 17.712 153.14 17.712C151.62 17.712 150.948 17.088 150.788 16.256H149.508C149.636 17.648 150.964 18.832 153.204 18.832C155.444 18.832 156.82 17.728 156.82 15.552V7.84H155.54ZM153.076 14.464C151.396 14.464 150.548 13.2 150.548 11.6C150.548 10 151.396 8.736 153.076 8.736C154.596 8.736 155.54 9.68 155.54 11.6C155.54 13.52 154.596 14.464 153.076 14.464ZM168.419 16.224C171.779 16.224 174.019 13.712 174.019 10.272C174.019 6.832 171.779 4.336 168.419 4.336C165.059 4.336 162.819 6.832 162.819 10.272C162.819 13.712 165.059 16.224 168.419 16.224ZM168.419 14.944C165.539 14.944 164.259 12.736 164.259 10.272C164.259 7.808 165.539 5.616 168.419 5.616C171.299 5.616 172.579 7.808 172.579 10.272C172.579 12.736 171.299 14.944 168.419 14.944ZM180.184 7.616C178.792 7.616 177.928 8.24 177.496 8.816H177.464V7.84H176.184V16H177.464V10.912C177.464 9.648 178.424 8.736 179.864 8.736C181.144 8.736 181.64 9.568 181.64 10.624V16H182.92V10.304C182.92 8.432 181.672 7.616 180.184 7.616Z" fill="white"/>
<path d="M5.649 40.728C5.649 37.688 6.897 35.576 10.193 35.576C13.041 35.576 13.905 37.4 13.905 39.224C13.905 42.36 11.313 43.416 7.249 46.104C3.857 48.248 1.521 51.096 1.521 55H17.393V51.864H6.353V51.8C8.177 47.288 17.617 46.104 17.617 39.064C17.617 34.84 14.385 32.408 10.289 32.408C4.625 32.408 2.065 35.96 2.065 40.728H5.649ZM23.6155 43.256V43.192C23.6795 39.16 24.6075 35.448 28.6075 35.448C30.9435 35.448 32.0955 36.792 32.3195 38.488H36.0315C35.5835 35.16 32.7995 32.408 28.6395 32.408C23.0715 32.408 19.9035 36.472 19.9035 44.024C19.9035 50.648 22.1755 55.48 28.6395 55.48C33.5995 55.48 36.6395 52.088 36.6395 47.736C36.6395 43.384 33.6635 40.376 29.3115 40.376C26.7515 40.376 24.7035 41.464 23.6155 43.256ZM28.5115 52.44C25.5675 52.44 23.8075 50.616 23.8075 47.992C23.8075 45.272 25.7595 43.416 28.7035 43.416C31.2315 43.416 33.0235 45.112 33.0235 47.928C33.0235 50.616 31.3595 52.44 28.5115 52.44ZM45.7333 55H49.4453V37.656H49.5093L55.5573 55H58.5973L64.6453 37.656H64.7093V55H68.4213V32.12H63.4933L57.1253 49.72H57.0613L50.6613 32.12H45.7333V55ZM85.5453 49.592L87.4013 55H91.2733L82.8893 32.12H78.8893L70.4733 55H74.3453L76.2013 49.592H85.5453ZM77.2573 46.424L80.8733 35.608H80.9373L84.5213 46.424H77.2573ZM89.0678 32.12L97.1958 45.912V55H101.004V45.912L109.132 32.12H105.068L99.1158 42.744H99.0518L93.1318 32.12H89.0678ZM120.462 40.728C120.462 37.688 121.71 35.576 125.006 35.576C127.854 35.576 128.718 37.4 128.718 39.224C128.718 42.36 126.126 43.416 122.062 46.104C118.67 48.248 116.334 51.096 116.334 55H132.206V51.864H121.166V51.8C122.99 47.288 132.43 46.104 132.43 39.064C132.43 34.84 129.198 32.408 125.102 32.408C119.438 32.408 116.878 35.96 116.878 40.728H120.462ZM143.675 55.48C149.915 55.48 152.571 50.232 152.571 43.96C152.571 37.688 149.915 32.408 143.675 32.408C137.435 32.408 134.779 37.688 134.779 43.96C134.779 50.232 137.435 55.48 143.675 55.48ZM143.675 52.312C139.771 52.312 138.459 48.568 138.459 43.96C138.459 39.352 139.771 35.576 143.675 35.576C147.579 35.576 148.859 39.352 148.859 43.96C148.859 48.568 147.579 52.312 143.675 52.312ZM158.555 40.728C158.555 37.688 159.803 35.576 163.099 35.576C165.947 35.576 166.811 37.4 166.811 39.224C166.811 42.36 164.219 43.416 160.155 46.104C156.763 48.248 154.427 51.096 154.427 55H170.299V51.864H159.259V51.8C161.083 47.288 170.523 46.104 170.523 39.064C170.523 34.84 167.291 32.408 163.195 32.408C157.531 32.408 154.971 35.96 154.971 40.728H158.555ZM178.056 32.888C177.832 35.608 176.68 37.592 172.68 37.592V40.248C174.536 40.248 176.008 40.248 177.32 38.968V55H181.032V32.888H178.056Z" fill="#84D321"/>
<path d="M55.9732 79.24C59.0932 79.24 60.4212 76.616 60.4212 73.48C60.4212 70.344 59.0932 67.704 55.9732 67.704C52.8532 67.704 51.5252 70.344 51.5252 73.48C51.5252 76.616 52.8532 79.24 55.9732 79.24ZM55.9732 77.656C54.0212 77.656 53.3652 75.784 53.3652 73.48C53.3652 71.176 54.0212 69.288 55.9732 69.288C57.9252 69.288 58.5652 71.176 58.5652 73.48C58.5652 75.784 57.9252 77.656 55.9732 77.656ZM61.9899 75.88C61.9899 78.12 63.8459 79.24 66.2619 79.24C68.6779 79.24 70.5499 78.12 70.5499 75.88C70.5499 74.36 69.5259 73.576 68.4859 73.112V73.08C69.2539 72.664 70.0059 71.976 70.0059 70.728C70.0059 68.824 68.4219 67.704 66.2619 67.704C64.1019 67.704 62.5179 68.824 62.5179 70.728C62.5179 71.976 63.2539 72.664 64.0379 73.08V73.112C62.9819 73.576 61.9899 74.36 61.9899 75.88ZM66.2619 72.424C65.0299 72.424 64.2619 71.88 64.2619 70.808C64.2619 69.752 65.0299 69.176 66.2619 69.176C67.4939 69.176 68.2619 69.752 68.2619 70.808C68.2619 71.88 67.4939 72.424 66.2619 72.424ZM66.2619 77.72C64.7739 77.72 63.8299 76.984 63.8299 75.768C63.8299 74.568 64.7739 73.832 66.2619 73.832C67.7659 73.832 68.6939 74.568 68.6939 75.768C68.6939 76.984 67.7659 77.72 66.2619 77.72ZM73.3627 74.216C73.9387 74.216 74.3867 73.816 74.3867 73.176C74.3867 72.552 73.9387 72.136 73.3627 72.136C72.7707 72.136 72.3227 72.552 72.3227 73.176C72.3227 73.816 72.7707 74.216 73.3627 74.216ZM73.3627 79.128C73.9387 79.128 74.3867 78.728 74.3867 78.088C74.3867 77.464 73.9387 77.048 73.3627 77.048C72.7707 77.048 72.3227 77.464 72.3227 78.088C72.3227 78.728 72.7707 79.128 73.3627 79.128ZM80.8307 79.24C83.9507 79.24 85.2787 76.616 85.2787 73.48C85.2787 70.344 83.9507 67.704 80.8307 67.704C77.7107 67.704 76.3827 70.344 76.3827 73.48C76.3827 76.616 77.7107 79.24 80.8307 79.24ZM80.8307 77.656C78.8787 77.656 78.2227 75.784 78.2227 73.48C78.2227 71.176 78.8787 69.288 80.8307 69.288C82.7827 69.288 83.4227 71.176 83.4227 73.48C83.4227 75.784 82.7827 77.656 80.8307 77.656ZM91.5644 79.24C94.6844 79.24 96.0124 76.616 96.0124 73.48C96.0124 70.344 94.6844 67.704 91.5644 67.704C88.4444 67.704 87.1164 70.344 87.1164 73.48C87.1164 76.616 88.4444 79.24 91.5644 79.24ZM91.5644 77.656C89.6124 77.656 88.9564 75.784 88.9564 73.48C88.9564 71.176 89.6124 69.288 91.5644 69.288C93.5164 69.288 94.1564 71.176 94.1564 73.48C94.1564 75.784 93.5164 77.656 91.5644 77.656ZM102.282 70.6C101.002 70.6 100.202 71.208 99.7702 71.784H99.7382V70.824H98.0422V81.784H99.7382V78.024H99.7702C100.202 78.632 101.002 79.24 102.282 79.24C104.362 79.24 105.914 77.608 105.914 74.92C105.914 72.232 104.362 70.6 102.282 70.6ZM101.962 77.864C100.602 77.864 99.7542 76.728 99.7542 74.92C99.7542 73.096 100.602 71.976 101.962 71.976C103.434 71.976 104.218 73.32 104.218 74.92C104.218 76.52 103.434 77.864 101.962 77.864ZM116.8 70.6C115.536 70.6 114.736 71.224 114.128 72.008H114.096C113.76 71.128 113.072 70.6 111.92 70.6C110.688 70.6 109.92 71.24 109.488 71.88H109.456V70.824H107.776V79H109.456V74.024C109.456 72.808 110.176 72.024 111.296 72.024C112.464 72.024 112.688 72.728 112.688 73.832V79H114.384V74.024C114.384 72.808 115.088 72.024 116.224 72.024C117.376 72.024 117.6 72.728 117.6 73.832V79H119.296V73.352C119.296 71.592 118.448 70.6 116.8 70.6ZM125.389 67.56V79H127.293V67.56H125.389ZM134.286 72.184C132.686 71.784 131.614 71.56 131.614 70.312C131.614 69.464 132.43 68.952 133.79 68.952C135.374 68.952 136.206 69.656 136.382 70.984H138.286C138.126 68.632 136.302 67.32 133.79 67.32C131.294 67.32 129.726 68.456 129.726 70.488C129.726 72.664 131.662 73.352 133.454 73.8C135.71 74.36 136.686 74.616 136.686 75.976C136.686 76.856 136.03 77.608 134.334 77.608C132.286 77.608 131.294 76.648 131.198 75.192H129.294C129.406 77.784 131.534 79.24 134.334 79.24C137.214 79.24 138.59 77.72 138.59 75.896C138.59 73.336 136.734 72.808 134.286 72.184ZM143.207 79H145.111V69.176H148.759V67.56H139.543V69.176H143.207V79Z" fill="white"/>
</svg>
