<svg width="200" height="86" viewBox="0 0 200 86" fill="none" xmlns="http://www.w3.org/2000/svg">
<path d="M1.13841 16.4409H2.57841V11.8169H5.85841C8.75441 11.8169 7.66641 15.9609 8.16241 16.4409H9.71441V16.3449C9.12241 16.1529 10.0504 11.6569 7.50641 11.1609V11.1289C8.77041 10.8089 9.55441 9.89692 9.55441 8.24892C9.55441 6.21692 8.03441 5.00092 5.77841 5.00092H1.13841V16.4409ZM2.57841 6.28092H5.44241C6.62641 6.28092 8.11441 6.42492 8.11441 8.40892C8.11441 10.3929 6.62641 10.5369 5.44241 10.5369H2.57841V6.28092ZM15.1053 15.5449C13.3293 15.5449 12.4493 14.1689 12.4493 12.6969H18.8973C18.8973 9.80092 17.6493 8.05692 15.0893 8.05692C12.7053 8.05692 11.1693 9.64092 11.1693 12.3609C11.1693 14.9209 12.6733 16.6649 15.1533 16.6649C17.1853 16.6649 18.3533 15.4489 18.7693 13.9289H17.4893C17.3453 14.4889 16.7373 15.5449 15.1053 15.5449ZM15.0893 9.17692C16.6253 9.17692 17.6173 10.2649 17.6173 11.5769H12.4493C12.4493 10.2649 13.5533 9.17692 15.0893 9.17692ZM26.6125 8.28092V9.28892H26.5805C26.1005 8.66492 25.3325 8.05692 23.9885 8.05692C21.9725 8.05692 20.3405 9.35292 20.3405 12.0409C20.3405 14.7289 21.9725 16.0249 23.9885 16.0249C25.3325 16.0249 26.1005 15.4489 26.5805 14.7449H26.6125V15.9769C26.6125 17.4969 25.7325 18.1529 24.2125 18.1529C22.6925 18.1529 22.0205 17.5289 21.8605 16.6969H20.5805C20.7085 18.0889 22.0365 19.2729 24.2765 19.2729C26.5165 19.2729 27.8925 18.1689 27.8925 15.9929V8.28092H26.6125ZM24.1485 14.9049C22.4685 14.9049 21.6205 13.6409 21.6205 12.0409C21.6205 10.4409 22.4685 9.17692 24.1485 9.17692C25.6685 9.17692 26.6125 10.1209 26.6125 12.0409C26.6125 13.9609 25.6685 14.9049 24.1485 14.9049ZM31.0883 6.69692C31.4563 6.69692 31.8883 6.42492 31.8883 5.92892C31.8883 5.43292 31.4563 5.16092 31.0883 5.16092C30.7363 5.16092 30.2883 5.43292 30.2883 5.92892C30.2883 6.42492 30.7363 6.69692 31.0883 6.69692ZM30.4483 8.28092V16.4409H31.7283V8.28092H30.4483ZM37.5997 11.5929C36.4637 11.3209 35.3597 11.2409 35.3597 10.2809C35.3597 9.64092 35.9837 9.17692 37.1357 9.17692C38.6717 9.17692 38.9757 9.99292 39.1037 10.6169H40.3837C40.2557 9.20892 39.1677 8.05692 37.1357 8.05692C35.2157 8.05692 34.0797 9.09692 34.0797 10.3769C34.0797 12.2969 35.9357 12.4409 37.1837 12.7449C38.3517 13.0329 39.4237 13.0969 39.4237 14.2809C39.4237 14.8249 38.8797 15.5449 37.4877 15.5449C35.4397 15.5449 35.1197 14.6329 35.0397 13.7209H33.7597C33.8397 15.4809 34.9917 16.6649 37.4877 16.6649C39.3437 16.6649 40.7037 15.6889 40.7037 14.2009C40.7037 12.1849 39.0557 11.9449 37.5997 11.5929ZM45.9797 9.40092V8.28092H44.3797V5.56092H43.0997V8.28092H41.8997V9.40092H43.0997V14.4409C43.0997 16.1049 43.9317 16.5369 45.0197 16.5369C45.3557 16.5369 45.6917 16.5049 45.9797 16.4409V15.3209C44.8917 15.4009 44.3797 15.2409 44.3797 14.3129V9.40092H45.9797ZM51.5263 8.05692C50.3583 8.05692 49.7023 8.82492 49.2703 9.89692H49.2383V8.28092H47.9583V16.4409H49.2383V12.0889C49.2383 10.3449 50.4703 9.09692 52.2463 9.38492H52.2783V8.10492C52.0543 8.07292 51.8303 8.05692 51.5263 8.05692ZM58.7622 10.3609C58.7622 11.1769 58.1382 11.3529 56.7622 11.6089C54.6502 12.0089 53.2742 12.4889 53.2742 14.3449C53.2742 15.7209 54.3142 16.6649 55.9622 16.6649C57.3062 16.6649 58.2182 16.1849 58.7302 15.4169H58.7622C58.9862 16.3129 59.4502 16.5209 60.2182 16.5209C60.4582 16.5209 60.6342 16.5049 60.9702 16.3929V15.4969C60.1542 15.5929 60.0422 15.2409 60.0422 14.6009V10.6329C60.0422 8.66492 58.6502 8.05692 57.0982 8.05692C54.7302 8.05692 53.7542 9.24092 53.6742 10.8089H54.9542C55.0342 9.62492 55.5462 9.17692 57.0982 9.17692C58.4102 9.17692 58.7622 9.72092 58.7622 10.3609ZM56.0902 15.5449C55.0342 15.5449 54.5542 15.0809 54.5542 14.2809C54.5542 13.3049 55.2902 12.9049 56.8742 12.5689C57.7382 12.3929 58.5222 12.1689 58.7622 11.9289V13.2889C58.7622 14.8569 57.6102 15.5449 56.0902 15.5449ZM65.9622 9.40092V8.28092H64.3622V5.56092H63.0822V8.28092H61.8822V9.40092H63.0822V14.4409C63.0822 16.1049 63.9142 16.5369 65.0022 16.5369C65.3382 16.5369 65.6742 16.5049 65.9622 16.4409V15.3209C64.8742 15.4009 64.3622 15.2409 64.3622 14.3129V9.40092H65.9622ZM68.7408 6.69692C69.1088 6.69692 69.5408 6.42492 69.5408 5.92892C69.5408 5.43292 69.1088 5.16092 68.7408 5.16092C68.3888 5.16092 67.9408 5.43292 67.9408 5.92892C67.9408 6.42492 68.3888 6.69692 68.7408 6.69692ZM68.1008 8.28092V16.4409H69.3808V8.28092H68.1008ZM75.4762 16.6649C72.9802 16.6649 71.4762 14.9049 71.4762 12.3609C71.4762 9.81692 72.9802 8.05692 75.4762 8.05692C77.9562 8.05692 79.4602 9.81692 79.4602 12.3609C79.4602 14.9049 77.9562 16.6649 75.4762 16.6649ZM75.4762 15.5449C77.3002 15.5449 78.1802 14.1049 78.1802 12.3609C78.1802 10.6169 77.3002 9.17692 75.4762 9.17692C73.6362 9.17692 72.7562 10.6169 72.7562 12.3609C72.7562 14.1049 73.6362 15.5449 75.4762 15.5449ZM85.3927 8.05692C84.0007 8.05692 83.1367 8.68092 82.7047 9.25692H82.6727V8.28092H81.3927V16.4409H82.6727V11.3529C82.6727 10.0889 83.6327 9.17692 85.0727 9.17692C86.3527 9.17692 86.8487 10.0089 86.8487 11.0649V16.4409H88.1287V10.7449C88.1287 8.87292 86.8807 8.05692 85.3927 8.05692ZM93.7978 11.5929C92.6618 11.3209 91.5578 11.2409 91.5578 10.2809C91.5578 9.64092 92.1818 9.17692 93.3338 9.17692C94.8698 9.17692 95.1738 9.99292 95.3018 10.6169H96.5818C96.4538 9.20892 95.3658 8.05692 93.3338 8.05692C91.4138 8.05692 90.2778 9.09692 90.2778 10.3769C90.2778 12.2969 92.1338 12.4409 93.3818 12.7449C94.5498 13.0329 95.6218 13.0969 95.6218 14.2809C95.6218 14.8249 95.0778 15.5449 93.6858 15.5449C91.6378 15.5449 91.3178 14.6329 91.2378 13.7209H89.9578C90.0378 15.4809 91.1898 16.6649 93.6858 16.6649C95.5418 16.6649 96.9018 15.6889 96.9018 14.2009C96.9018 12.1849 95.2538 11.9449 93.7978 11.5929ZM111.105 8.77692H112.545C112.273 6.60092 110.481 4.77692 107.681 4.77692C104.545 4.77692 102.385 7.27292 102.385 10.7129C102.385 14.1689 104.545 16.6649 107.681 16.6649C110.497 16.6649 112.289 14.8409 112.545 12.3129H111.105C111.009 13.7529 110.081 15.3849 107.681 15.3849C104.961 15.3849 103.825 13.0329 103.825 10.7129C103.825 8.40892 104.961 6.05692 107.681 6.05692C110.065 6.05692 110.897 7.68892 111.105 8.77692ZM114.657 5.00092V16.4409H115.937V5.00092H114.657ZM121.926 16.6649C119.43 16.6649 117.926 14.9049 117.926 12.3609C117.926 9.81692 119.43 8.05692 121.926 8.05692C124.406 8.05692 125.91 9.81692 125.91 12.3609C125.91 14.9049 124.406 16.6649 121.926 16.6649ZM121.926 15.5449C123.75 15.5449 124.63 14.1049 124.63 12.3609C124.63 10.6169 123.75 9.17692 121.926 9.17692C120.086 9.17692 119.206 10.6169 119.206 12.3609C119.206 14.1049 120.086 15.5449 121.926 15.5449ZM131.154 11.5929C130.018 11.3209 128.914 11.2409 128.914 10.2809C128.914 9.64092 129.538 9.17692 130.69 9.17692C132.226 9.17692 132.53 9.99292 132.658 10.6169H133.938C133.81 9.20892 132.722 8.05692 130.69 8.05692C128.77 8.05692 127.634 9.09692 127.634 10.3769C127.634 12.2969 129.49 12.4409 130.738 12.7449C131.906 13.0329 132.978 13.0969 132.978 14.2809C132.978 14.8249 132.434 15.5449 131.042 15.5449C128.994 15.5449 128.674 14.6329 128.594 13.7209H127.314C127.394 15.4809 128.546 16.6649 131.042 16.6649C132.898 16.6649 134.258 15.6889 134.258 14.2009C134.258 12.1849 132.61 11.9449 131.154 11.5929ZM136.938 6.69692C137.306 6.69692 137.738 6.42492 137.738 5.92892C137.738 5.43292 137.306 5.16092 136.938 5.16092C136.586 5.16092 136.138 5.43292 136.138 5.92892C136.138 6.42492 136.586 6.69692 136.938 6.69692ZM136.298 8.28092V16.4409H137.578V8.28092H136.298ZM144.138 8.05692C142.746 8.05692 141.882 8.68092 141.45 9.25692H141.418V8.28092H140.138V16.4409H141.418V11.3529C141.418 10.0889 142.378 9.17692 143.818 9.17692C145.098 9.17692 145.594 10.0089 145.594 11.0649V16.4409H146.874V10.7449C146.874 8.87292 145.626 8.05692 144.138 8.05692ZM155.039 8.28092V9.28892H155.007C154.527 8.66492 153.759 8.05692 152.415 8.05692C150.399 8.05692 148.767 9.35292 148.767 12.0409C148.767 14.7289 150.399 16.0249 152.415 16.0249C153.759 16.0249 154.527 15.4489 155.007 14.7449H155.039V15.9769C155.039 17.4969 154.159 18.1529 152.639 18.1529C151.119 18.1529 150.447 17.5289 150.287 16.6969H149.007C149.135 18.0889 150.463 19.2729 152.703 19.2729C154.943 19.2729 156.319 18.1689 156.319 15.9929V8.28092H155.039ZM152.575 14.9049C150.895 14.9049 150.047 13.6409 150.047 12.0409C150.047 10.4409 150.895 9.17692 152.575 9.17692C154.095 9.17692 155.039 10.1209 155.039 12.0409C155.039 13.9609 154.095 14.9049 152.575 14.9049ZM167.918 16.6649C171.278 16.6649 173.518 14.1529 173.518 10.7129C173.518 7.27292 171.278 4.77692 167.918 4.77692C164.558 4.77692 162.318 7.27292 162.318 10.7129C162.318 14.1529 164.558 16.6649 167.918 16.6649ZM167.918 15.3849C165.038 15.3849 163.758 13.1769 163.758 10.7129C163.758 8.24892 165.038 6.05692 167.918 6.05692C170.798 6.05692 172.078 8.24892 172.078 10.7129C172.078 13.1769 170.798 15.3849 167.918 15.3849ZM179.682 8.05692C178.29 8.05692 177.426 8.68092 176.994 9.25692H176.962V8.28092H175.682V16.4409H176.962V11.3529C176.962 10.0889 177.922 9.17692 179.362 9.17692C180.642 9.17692 181.138 10.0089 181.138 11.0649V16.4409H182.418V10.7449C182.418 8.87292 181.17 8.05692 179.682 8.05692Z" fill="white"/>
<path d="M5.09041 41.0644C5.09041 38.0244 6.33841 35.9124 9.63441 35.9124C12.4824 35.9124 13.3464 37.7364 13.3464 39.5604C13.3464 42.6964 10.7544 43.7524 6.69041 46.4404C3.29841 48.5844 0.962406 51.4324 0.962406 55.3364H16.8344V52.2004H5.79441V52.1364C7.61841 47.6244 17.0584 46.4404 17.0584 39.4004C17.0584 35.1764 13.8264 32.7444 9.73041 32.7444C4.06641 32.7444 1.50641 36.2964 1.50641 41.0644H5.09041ZM23.0569 43.5924V43.5284C23.1209 39.4964 24.0489 35.7844 28.0489 35.7844C30.3849 35.7844 31.5369 37.1284 31.7609 38.8244H35.4729C35.0249 35.4964 32.2409 32.7444 28.0809 32.7444C22.5129 32.7444 19.3449 36.8084 19.3449 44.3604C19.3449 50.9844 21.6169 55.8164 28.0809 55.8164C33.0409 55.8164 36.0809 52.4244 36.0809 48.0724C36.0809 43.7204 33.1049 40.7124 28.7529 40.7124C26.1929 40.7124 24.1449 41.8004 23.0569 43.5924ZM27.9529 52.7764C25.0089 52.7764 23.2489 50.9524 23.2489 48.3284C23.2489 45.6084 25.2009 43.7524 28.1449 43.7524C30.6729 43.7524 32.4649 45.4484 32.4649 48.2644C32.4649 50.9524 30.8009 52.7764 27.9529 52.7764ZM45.1747 55.3364H48.8867V37.9924H48.9507L54.9987 55.3364H58.0387L64.0867 37.9924H64.1507V55.3364H67.8627V32.4564H62.9347L56.5667 50.0564H56.5027L50.1027 32.4564H45.1747V55.3364ZM84.9867 49.9284L86.8427 55.3364H90.7147L82.3307 32.4564H78.3307L69.9147 55.3364H73.7867L75.6427 49.9284H84.9867ZM76.6987 46.7604L80.3147 35.9444H80.3787L83.9627 46.7604H76.6987ZM88.5092 32.4564L96.6372 46.2484V55.3364H100.445V46.2484L108.573 32.4564H104.509L98.5572 43.0804H98.4932L92.5732 32.4564H88.5092ZM119.903 41.0644C119.903 38.0244 121.151 35.9124 124.447 35.9124C127.295 35.9124 128.159 37.7364 128.159 39.5604C128.159 42.6964 125.567 43.7524 121.503 46.4404C118.111 48.5844 115.775 51.4324 115.775 55.3364H131.647V52.2004H120.607V52.1364C122.431 47.6244 131.871 46.4404 131.871 39.4004C131.871 35.1764 128.639 32.7444 124.543 32.7444C118.879 32.7444 116.319 36.2964 116.319 41.0644H119.903ZM143.116 55.8164C149.356 55.8164 152.012 50.5684 152.012 44.2964C152.012 38.0244 149.356 32.7444 143.116 32.7444C136.876 32.7444 134.22 38.0244 134.22 44.2964C134.22 50.5684 136.876 55.8164 143.116 55.8164ZM143.116 52.6484C139.212 52.6484 137.9 48.9044 137.9 44.2964C137.9 39.6884 139.212 35.9124 143.116 35.9124C147.02 35.9124 148.3 39.6884 148.3 44.2964C148.3 48.9044 147.02 52.6484 143.116 52.6484ZM157.997 41.0644C157.997 38.0244 159.245 35.9124 162.541 35.9124C165.389 35.9124 166.253 37.7364 166.253 39.5604C166.253 42.6964 163.661 43.7524 159.597 46.4404C156.205 48.5844 153.869 51.4324 153.869 55.3364H169.741V52.2004H158.701V52.1364C160.525 47.6244 169.965 46.4404 169.965 39.4004C169.965 35.1764 166.733 32.7444 162.637 32.7444C156.973 32.7444 154.413 36.2964 154.413 41.0644H157.997ZM177.497 33.2244C177.273 35.9444 176.121 37.9284 172.121 37.9284V40.5844C173.977 40.5844 175.449 40.5844 176.761 39.3044V55.3364H180.473V33.2244H177.497Z" fill="#84D321"/>
<path d="M5.12241 79.5764C8.24241 79.5764 9.57041 76.9524 9.57041 73.8164C9.57041 70.6804 8.24241 68.0404 5.12241 68.0404C2.00241 68.0404 0.674406 70.6804 0.674406 73.8164C0.674406 76.9524 2.00241 79.5764 5.12241 79.5764ZM5.12241 77.9924C3.17041 77.9924 2.51441 76.1204 2.51441 73.8164C2.51441 71.5124 3.17041 69.6244 5.12241 69.6244C7.07441 69.6244 7.71441 71.5124 7.71441 73.8164C7.71441 76.1204 7.07441 77.9924 5.12241 77.9924ZM11.1392 76.2164C11.1392 78.4564 12.9952 79.5764 15.4112 79.5764C17.8272 79.5764 19.6992 78.4564 19.6992 76.2164C19.6992 74.6964 18.6752 73.9124 17.6352 73.4484V73.4164C18.4032 73.0004 19.1552 72.3124 19.1552 71.0644C19.1552 69.1604 17.5712 68.0404 15.4112 68.0404C13.2512 68.0404 11.6672 69.1604 11.6672 71.0644C11.6672 72.3124 12.4032 73.0004 13.1872 73.4164V73.4484C12.1312 73.9124 11.1392 74.6964 11.1392 76.2164ZM15.4112 72.7604C14.1792 72.7604 13.4112 72.2164 13.4112 71.1444C13.4112 70.0884 14.1792 69.5124 15.4112 69.5124C16.6432 69.5124 17.4112 70.0884 17.4112 71.1444C17.4112 72.2164 16.6432 72.7604 15.4112 72.7604ZM15.4112 78.0564C13.9232 78.0564 12.9792 77.3204 12.9792 76.1044C12.9792 74.9044 13.9232 74.1684 15.4112 74.1684C16.9152 74.1684 17.8432 74.9044 17.8432 76.1044C17.8432 77.3204 16.9152 78.0564 15.4112 78.0564ZM22.5119 74.5524C23.0879 74.5524 23.5359 74.1524 23.5359 73.5124C23.5359 72.8884 23.0879 72.4724 22.5119 72.4724C21.9199 72.4724 21.4719 72.8884 21.4719 73.5124C21.4719 74.1524 21.9199 74.5524 22.5119 74.5524ZM22.5119 79.4644C23.0879 79.4644 23.5359 79.0644 23.5359 78.4244C23.5359 77.8004 23.0879 77.3844 22.5119 77.3844C21.9199 77.3844 21.4719 77.8004 21.4719 78.4244C21.4719 79.0644 21.9199 79.4644 22.5119 79.4644ZM29.9799 79.5764C33.0999 79.5764 34.4279 76.9524 34.4279 73.8164C34.4279 70.6804 33.0999 68.0404 29.9799 68.0404C26.8599 68.0404 25.5319 70.6804 25.5319 73.8164C25.5319 76.9524 26.8599 79.5764 29.9799 79.5764ZM29.9799 77.9924C28.0279 77.9924 27.3719 76.1204 27.3719 73.8164C27.3719 71.5124 28.0279 69.6244 29.9799 69.6244C31.9319 69.6244 32.5719 71.5124 32.5719 73.8164C32.5719 76.1204 31.9319 77.9924 29.9799 77.9924ZM40.7137 79.5764C43.8337 79.5764 45.1617 76.9524 45.1617 73.8164C45.1617 70.6804 43.8337 68.0404 40.7137 68.0404C37.5937 68.0404 36.2657 70.6804 36.2657 73.8164C36.2657 76.9524 37.5937 79.5764 40.7137 79.5764ZM40.7137 77.9924C38.7617 77.9924 38.1057 76.1204 38.1057 73.8164C38.1057 71.5124 38.7617 69.6244 40.7137 69.6244C42.6657 69.6244 43.3057 71.5124 43.3057 73.8164C43.3057 76.1204 42.6657 77.9924 40.7137 77.9924ZM51.4314 70.9364C50.1514 70.9364 49.3514 71.5444 48.9194 72.1204H48.8874V71.1604H47.1914V82.1204H48.8874V78.3604H48.9194C49.3514 78.9684 50.1514 79.5764 51.4314 79.5764C53.5114 79.5764 55.0634 77.9444 55.0634 75.2564C55.0634 72.5684 53.5114 70.9364 51.4314 70.9364ZM51.1114 78.2004C49.7514 78.2004 48.9034 77.0644 48.9034 75.2564C48.9034 73.4324 49.7514 72.3124 51.1114 72.3124C52.5834 72.3124 53.3674 73.6564 53.3674 75.2564C53.3674 76.8564 52.5834 78.2004 51.1114 78.2004ZM65.9492 70.9364C64.6852 70.9364 63.8852 71.5604 63.2772 72.3444H63.2452C62.9092 71.4644 62.2212 70.9364 61.0692 70.9364C59.8372 70.9364 59.0692 71.5764 58.6372 72.2164H58.6052V71.1604H56.9252V79.3364H58.6052V74.3604C58.6052 73.1444 59.3252 72.3604 60.4452 72.3604C61.6132 72.3604 61.8372 73.0644 61.8372 74.1684V79.3364H63.5332V74.3604C63.5332 73.1444 64.2372 72.3604 65.3732 72.3604C66.5252 72.3604 66.7492 73.0644 66.7492 74.1684V79.3364H68.4452V73.6884C68.4452 71.9284 67.5972 70.9364 65.9492 70.9364ZM74.5382 67.8964V79.3364H76.4422V67.8964H74.5382ZM83.4353 72.5204C81.8353 72.1204 80.7633 71.8964 80.7633 70.6484C80.7633 69.8004 81.5793 69.2884 82.9393 69.2884C84.5233 69.2884 85.3553 69.9924 85.5313 71.3204H87.4353C87.2753 68.9684 85.4513 67.6564 82.9393 67.6564C80.4433 67.6564 78.8753 68.7924 78.8753 70.8244C78.8753 73.0004 80.8113 73.6884 82.6033 74.1364C84.8593 74.6964 85.8353 74.9524 85.8353 76.3124C85.8353 77.1924 85.1793 77.9444 83.4833 77.9444C81.4353 77.9444 80.4433 76.9844 80.3473 75.5284H78.4433C78.5553 78.1204 80.6833 79.5764 83.4833 79.5764C86.3633 79.5764 87.7393 78.0564 87.7393 76.2324C87.7393 73.6724 85.8833 73.1444 83.4353 72.5204ZM92.3567 79.3364H94.2607V69.5124H97.9087V67.8964H88.6927V69.5124H92.3567V79.3364Z" fill="white"/>
</svg>
