<svg width="124" height="106" viewBox="0 0 124 106" fill="none" xmlns="http://www.w3.org/2000/svg">
<path d="M3 76.9961H120.634" stroke="white" stroke-width="1.30705"/>
<path d="M72.2682 39.4409H74.0682V27.6809H74.1082L78.4282 39.4409H80.0282L84.3482 27.6809H84.3882V39.4409H86.1882V25.1409H83.7282L79.2482 37.0209H79.2082L74.7282 25.1409H72.2682V39.4409ZM97.9498 35.8609L99.2098 39.4409H101.07L95.8098 25.1409H93.8098L88.5298 39.4409H90.3898L91.6498 35.8609H97.9498ZM92.2498 34.2609L94.7898 26.8009H94.8298L97.3698 34.2609H92.2498ZM100.775 25.1409L105.975 33.5809V39.4409H107.775V33.5809L112.995 25.1409H111.055L106.895 32.1409H106.855L102.715 25.1409H100.775ZM73.7482 55.4609C73.7482 53.5609 74.4682 51.9409 76.8882 51.9409C79.0082 51.9409 79.5282 53.3409 79.5282 54.5009C79.5282 56.5209 78.2482 57.0009 75.6682 58.5009C73.1282 59.9809 71.5482 61.9409 71.5482 64.4409H81.1282V62.8409H73.7282V62.8009C74.5882 59.5009 81.3282 59.2209 81.3282 54.4809C81.3282 51.8409 79.2882 50.3409 76.9282 50.3409C73.5082 50.3409 71.9482 52.6009 71.9482 55.4609H73.7482ZM89.0415 64.7209C92.8215 64.7209 94.3615 61.4609 94.3615 57.5409C94.3615 53.6209 92.8215 50.3409 89.0415 50.3409C85.2615 50.3409 83.7215 53.6209 83.7215 57.5409C83.7215 61.4609 85.2615 64.7209 89.0415 64.7209ZM89.0415 63.1209C86.4015 63.1209 85.5215 60.4809 85.5215 57.5409C85.5215 54.6009 86.4015 51.9409 89.0415 51.9409C91.6815 51.9409 92.5615 54.6009 92.5615 57.5409C92.5615 60.4809 91.6815 63.1209 89.0415 63.1209ZM98.7662 55.4609C98.7662 53.5609 99.4862 51.9409 101.906 51.9409C104.026 51.9409 104.546 53.3409 104.546 54.5009C104.546 56.5209 103.266 57.0009 100.686 58.5009C98.1462 59.9809 96.5662 61.9409 96.5662 64.4409H106.146V62.8409H98.7462V62.8009C99.6062 59.5009 106.346 59.2209 106.346 54.4809C106.346 51.8409 104.306 50.3409 101.946 50.3409C98.5262 50.3409 96.9662 52.6009 96.9662 55.4609H98.7662ZM111.819 50.6209C111.619 52.4209 110.959 53.6009 108.539 53.6009V54.9009C109.779 54.9009 110.579 54.9009 111.419 54.1009V64.4409H113.219V50.6209H111.819Z" fill="white"/>
<path d="M10.368 39.294C10.368 34.164 12.69 32.22 16.2 32.22C19.116 32.22 20.736 33.948 20.736 36.81C20.736 41.724 14.418 44.64 7.722 50.202C4.428 52.956 1.188 56.79 1.188 63H29.916V55.602H14.094V55.494C18.9 50.742 29.916 45.99 29.916 36.162C29.916 29.034 24.516 24.822 16.47 24.822C6.372 24.822 1.728 30.546 1.728 39.294H10.368ZM38.235 25.686V33.084H55.893V33.192C49.251 38.862 44.175 51.066 44.175 63H53.895C53.895 51.498 57.135 39.402 65.613 32.544V25.686H38.235Z" fill="#84D321"/>
<path d="M8.688 100.27C12.198 100.27 13.692 97.318 13.692 93.79C13.692 90.262 12.198 87.292 8.688 87.292C5.178 87.292 3.684 90.262 3.684 93.79C3.684 97.318 5.178 100.27 8.688 100.27ZM8.688 98.488C6.492 98.488 5.754 96.382 5.754 93.79C5.754 91.198 6.492 89.074 8.688 89.074C10.884 89.074 11.604 91.198 11.604 93.79C11.604 96.382 10.884 98.488 8.688 98.488ZM15.2768 96.49C15.2768 99.01 17.3648 100.27 20.0828 100.27C22.8008 100.27 24.9068 99.01 24.9068 96.49C24.9068 94.78 23.7548 93.898 22.5848 93.376V93.34C23.4488 92.872 24.2948 92.098 24.2948 90.694C24.2948 88.552 22.5128 87.292 20.0828 87.292C17.6528 87.292 15.8708 88.552 15.8708 90.694C15.8708 92.098 16.6988 92.872 17.5808 93.34V93.376C16.3928 93.898 15.2768 94.78 15.2768 96.49ZM20.0828 92.602C18.6968 92.602 17.8328 91.99 17.8328 90.784C17.8328 89.596 18.6968 88.948 20.0828 88.948C21.4688 88.948 22.3328 89.596 22.3328 90.784C22.3328 91.99 21.4688 92.602 20.0828 92.602ZM20.0828 98.56C18.4088 98.56 17.3468 97.732 17.3468 96.364C17.3468 95.014 18.4088 94.186 20.0828 94.186C21.7748 94.186 22.8188 95.014 22.8188 96.364C22.8188 97.732 21.7748 98.56 20.0828 98.56ZM27.8912 94.618C28.5392 94.618 29.0432 94.168 29.0432 93.448C29.0432 92.746 28.5392 92.278 27.8912 92.278C27.2252 92.278 26.7212 92.746 26.7212 93.448C26.7212 94.168 27.2252 94.618 27.8912 94.618ZM27.8912 100.144C28.5392 100.144 29.0432 99.694 29.0432 98.974C29.0432 98.272 28.5392 97.804 27.8912 97.804C27.2252 97.804 26.7212 98.272 26.7212 98.974C26.7212 99.694 27.2252 100.144 27.8912 100.144ZM36.1127 100.27C39.6227 100.27 41.1167 97.318 41.1167 93.79C41.1167 90.262 39.6227 87.292 36.1127 87.292C32.6027 87.292 31.1087 90.262 31.1087 93.79C31.1087 97.318 32.6027 100.27 36.1127 100.27ZM36.1127 98.488C33.9167 98.488 33.1787 96.382 33.1787 93.79C33.1787 91.198 33.9167 89.074 36.1127 89.074C38.3087 89.074 39.0287 91.198 39.0287 93.79C39.0287 96.382 38.3087 98.488 36.1127 98.488ZM48.0082 100.27C51.5182 100.27 53.0122 97.318 53.0122 93.79C53.0122 90.262 51.5182 87.292 48.0082 87.292C44.4982 87.292 43.0042 90.262 43.0042 93.79C43.0042 97.318 44.4982 100.27 48.0082 100.27ZM48.0082 98.488C45.8122 98.488 45.0742 96.382 45.0742 93.79C45.0742 91.198 45.8122 89.074 48.0082 89.074C50.2042 89.074 50.9242 91.198 50.9242 93.79C50.9242 96.382 50.2042 98.488 48.0082 98.488ZM63.8534 90.55C62.4134 90.55 61.5134 91.234 61.0274 91.882H60.9914V90.802H59.0834V103.132H60.9914V98.902H61.0274C61.5134 99.586 62.4134 100.27 63.8534 100.27C66.1934 100.27 67.9394 98.434 67.9394 95.41C67.9394 92.386 66.1934 90.55 63.8534 90.55ZM63.4934 98.722C61.9634 98.722 61.0094 97.444 61.0094 95.41C61.0094 93.358 61.9634 92.098 63.4934 92.098C65.1494 92.098 66.0314 93.61 66.0314 95.41C66.0314 97.21 65.1494 98.722 63.4934 98.722ZM80.0058 90.55C78.5838 90.55 77.6838 91.252 76.9998 92.134H76.9638C76.5858 91.144 75.8118 90.55 74.5158 90.55C73.1298 90.55 72.2658 91.27 71.7798 91.99H71.7438V90.802H69.8538V100H71.7438V94.402C71.7438 93.034 72.5538 92.152 73.8138 92.152C75.1278 92.152 75.3798 92.944 75.3798 94.186V100H77.2878V94.402C77.2878 93.034 78.0798 92.152 79.3578 92.152C80.6538 92.152 80.9058 92.944 80.9058 94.186V100H82.8138V93.646C82.8138 91.666 81.8598 90.55 80.0058 90.55ZM89.3085 87.13V100H91.4505V87.13H89.3085ZM99.1377 92.332C97.3377 91.882 96.1317 91.63 96.1317 90.226C96.1317 89.272 97.0497 88.696 98.5797 88.696C100.362 88.696 101.298 89.488 101.496 90.982H103.638C103.458 88.336 101.406 86.86 98.5797 86.86C95.7717 86.86 94.0077 88.138 94.0077 90.424C94.0077 92.872 96.1857 93.646 98.2017 94.15C100.74 94.78 101.838 95.068 101.838 96.598C101.838 97.588 101.1 98.434 99.1917 98.434C96.8877 98.434 95.7717 97.354 95.6637 95.716H93.5217C93.6477 98.632 96.0417 100.27 99.1917 100.27C102.432 100.27 103.98 98.56 103.98 96.508C103.98 93.628 101.892 93.034 99.1377 92.332ZM108.994 100H111.136V88.948H115.24V87.13H104.872V88.948H108.994V100Z" fill="#84D321"/>
</svg>
