<svg width="160" height="71" viewBox="0 0 160 71" fill="none" xmlns="http://www.w3.org/2000/svg">
<path d="M53.1351 6.33283H62.875V38.1261H53.1351V6.33283ZM67.9856 38.1261V6.33283H94.7686V12.4969H77.7246V19.0572H93.4039V25.2224H77.7246V31.9591H94.7686V38.1261H67.9856ZM100.225 38.1261V6.33283H127.002V12.4969H109.962V19.0572H125.636V25.2224H109.962V31.9591H127.002V38.1261H100.225ZM132.455 38.1261V6.33283H159.238V12.4969H142.2V19.0572H157.876V25.2224H142.2V31.9591H159.238V38.1261H132.455ZM22.2647 25.4198C22.136 27.6648 22.1043 29.7425 21.9206 31.9927C22.9033 32.0737 24.012 32.151 25.0597 32.0131L24.7468 25.7393L24.6918 25.4407C23.894 25.469 23.1387 25.4977 22.2647 25.4198ZM16.1277 19.1154C14.9175 19.6641 13.137 20.4933 13.3333 21.9941C13.5926 22.8139 14.574 23.3432 15.3505 23.6803C19.6428 25.3904 25.3409 25.4485 29.8726 24.172C30.9912 23.7822 32.4931 23.2167 32.6988 21.9774C32.6869 20.9532 31.4881 20.3086 30.6265 19.9166V19.8679C30.927 19.7605 31.2724 19.6641 31.5835 19.6347V19.607C30.0655 19.3612 28.6001 19.0021 27.13 18.6507C27.4131 19.2341 27.6173 19.8494 27.8535 20.4555C28.2951 20.3279 28.7479 20.2307 29.2247 20.172C29.9999 20.4448 31.11 20.8352 31.22 21.7117C31.3063 22.5315 30.3142 22.9308 29.6876 23.2635C26.3635 24.3573 22.6235 24.464 19.1567 23.6322C18.1992 23.3596 16.8173 23.0092 16.6986 21.9067C17.3783 20.4555 19.1362 20.1534 20.6044 19.8007C19.8497 19.3612 19.0825 18.9721 18.3511 18.4828C17.5613 18.5224 16.8398 18.8348 16.1277 19.1154ZM23.4717 10.3581L23.0412 11.6071L20.8834 17.196C21.4239 17.2458 22.093 17.196 22.6235 17.2458V17.292L22.3078 23.6137L22.3622 23.6803C23.0526 23.7415 23.9145 23.7727 24.6181 23.6642V23.5645L24.3362 17.4329L24.3787 17.2254L26.2772 17.196C25.3304 14.9337 24.412 12.6486 23.5273 10.3581H23.4717ZM22.469 7.55005C24.0564 6.57209 25.4808 7.93921 26.7109 8.72051C31.4667 12.1821 35.9547 16.1443 39.3743 20.6187C39.8054 21.1961 40.0003 22.0925 39.6137 22.7461C38.7272 24.0832 37.5308 25.3034 36.397 26.5427V26.6107C33.5695 29.3323 30.5835 32.1301 27.3568 34.4349C25.782 35.3013 24.3362 37.1938 22.3078 36.0216C17.6893 32.9695 13.2697 29.1751 9.52309 25.1055C8.88783 24.2109 7.89581 23.4776 7.45418 22.463C6.83748 21.0887 8.19685 20.1029 8.97469 19.068C12.7949 14.8078 17.5394 10.6303 22.469 7.55005ZM26.4496 3.48108L24.6918 1.22832C24.4762 1.1096 24.2077 0.912927 23.9695 0.855364C23.451 0.652095 22.892 0.897937 22.469 1.18815L19.288 4.93454C14.1848 10.6495 8.14381 15.986 1.55316 20.0767C1.03195 20.4448 0.257436 20.8039 0.0963014 21.4108C-0.0767705 21.9564 0.237544 22.4067 0.612202 22.7461C5.88991 26.0332 10.9355 29.9354 15.4267 34.3859C16.2238 35.1431 16.8703 35.8962 17.6502 36.6073C18.9638 38.188 20.5069 39.7811 21.7143 41.4769C22.093 41.8348 22.1579 42.423 22.7502 42.5975C23.2136 42.7427 23.786 42.8409 24.2282 42.5975L24.6678 42.1981C30.1286 35.2031 37.054 28.9208 44.7918 23.8487C45.5665 23.2233 47.0459 22.9907 47.067 21.8299C47.012 21.2944 46.6672 20.7667 46.1586 20.4742L46.0319 20.4555C42.0501 18.0061 38.34 15.2359 34.8447 12.0933L30.9821 8.44467C29.4172 6.87609 27.8965 5.1384 26.4496 3.48108ZM21.8986 6.6902C23.451 5.59771 25.4045 6.50493 26.7109 7.50988C28.0789 8.45547 29.5039 9.52698 30.7546 10.6219L30.9821 10.74C34.4455 13.6457 37.6622 16.8753 40.3047 20.2895C40.7331 20.8836 41.1116 21.5571 40.8724 22.3455C39.9909 24.3375 38.2007 25.9253 36.6349 27.6648C33.2479 30.9614 29.675 34.1514 25.6752 36.6962C24.8662 37.2136 23.7746 37.6915 22.8053 37.2808C19.861 35.8872 17.3783 33.6044 14.8014 31.5244C11.8128 29.0187 8.81355 26.101 6.54837 23.0489C6.21152 22.6207 6.11669 22.0925 6.12662 21.5277C6.41773 20.4742 7.21612 19.607 7.97141 18.7191C10.6477 15.6347 13.9261 12.7091 17.2371 10.0366C17.3133 9.96829 17.4545 9.8226 17.5746 9.75303C18.9963 8.64135 20.4087 7.65739 21.8986 6.6902Z" fill="white"/>
<path d="M4.94632 63.573L2.80212 58.5078H3.43645L4.84805 61.9169C4.94334 62.1701 5.02673 62.3988 5.0982 62.6035C5.17563 62.8028 5.24115 62.9913 5.29476 63.169C5.36623 62.9428 5.44067 62.7194 5.51811 62.4985C5.59553 62.2777 5.667 62.0838 5.73253 61.9169L7.14413 58.5078H7.76952L5.61638 63.573H4.94632Z" fill="white"/>
<path d="M10.4058 58.5078V63.573H9.83398V58.5078H10.4058Z" fill="white"/>
<path d="M17.0048 58.5078V58.9844H15.0482V63.573H14.4764V58.9844H12.5198V58.5078H17.0048Z" fill="white"/>
<path d="M23.0628 63.573L20.9186 58.5078H21.553L22.9646 61.9169C23.06 62.1701 23.1432 62.3988 23.2147 62.6035C23.2923 62.8028 23.3577 62.9913 23.4113 63.169C23.4827 62.9428 23.5573 62.7194 23.6346 62.4985C23.7122 62.2777 23.7837 62.0838 23.849 61.9169L25.2606 58.5078H25.886L23.7329 63.573H23.0628Z" fill="white"/>
<path d="M31.6215 63.0802V63.573H27.9496V58.5078H31.5411V58.9844H28.5214V60.7455H31.2105V61.206H28.5214V63.0802H31.6215Z" fill="white"/>
<path d="M37.3071 63.0802V63.573H33.921V58.5078H34.4928V63.0802H37.3071Z" fill="white"/>
<path d="M42.8151 63.0802V63.573H39.429V58.5078H40.0008V63.0802H42.8151Z" fill="white"/>
<path d="M49.4009 61.0257C49.4009 61.9416 49.2074 62.6042 48.8202 63.0135C48.439 63.4228 47.8136 63.6276 46.944 63.6276C45.997 63.6276 45.3478 63.439 44.9963 63.062C44.6509 62.685 44.4781 62.0062 44.4781 61.0257C44.4781 60.1099 44.6688 59.4473 45.0499 59.0379C45.4372 58.6286 46.0684 58.4238 46.944 58.4238C47.8851 58.4238 48.5284 58.6124 48.8738 58.9895C49.2252 59.3665 49.4009 60.0452 49.4009 61.0257ZM45.3537 62.6095C45.4847 62.7981 45.6694 62.9355 45.9076 63.0216C46.1458 63.1024 46.4914 63.1428 46.944 63.1428C47.6467 63.1428 48.1353 62.9839 48.4092 62.666C48.6831 62.3482 48.8202 61.8014 48.8202 61.0257C48.8202 60.6325 48.7964 60.3093 48.7487 60.0561C48.701 59.8028 48.6266 59.5982 48.5253 59.442C48.4002 59.248 48.2185 59.1107 47.9803 59.0299C47.7481 58.9437 47.4027 58.9006 46.944 58.9006C46.2351 58.9006 45.7438 59.0594 45.4698 59.3773C45.1959 59.6952 45.0589 60.2447 45.0589 61.0257C45.0589 61.4189 45.0826 61.7421 45.1303 61.9954C45.1781 62.2486 45.2524 62.4532 45.3537 62.6095Z" fill="white"/>
<path d="M52.3883 61.6988V63.573H51.8165V58.5078H53.6748C54.4432 58.5078 54.9971 58.629 55.3366 58.8713C55.6761 59.1137 55.8458 59.5068 55.8458 60.0508C55.8458 60.4978 55.7327 60.8533 55.5063 61.1171C55.2799 61.381 54.9376 61.5534 54.4789 61.6341L55.9799 63.573H55.2919L53.8714 61.6988H52.3883ZM55.2651 60.0508C55.2651 59.6683 55.1431 59.3964 54.8988 59.2349C54.6545 59.068 54.2466 58.9844 53.6748 58.9844H52.3883V61.2383H53.6748C54.2288 61.2383 54.6308 61.1441 54.8809 60.9556C55.137 60.767 55.2651 60.4655 55.2651 60.0508Z" fill="white"/>
<path d="M61.9126 63.0802V63.573H58.2407V58.5078H61.8322V58.9844H58.8124V60.7455H61.5016V61.206H58.8124V63.0802H61.9126Z" fill="white"/>
<path d="M69.23 61.3732L67.8095 61.0661C67.4402 60.9853 67.1752 60.8507 67.0144 60.6621C66.8536 60.4735 66.7732 60.2096 66.7732 59.8702C66.7732 59.3692 66.9309 59.0029 67.2467 58.7713C67.5624 58.5397 68.0627 58.4238 68.7476 58.4238C69.0335 58.4238 69.2895 58.4372 69.5159 58.4642C69.7482 58.4857 69.9567 58.5208 70.1413 58.5693V59.046C69.9448 58.9975 69.7273 58.9625 69.4891 58.941C69.251 58.914 69.0008 58.9006 68.7387 58.9006C68.2264 58.9006 67.8662 58.9705 67.6576 59.1107C67.4491 59.2453 67.3449 59.4851 67.3449 59.8298C67.3449 60.0561 67.3955 60.2258 67.4968 60.3389C67.5981 60.452 67.7648 60.5328 67.9971 60.5813L69.4176 60.8964C69.8763 60.9934 70.1829 61.1335 70.3379 61.3166C70.4928 61.4944 70.5701 61.7691 70.5701 62.1408C70.5701 62.685 70.4152 63.0701 70.1056 63.2963C69.7959 63.5172 69.3015 63.6276 68.6225 63.6276C68.2593 63.6276 67.9078 63.6061 67.5683 63.563C67.2288 63.5198 66.9608 63.4633 66.7642 63.3933V62.9004C67.0621 62.9812 67.3659 63.0431 67.6755 63.0862C67.9851 63.1239 68.3009 63.1428 68.6225 63.1428C69.1228 63.1428 69.4743 63.0754 69.6767 62.9408C69.8792 62.8007 69.9805 62.5368 69.9805 62.1489C69.9805 61.9065 69.9299 61.7315 69.8286 61.6237C69.7273 61.5159 69.5279 61.4325 69.23 61.3732Z" fill="white"/>
<path d="M76.6903 58.5078V58.9844H74.7338V63.573H74.162V58.9844H72.2054V58.5078H76.6903Z" fill="white"/>
<path d="M82.5522 61.5849V58.5078H83.124V61.5849C83.124 62.2903 82.9453 62.8072 82.5879 63.1355C82.2305 63.4639 81.6736 63.6282 80.9172 63.6282C80.1609 63.6282 79.6098 63.4667 79.2644 63.1436C78.919 62.8206 78.7462 62.3009 78.7462 61.5849V58.5078H79.318V61.5849C79.318 62.1556 79.44 62.5594 79.6843 62.7963C79.9286 63.0278 80.3395 63.1436 80.9172 63.1436C81.5128 63.1436 81.9327 63.0278 82.1769 62.7963C82.4271 62.5594 82.5522 62.1556 82.5522 61.5849Z" fill="white"/>
<path d="M87.2666 63.573H85.7389V58.5078H87.2666C87.8443 58.5078 88.2999 58.551 88.6335 58.6371C88.973 58.7179 89.2439 58.8524 89.4466 59.041C89.6429 59.2295 89.786 59.4853 89.8754 59.8084C89.9706 60.1262 90.0183 60.5355 90.0183 61.0363C90.0183 61.9141 89.8009 62.5578 89.3661 62.9671C88.9312 63.371 88.2315 63.573 87.2666 63.573ZM89.0088 59.4207C88.8539 59.2644 88.6425 59.1541 88.3745 59.0895C88.1064 59.0195 87.7371 58.9844 87.2666 58.9844H86.3107V63.0802H87.2666C88.0587 63.0802 88.6157 62.9239 88.9373 62.6116C89.2648 62.2993 89.4285 61.7742 89.4285 61.0363C89.4285 60.6216 89.3929 60.2878 89.3215 60.0346C89.2559 59.7761 89.1517 59.5714 89.0088 59.4207Z" fill="white"/>
<path d="M96.1067 63.0802V63.573H92.4348V58.5078H96.0263V58.9844H93.0065V60.7455H95.6957V61.206H93.0065V63.0802H96.1067Z" fill="white"/>
<path d="M102.908 58.5078V63.573H102.301L98.9503 59.3318V63.573H98.4053V58.5078H99.0128L102.363 62.7893V58.5078H102.908Z" fill="white"/>
<path d="M109.511 58.5078V58.9844H107.555V63.573H106.983V58.9844H105.026V58.5078H109.511Z" fill="white"/>
<path d="M116.422 63.1428C116.666 63.1428 116.919 63.1158 117.181 63.062C117.449 63.0082 117.706 62.9355 117.95 62.8438V63.3125C117.622 63.4309 117.333 63.5145 117.083 63.563C116.833 63.6061 116.574 63.6276 116.306 63.6276C115.46 63.6276 114.861 63.4284 114.51 63.0297C114.159 62.6256 113.983 61.9577 113.983 61.0257C113.983 60.126 114.182 59.469 114.582 59.0541C114.987 58.6339 115.63 58.4238 116.511 58.4238C116.785 58.4238 117.03 58.4292 117.244 58.44C117.458 58.4508 117.652 58.4696 117.825 58.4966V58.9652C117.622 58.9437 117.417 58.9276 117.208 58.9167C117 58.9059 116.767 58.9006 116.511 58.9006C115.803 58.9006 115.302 59.0649 115.01 59.3935C114.719 59.7167 114.573 60.2608 114.573 61.0257C114.573 61.8123 114.704 62.3617 114.966 62.6741C115.234 62.9865 115.719 63.1428 116.422 63.1428Z" fill="white"/>
<path d="M120.741 63.573H120.169V58.5078H120.741V60.7617H123.957V58.5078H124.538V63.573H123.957V61.2464H120.741V63.573Z" fill="white"/>
<path d="M127.222 63.573H126.615L128.866 58.5078H129.465L131.707 63.573H131.091L130.519 62.24H127.803L127.222 63.573ZM129.152 58.9683C129.104 59.1029 129.051 59.251 128.991 59.4126C128.932 59.5742 128.833 59.8246 128.696 60.1639L127.999 61.7796H130.322L129.625 60.1639C129.536 59.9538 129.45 59.7491 129.366 59.5499C129.289 59.3452 129.218 59.1513 129.152 58.9683Z" fill="white"/>
<path d="M134.348 61.8684V63.573H133.777V58.5078H135.635C136.403 58.5078 136.957 58.6343 137.297 58.8875C137.636 59.1407 137.806 59.5553 137.806 60.1316C137.806 60.7185 137.63 61.1548 137.279 61.4403C136.928 61.7258 136.388 61.8684 135.662 61.8684H134.348ZM137.225 60.1316C137.225 59.7223 137.103 59.4287 136.859 59.251C136.615 59.0733 136.207 58.9844 135.635 58.9844H134.348V61.408H135.635C136.195 61.408 136.6 61.3083 136.85 61.109C137.1 60.9043 137.225 60.5786 137.225 60.1316Z" fill="white"/>
<path d="M143.959 58.5078V58.9844H142.002V63.573H141.43V58.9844H139.474V58.5078H143.959Z" fill="white"/>
<path d="M149.74 63.0802V63.573H146.068V58.5078H149.659V58.9844H146.64V60.7455H149.329V61.206H146.64V63.0802H149.74Z" fill="white"/>
<path d="M152.61 61.6988V63.573H152.038V58.5078H153.897C154.665 58.5078 155.219 58.629 155.558 58.8713C155.898 59.1137 156.068 59.5068 156.068 60.0508C156.068 60.4978 155.955 60.8533 155.728 61.1171C155.502 61.381 155.159 61.5534 154.701 61.6341L156.202 63.573H155.514L154.093 61.6988H152.61ZM155.487 60.0508C155.487 59.6683 155.365 59.3964 155.121 59.2349C154.877 59.068 154.468 58.9844 153.897 58.9844H152.61V61.2383H153.897C154.451 61.2383 154.853 61.1441 155.103 60.9556C155.359 60.767 155.487 60.4655 155.487 60.0508Z" fill="white"/>
<path d="M159.237 51.6353H0.0458984V52.3713H159.237V51.6353Z" fill="url(#paint0_linear)"/>
<path d="M159.237 69.6323H0.0458984V70.3667H159.237V69.6323Z" fill="url(#paint1_linear)"/>
<defs>
<linearGradient id="paint0_linear" x1="159.237" y1="52.0033" x2="0.0459016" y2="52.0046" gradientUnits="userSpaceOnUse">
<stop stop-color="white" stop-opacity="0"/>
<stop offset="0.5" stop-color="white" stop-opacity="0.64"/>
<stop offset="1" stop-color="white" stop-opacity="0"/>
</linearGradient>
<linearGradient id="paint1_linear" x1="159.237" y1="69.9995" x2="0.0459016" y2="70.0009" gradientUnits="userSpaceOnUse">
<stop stop-color="white" stop-opacity="0"/>
<stop offset="0.5" stop-color="white" stop-opacity="0.64"/>
<stop offset="1" stop-color="white" stop-opacity="0"/>
</linearGradient>
</defs>
</svg>
