<svg width="24" height="25" viewBox="0 0 24 25" fill="none" xmlns="http://www.w3.org/2000/svg">
<g clip-path="url(#clip0)">
<circle cx="12" cy="12.5" r="12" fill="#141414"/>
<path d="M12 7.17115C13.7357 7.17115 13.9411 7.17785 14.6266 7.20907C15.2603 7.23797 15.6045 7.34376 15.8336 7.43278C16.1371 7.55069 16.3535 7.69157 16.5811 7.91888C16.8087 8.14645 16.9496 8.36293 17.0672 8.66636C17.1562 8.89548 17.262 9.23968 17.2909 9.87337C17.3221 10.5587 17.3289 10.7643 17.3289 12.5C17.3289 14.2357 17.3221 14.4411 17.2909 15.1266C17.262 15.7603 17.1562 16.1045 17.0672 16.3336C16.9493 16.6371 16.8084 16.8535 16.5811 17.0811C16.3535 17.3087 16.1371 17.4496 15.8336 17.5672C15.6045 17.6562 15.2603 17.762 14.6266 17.7909C13.9413 17.8221 13.7357 17.8289 12 17.8289C10.2643 17.8289 10.0587 17.8221 9.37337 17.7909C8.73968 17.762 8.39548 17.6562 8.16636 17.5672C7.86293 17.4493 7.64646 17.3084 7.41888 17.0811C7.19131 16.8535 7.05043 16.6371 6.93278 16.3336C6.84376 16.1045 6.73797 15.7603 6.70907 15.1266C6.67785 14.4413 6.67115 14.2357 6.67115 12.5C6.67115 10.7643 6.67785 10.5589 6.70907 9.87337C6.73797 9.23968 6.84376 8.89548 6.93278 8.66636C7.05069 8.36293 7.19157 8.14645 7.41888 7.91888C7.64646 7.69131 7.86293 7.55043 8.16636 7.43278C8.39548 7.34376 8.73968 7.23797 9.37337 7.20907C10.0589 7.17785 10.2643 7.17115 12 7.17115ZM12 6C10.2346 6 10.0133 6.00748 9.31996 6.03922C8.62822 6.0707 8.15578 6.18061 7.74218 6.34136C7.31464 6.50752 6.95213 6.72968 6.5909 7.09116C6.22968 7.45239 6.00726 7.8149 5.84136 8.24218C5.68061 8.65578 5.5707 9.12821 5.53922 9.81996C5.50748 10.5133 5.5 10.7346 5.5 12.5C5.5 14.2654 5.50748 14.4867 5.53922 15.18C5.5707 15.8718 5.68061 16.3442 5.84136 16.7578C6.00752 17.1854 6.22968 17.5479 6.59116 17.9091C6.95264 18.2706 7.3149 18.4927 7.74244 18.6589C8.15578 18.8196 8.62847 18.9296 9.32022 18.961C10.0135 18.9928 10.2349 19.0003 12.0003 19.0003C13.7656 19.0003 13.987 18.9928 14.6803 18.961C15.372 18.9296 15.8447 18.8196 16.2581 18.6589C16.6856 18.4927 17.0481 18.2706 17.4094 17.9091C17.7708 17.5476 17.993 17.1854 18.1592 16.7578C18.3199 16.3445 18.4298 15.8718 18.4613 15.18C18.493 14.4867 18.5005 14.2654 18.5005 12.5C18.5005 10.7346 18.493 10.5133 18.4613 9.81996C18.4298 9.12821 18.3199 8.65553 18.1592 8.24218C17.993 7.81464 17.7708 7.45213 17.4094 7.0909C17.0479 6.72942 16.6856 6.50726 16.2581 6.3411C15.8442 6.18061 15.3718 6.0707 14.68 6.03922C13.9867 6.00748 13.7654 6 12 6Z" fill="white"/>
<path d="M12 9.16229C10.1564 9.16229 8.66223 10.6567 8.66223 12.5C8.66223 14.3433 10.1567 15.8377 12 15.8377C13.8432 15.8377 15.3377 14.3433 15.3377 12.5C15.3377 10.6567 13.8435 9.16229 12 9.16229ZM12 14.6666C10.8033 14.6666 9.83338 13.6965 9.83338 12.5C9.83338 11.3033 10.8035 10.3334 12 10.3334C13.1964 10.3334 14.1665 11.3036 14.1665 12.5C14.1665 13.6967 13.1966 14.6666 12 14.6666Z" fill="white"/>
<path d="M15.4699 9.8101C15.9006 9.8101 16.2498 9.46089 16.2498 9.03011C16.2498 8.59934 15.9006 8.25012 15.4699 8.25012C15.0391 8.25012 14.6899 8.59934 14.6899 9.03011C14.6899 9.46089 15.0391 9.8101 15.4699 9.8101Z" fill="white"/>
</g>
<defs>
<clipPath id="clip0">
<rect width="24" height="24" fill="white" transform="translate(0 0.5)"/>
</clipPath>
</defs>
</svg>
