<svg width="162" height="45" viewBox="0 0 162 45" fill="none" xmlns="http://www.w3.org/2000/svg">
<path d="M25.2058 24.102L26.1872 24.294L26.1876 24.2918L25.2058 24.102ZM29.6698 1.01398L30.6516 1.20381L30.8817 0.0139828H29.6698V1.01398ZM21.0298 1.01398V0.0139828H20.2056L20.0482 0.823057L21.0298 1.01398ZM16.6138 23.718L15.6322 23.5271L15.6316 23.5302L16.6138 23.718ZM9.3658 24.102L10.3453 24.3036L10.347 24.295L10.3487 24.2863L9.3658 24.102ZM9.9418 21.03L10.9247 21.2143L11.1467 20.03H9.9418V21.03ZM2.2618 21.03V20.03H1.43912L1.28055 20.8372L2.2618 21.03ZM1.7338 23.718L0.752523 23.5252L0.75109 23.5328L1.7338 23.718ZM26.1876 24.2918L30.6516 1.20381L28.688 0.824152L24.224 23.9122L26.1876 24.2918ZM29.6698 0.0139828H21.0298V2.01398H29.6698V0.0139828ZM20.0482 0.823057L15.6322 23.5271L17.5954 23.9089L22.0114 1.20491L20.0482 0.823057ZM15.6316 23.5302C15.3335 25.0893 14.8751 26.2175 14.2358 26.9468C13.6362 27.6308 12.8063 28.046 11.5258 28.046V30.046C13.3173 30.046 14.7194 29.4291 15.7398 28.2652C16.7205 27.1464 17.2701 25.6107 17.596 23.9058L15.6316 23.5302ZM11.5258 28.046C10.9731 28.046 10.6594 27.9544 10.4848 27.8577C10.3387 27.7768 10.2373 27.6652 10.162 27.4573C10.0758 27.2195 10.0259 26.8532 10.054 26.3025C10.0818 25.7588 10.1817 25.0979 10.3453 24.3036L8.38634 23.9003C8.21387 24.7381 8.09182 25.5112 8.0566 26.2005C8.02174 26.8828 8.0678 27.5485 8.28161 28.1386C8.50628 28.7587 8.90894 29.2712 9.51584 29.6073C10.0942 29.9276 10.7825 30.046 11.5258 30.046V28.046ZM10.3487 24.2863L10.9247 21.2143L8.95893 20.8457L8.38293 23.9177L10.3487 24.2863ZM9.9418 20.03H2.2618V22.03H9.9418V20.03ZM1.28055 20.8372L0.752552 23.5252L2.71505 23.9107L3.24305 21.2227L1.28055 20.8372ZM0.75109 23.5328C0.114003 26.9143 0.105042 30.3266 1.71854 32.922C3.38105 35.5961 6.56164 37.102 11.5738 37.102V35.102C6.93796 35.102 4.57456 33.7279 3.41706 31.866C2.21056 29.9253 2.1056 27.1457 2.71651 23.9031L0.75109 23.5328ZM11.5738 37.102C16.3689 37.102 19.7343 35.6872 22.0607 33.2811C24.3558 30.9073 25.5236 27.6859 26.1872 24.294L24.2244 23.91C23.592 27.1421 22.5278 29.9207 20.6229 31.8909C18.7493 33.8287 15.9467 35.102 11.5738 35.102V37.102ZM47.4306 10.758V9.75798H46.6069L46.4491 10.5664L47.4306 10.758ZM44.6945 24.774L45.6757 24.9674L45.676 24.9656L44.6945 24.774ZM36.1986 25.11L37.1801 25.3012L37.1803 25.3004L36.1986 25.11ZM38.9826 10.758L39.9643 10.9484L40.1952 9.75798H38.9826V10.758ZM31.3026 10.758V9.75798H30.4794L30.3212 10.5657L31.3026 10.758ZM28.0866 27.174L27.1052 26.9817L27.1038 26.9892L28.0866 27.174ZM43.3026 31.974L44.0964 32.5821L44.2224 32.4176L44.2727 32.2165L43.3026 31.974ZM43.3506 31.782L44.3306 31.9806L42.3804 31.5395L43.3506 31.782ZM42.6306 35.334L41.6505 35.1353L41.4075 36.334H42.6306V35.334ZM50.3106 35.334V36.334H51.1341L51.292 35.5257L50.3106 35.334ZM55.1105 10.758L56.092 10.9497L56.3248 9.75798H55.1105V10.758ZM46.4491 10.5664L43.7131 24.5824L45.676 24.9656L48.412 10.9496L46.4491 10.5664ZM43.7134 24.5805C43.4132 26.1029 42.7804 27.1486 41.953 27.819C41.1233 28.4914 40.0048 28.862 38.5986 28.862V30.862C40.3603 30.862 41.9538 30.3926 43.2121 29.3729C44.4727 28.3514 45.3039 26.853 45.6757 24.9674L43.7134 24.5805ZM38.5986 28.862C37.55 28.862 37.2676 28.6192 37.1394 28.3876C37.0453 28.2176 36.9552 27.9181 36.9456 27.3936C36.9362 26.872 37.0072 26.189 37.1801 25.3012L35.217 24.9188C35.0299 25.879 34.9329 26.714 34.946 27.4299C34.9589 28.1429 35.0818 28.8004 35.3897 29.3564C36.0655 30.5768 37.3431 30.862 38.5986 30.862V28.862ZM37.1803 25.3004L39.9643 10.9484L38.0009 10.5676L35.2169 24.9196L37.1803 25.3004ZM38.9826 9.75798H31.3026V11.758H38.9826V9.75798ZM30.3212 10.5657L27.1052 26.9817L29.0679 27.3662L32.2839 10.9502L30.3212 10.5657ZM27.1038 26.9892C26.5419 29.9773 26.9705 32.5308 28.3887 34.3573C29.815 36.1942 32.0912 37.102 34.8066 37.102V35.102C32.5299 35.102 30.9181 34.3538 29.9684 33.1307C29.0106 31.8972 28.5752 29.9867 29.0693 27.3588L27.1038 26.9892ZM34.8066 37.102C39.2968 37.102 42.2126 35.0416 44.0964 32.5821L42.5087 31.3659C40.9365 33.4184 38.5723 35.102 34.8066 35.102V37.102ZM44.2727 32.2165L44.3207 32.0245L42.3804 31.5395L42.3324 31.7315L44.2727 32.2165ZM42.3705 31.5833L41.6505 35.1353L43.6106 35.5326L44.3306 31.9806L42.3705 31.5833ZM42.6306 36.334H50.3106V34.334H42.6306V36.334ZM51.292 35.5257L56.092 10.9497L54.1291 10.5663L49.3291 35.1423L51.292 35.5257ZM55.1105 9.75798H47.4306V11.758H55.1105V9.75798ZM77.5461 1.01398V0.0139828H76.7205L76.5642 0.824562L77.5461 1.01398ZM75.1941 13.206L75.7487 14.038L76.0967 13.806L76.1759 13.3954L75.1941 13.206ZM74.9061 13.398L74.0319 13.8836L74.5585 14.8315L75.4608 14.23L74.9061 13.398ZM55.466 22.614L56.4473 22.8068L56.4473 22.8066L55.466 22.614ZM71.258 33.174L72.2426 33.349L72.818 30.1124L70.5377 32.4803L71.258 33.174ZM70.8741 35.334L69.8895 35.159L69.6806 36.334H70.8741V35.334ZM78.5541 35.334V36.334H79.3784L79.5357 35.5248L78.5541 35.334ZM85.2261 1.01398L86.2077 1.20481L86.4392 0.0139828H85.2261V1.01398ZM73.2261 22.614L74.2067 22.8101L74.2086 22.8001L73.2261 22.614ZM62.9541 23.478L61.9734 23.2819L61.9715 23.2918L62.9541 23.478ZM76.5642 0.824562L74.2122 13.0166L76.1759 13.3954L78.5279 1.2034L76.5642 0.824562ZM74.6394 12.3739L74.3513 12.5659L75.4608 14.23L75.7487 14.038L74.6394 12.3739ZM75.7802 12.9123C74.8969 11.3224 72.3193 8.98998 68.1381 8.98998V10.99C71.5408 10.99 73.4752 12.8816 74.0319 13.8836L75.7802 12.9123ZM68.1381 8.98998C61.219 8.98998 56.0798 14.2967 54.4848 22.4213L56.4473 22.8066C57.9243 15.2832 62.4811 10.99 68.1381 10.99V8.98998ZM54.4848 22.4211C53.6402 26.719 54.0636 30.383 55.7458 33.0111C57.4564 35.6835 60.3508 37.102 64.0101 37.102V35.102C60.9013 35.102 58.7077 33.9284 57.4303 31.9329C56.1245 29.8929 55.6599 26.813 56.4473 22.8068L54.4848 22.4211ZM64.0101 37.102C67.5323 37.102 70.5672 35.3331 71.9784 33.8676L70.5377 32.4803C69.4529 33.6069 66.9198 35.102 64.0101 35.102V37.102ZM70.2735 32.999L69.8895 35.159L71.8586 35.509L72.2426 33.349L70.2735 32.999ZM70.8741 36.334H78.5541V34.334H70.8741V36.334ZM79.5357 35.5248L86.2077 1.20481L84.2444 0.823151L77.5724 35.1432L79.5357 35.5248ZM85.2261 0.0139828H77.5461V2.01398H85.2261V0.0139828ZM72.2455 22.4179C71.2829 27.2309 68.8447 29.342 66.1701 29.342V31.342C70.2154 31.342 73.1532 28.077 74.2066 22.8101L72.2455 22.4179ZM66.1701 29.342C65.5819 29.342 65.1468 29.2246 64.8262 29.0419C64.5134 28.8637 64.2548 28.5925 64.059 28.186C63.6465 27.3298 63.5181 25.8729 63.9366 23.6641L61.9715 23.2918C61.526 25.643 61.5656 27.6182 62.2571 29.0539C62.6133 29.7935 63.1407 30.3833 63.8359 30.7795C64.5233 31.1713 65.3182 31.342 66.1701 31.342V29.342ZM63.9346 23.6741C64.8972 18.861 67.3354 16.75 70.01 16.75V14.75C65.9647 14.75 63.0269 18.0149 61.9735 23.2819L63.9346 23.6741ZM70.01 16.75C70.5982 16.75 71.0333 16.8673 71.3539 17.05C71.6667 17.2283 71.9253 17.4995 72.1211 17.9059C72.5336 18.7622 72.662 20.219 72.2435 22.4278L74.2086 22.8001C74.6541 20.4489 74.6145 18.4738 73.923 17.038C73.5668 16.2985 73.0394 15.7087 72.3442 15.3124C71.6568 14.9206 70.8619 14.75 70.01 14.75V16.75ZM102.934 10.758V9.75798H102.111L101.953 10.5656L102.934 10.758ZM102.454 13.206L103.009 14.038L103.355 13.807L103.435 13.3984L102.454 13.206ZM102.166 13.398L101.292 13.8836L101.818 14.8315L102.721 14.23L102.166 13.398ZM83.6859 21.654L84.6672 21.8464L84.6673 21.8461L83.6859 21.654ZM98.9019 31.254L99.8909 31.4023L100.356 28.3025L98.1816 30.5603L98.9019 31.254ZM98.7579 32.214L99.7385 32.4101L99.7433 32.3863L99.7469 32.3623L98.7579 32.214ZM88.9659 36.054L89.8851 35.6601L89.6253 35.054H88.9659V36.054ZM81.4779 36.054V35.054H80.3027L80.4908 36.2141L81.4779 36.054ZM106.246 33.126L105.264 32.9343V32.9343L106.246 33.126ZM110.614 10.758L111.595 10.9496L111.828 9.75798H110.614V10.758ZM100.678 21.654L101.66 21.8437L101.66 21.8428L100.678 21.654ZM91.1739 22.038L90.1921 21.8483L90.1919 21.8491L91.1739 22.038ZM101.953 10.5656L101.473 13.0136L103.435 13.3984L103.915 10.9504L101.953 10.5656ZM101.899 12.3739L101.611 12.5659L102.721 14.23L103.009 14.038L101.899 12.3739ZM103.04 12.9123C102.191 11.3844 100.073 8.98998 95.7819 8.98998V10.99C99.1705 10.99 100.701 12.8196 101.292 13.8836L103.04 12.9123ZM95.7819 8.98998C89.1143 8.98998 84.1102 14.2828 82.7046 21.4618L84.6673 21.8461C85.9496 15.2972 90.3536 10.99 95.7819 10.99V8.98998ZM82.7046 21.4616C81.9518 25.3008 82.3993 28.7221 84.0377 31.2204C85.7 33.755 88.486 35.182 92.0379 35.182V33.182C89.0618 33.182 86.9519 32.017 85.7101 30.1236C84.4446 28.1939 83.98 25.3512 84.6672 21.8464L82.7046 21.4616ZM92.0379 35.182C95.6511 35.182 98.2472 33.3755 99.6222 31.9476L98.1816 30.5603C97.0606 31.7244 94.9527 33.182 92.0379 33.182V35.182ZM97.913 31.1056L97.769 32.0656L99.7469 32.3623L99.8909 31.4023L97.913 31.1056ZM97.7773 32.0179C97.3751 34.0292 96.8862 35.3286 96.1816 36.1332C95.535 36.8716 94.5983 37.31 92.9499 37.31V39.31C94.9975 39.31 96.5569 38.7404 97.6862 37.4508C98.7577 36.2273 99.3248 34.4787 99.7385 32.4101L97.7773 32.0179ZM92.9499 37.31C91.8432 37.31 91.1998 37.1031 90.7954 36.844C90.4015 36.5915 90.1249 36.2197 89.8851 35.6601L88.0468 36.4479C88.3829 37.2322 88.8744 37.9884 89.7164 38.528C90.5481 39.0609 91.6086 39.31 92.9499 39.31V37.31ZM88.9659 35.054H81.4779V37.054H88.9659V35.054ZM80.4908 36.2141C80.812 38.1944 81.8045 40.3696 83.8355 42.0453C85.8701 43.7241 88.8594 44.83 93.0459 44.83V42.83C89.2165 42.83 86.7097 41.8239 85.1083 40.5026C83.5033 39.1784 82.7199 37.4656 82.465 35.8939L80.4908 36.2141ZM93.0459 44.83C96.7482 44.83 99.9052 44.1667 102.354 42.3182C104.818 40.4584 106.407 37.5213 107.227 33.3176L105.264 32.9343C104.501 36.8427 103.09 39.2575 101.149 40.7218C99.1947 42.1973 96.5436 42.83 93.0459 42.83V44.83ZM107.227 33.3176L111.595 10.9496L109.632 10.5663L105.264 32.9343L107.227 33.3176ZM110.614 9.75798H102.934V11.758H110.614V9.75798ZM99.6961 21.4643C99.3122 23.4515 98.5951 24.9492 97.6645 25.9358C96.7531 26.902 95.5992 27.422 94.1979 27.422V29.422C96.1567 29.422 97.8348 28.6699 99.1194 27.3082C100.385 25.9667 101.228 24.0804 101.66 21.8437L99.6961 21.4643ZM94.1979 27.422C93.6332 27.422 93.2358 27.294 92.9509 27.1105C92.6677 26.9279 92.4312 26.6488 92.2543 26.2383C91.8845 25.38 91.8112 24.0196 92.1559 22.2268L90.1919 21.8491C89.8167 23.8003 89.8153 25.6319 90.4175 27.0297C90.7267 27.7472 91.2011 28.3621 91.8674 28.7915C92.5321 29.2199 93.3226 29.422 94.1979 29.422V27.422ZM92.1558 22.2277C92.5379 20.2496 93.2468 18.8925 94.149 18.0347C95.0353 17.192 96.1924 16.75 97.6539 16.75V14.75C95.7555 14.75 94.0806 15.34 92.7709 16.5853C91.4771 17.8154 90.6259 19.6024 90.1921 21.8483L92.1558 22.2277ZM97.6539 16.75C98.2524 16.75 98.67 16.8624 98.9609 17.0223C99.2409 17.1762 99.456 17.4022 99.6152 17.7323C99.958 18.4433 100.044 19.6533 99.6959 21.4651L101.66 21.8428C102.032 19.9106 102.046 18.1687 101.417 16.8637C101.09 16.1857 100.594 15.6378 99.9244 15.2697C99.2658 14.9076 98.4955 14.75 97.6539 14.75V16.75ZM117.927 24.966V23.966H117.091L116.943 24.7893L117.927 24.966ZM135.591 24.966V25.966H136.411L136.572 25.1621L135.591 24.966ZM110.871 21.75L111.851 21.9515L111.851 21.9511L110.871 21.75ZM134.727 27.702L135.645 28.0989L136.249 26.702H134.727V27.702ZM126.999 27.702V26.702H126.179L126.019 27.5059L126.999 27.702ZM128.919 20.646V21.646H129.77L129.906 20.8064L128.919 20.646ZM118.839 20.646L117.858 20.4551L117.626 21.646H118.839V20.646ZM122.199 29.342C121.15 29.342 120.203 28.9979 119.597 28.3659C119.021 27.765 118.62 26.7653 118.911 25.1426L116.943 24.7893C116.562 26.9107 117.05 28.599 118.153 29.7501C119.227 30.8701 120.752 31.342 122.199 31.342V29.342ZM117.927 25.966H135.591V23.966H117.927V25.966ZM136.572 25.1621C137.464 20.6988 137.08 16.6603 135.186 13.6991C133.259 10.6876 129.902 8.98998 125.319 8.98998V10.99C129.376 10.99 132.019 12.4604 133.501 14.7768C135.015 17.1437 135.446 20.5932 134.611 24.7699L136.572 25.1621ZM125.319 8.98998C121.324 8.98998 117.852 10.1815 115.175 12.379C112.498 14.5758 110.676 17.7286 109.892 21.5489L111.851 21.9511C112.554 18.5233 114.164 15.7962 116.444 13.9249C118.722 12.0544 121.731 10.99 125.319 10.99V8.98998ZM109.892 21.5485C108.988 25.9392 109.6 29.8412 111.693 32.6708C113.8 35.5179 117.276 37.102 121.719 37.102V35.102C117.762 35.102 114.95 33.7101 113.301 31.4812C111.639 29.2348 111.026 25.9608 111.851 21.9515L109.892 21.5485ZM121.719 37.102C125.099 37.102 127.975 36.2929 130.324 34.7331C132.673 33.174 134.43 30.9079 135.645 28.0989L133.809 27.3051C132.72 29.824 131.19 31.758 129.218 33.0669C127.248 34.375 124.772 35.102 121.719 35.102V37.102ZM134.727 26.702H126.999V28.702H134.727V26.702ZM126.019 27.5059C125.968 27.7601 125.71 28.2141 125.056 28.6258C124.424 29.0239 123.473 29.342 122.199 29.342V31.342C123.805 31.342 125.134 30.9401 126.122 30.3182C127.088 29.7099 127.791 28.8438 127.98 27.8981L126.019 27.5059ZM125.031 16.27C126.202 16.27 126.99 16.6025 127.446 17.155C127.906 17.7112 128.219 18.7182 127.932 20.4856L129.906 20.8064C130.243 18.7337 129.956 17.0528 128.988 15.881C128.017 14.7055 126.548 14.27 125.031 14.27V16.27ZM128.919 19.646H118.839V21.646H128.919V19.646ZM119.821 20.8369C120.121 19.2915 120.781 18.1636 121.649 17.4224C122.514 16.6833 123.656 16.27 125.031 16.27V14.27C123.239 14.27 121.62 14.8166 120.35 15.9015C119.082 16.9844 118.229 18.5444 117.858 20.4551L119.821 20.8369ZM150.836 19.926L151.136 18.9722L151.131 18.9705L150.836 19.926ZM153.428 18.102L152.43 18.029L152.352 19.102H153.428V18.102ZM160.484 18.102V19.102H161.484V18.102H160.484ZM146.468 25.35L146.772 24.3974L146.771 24.3971L146.468 25.35ZM143.54 27.366L144.535 27.4636L144.643 26.366H143.54V27.366ZM136.436 27.366V26.366H135.436V27.366H136.436ZM151.131 18.9705C149.424 18.4436 148.461 18.169 147.875 17.8561C147.613 17.7158 147.526 17.6157 147.492 17.563C147.464 17.52 147.42 17.4292 147.42 17.19H145.42C145.42 17.6948 145.519 18.192 145.809 18.644C146.093 19.0862 146.499 19.3882 146.932 19.6199C147.739 20.0509 148.983 20.4004 150.541 20.8815L151.131 18.9705ZM147.42 17.19C147.42 16.9193 147.512 16.7558 147.792 16.601C148.141 16.408 148.747 16.27 149.636 16.27V14.27C148.604 14.27 147.603 14.42 146.824 14.8509C145.975 15.3201 145.42 16.1167 145.42 17.19H147.42ZM149.636 16.27C150.664 16.27 151.42 16.4715 151.872 16.7767C152.256 17.036 152.476 17.3983 152.43 18.029L154.425 18.175C154.523 16.8377 153.975 15.784 152.991 15.1193C152.075 14.5005 150.863 14.27 149.636 14.27V16.27ZM153.428 19.102H160.484V17.102H153.428V19.102ZM161.484 18.102C161.484 15.9475 160.863 13.6193 158.966 11.8405C157.078 10.07 154.08 8.98998 149.636 8.98998V10.99C153.783 10.99 156.21 11.998 157.598 13.2994C158.977 14.5926 159.484 16.3205 159.484 18.102H161.484ZM149.636 8.98998C146.385 8.98998 143.446 9.80759 141.293 11.4073C139.113 13.0271 137.788 15.4191 137.788 18.39H139.788C139.788 16.0809 140.79 14.2729 142.486 13.0127C144.209 11.7324 146.695 10.99 149.636 10.99V8.98998ZM137.788 18.39C137.788 20.7158 138.836 22.3947 140.431 23.6321C141.973 24.8286 144.041 25.6272 146.164 26.3029L146.771 24.3971C144.67 23.7287 142.899 23.0154 141.657 22.0519C140.467 21.1293 139.788 20.0002 139.788 18.39H137.788ZM146.163 26.3026C147.041 26.5831 147.818 26.8021 148.453 26.9893C149.105 27.1818 149.588 27.3356 149.955 27.4961C150.323 27.6571 150.478 27.7853 150.548 27.8725C150.595 27.9318 150.652 28.0282 150.652 28.278H152.652C152.652 27.6638 152.492 27.1001 152.108 26.621C151.746 26.1697 151.253 25.8808 150.757 25.6638C150.259 25.4463 149.662 25.2611 149.019 25.0711C148.357 24.8759 147.622 24.6689 146.772 24.3974L146.163 26.3026ZM150.652 28.278C150.652 28.7796 150.463 29.0986 150.089 29.3398C149.657 29.6189 148.917 29.822 147.812 29.822V31.822C149.107 31.822 150.286 31.5931 151.174 31.0202C152.12 30.4093 152.652 29.4564 152.652 28.278H150.652ZM147.812 29.822C146.504 29.822 145.634 29.5786 145.139 29.2097C144.721 28.8993 144.442 28.4075 144.535 27.4636L142.544 27.2684C142.397 28.7725 142.862 30.0086 143.945 30.8143C144.949 31.5614 146.335 31.822 147.812 31.822V29.822ZM143.54 26.366H136.436V28.366H143.54V26.366ZM135.436 27.366C135.436 29.8507 136.126 32.345 138.162 34.201C140.181 36.0413 143.358 37.102 148.004 37.102V35.102C143.625 35.102 141.018 34.0986 139.509 32.723C138.017 31.363 137.436 29.4893 137.436 27.366H135.436ZM148.004 37.102C151.396 37.102 154.448 36.4499 156.68 34.9016C158.967 33.3148 160.284 30.8605 160.284 27.558H158.284C158.284 30.2555 157.248 32.0732 155.54 33.2583C153.776 34.4821 151.187 35.102 148.004 35.102V37.102ZM160.284 27.558C160.284 24.9999 159.076 23.1666 157.322 21.8304C155.614 20.5298 153.357 19.6724 151.136 18.9722L150.535 20.8797C152.73 21.5716 154.698 22.3461 156.11 23.4216C157.475 24.4614 158.284 25.748 158.284 27.558H160.284Z" fill="white"/>
</svg>
