<svg width="24" height="25" viewBox="0 0 24 25" fill="none" xmlns="http://www.w3.org/2000/svg">
<g clip-path="url(#clip0)">
<circle cx="12" cy="12.5" r="12" fill="white"/>
<path d="M8.09521 19.0312H5.17267V10.2387H8.09521V19.0312ZM6.63403 9.03809H6.61499C5.63428 9.03809 5 8.36298 5 7.51923C5 6.65643 5.65369 6 6.65344 6C7.6532 6 8.26843 6.65643 8.28748 7.51923C8.28748 8.36298 7.6532 9.03809 6.63403 9.03809ZM18.6333 19.0312H15.7111V14.3275C15.7111 13.1453 15.288 12.3391 14.2305 12.3391C13.4232 12.3391 12.9424 12.8829 12.7311 13.4079C12.6538 13.5958 12.6349 13.8583 12.6349 14.1211V19.0312H9.71259C9.71259 19.0312 9.75085 11.0636 9.71259 10.2387H12.6349V11.4836C13.0233 10.8845 13.7182 10.0323 15.2687 10.0323C17.1915 10.0323 18.6333 11.289 18.6333 13.9896V19.0312Z" fill="#141414"/>
</g>
<defs>
<clipPath id="clip0">
<rect width="24" height="24" fill="white" transform="translate(0 0.5)"/>
</clipPath>
</defs>
</svg>
