<svg width="57" height="54" viewBox="0 0 57 54" fill="none" xmlns="http://www.w3.org/2000/svg">
<path d="M1.71873 52.9647V1.68028H55.0078V52.9647H1.71873Z" fill="white" stroke="#292929" stroke-width="2.0046"/>
<path d="M12.577 2.0144H2.05286V11.7033H12.577V2.0144Z" fill="#EFC3F5"/>
<path d="M23.1011 2.0144H12.5769V11.7033H23.1011V2.0144Z" fill="#DE0D92"/>
<path d="M33.6255 2.0144H23.1013V11.7033H33.6255V2.0144Z" fill="#4D6CFA"/>
<path d="M44.1495 2.0144H33.6254V11.7033H44.1495V2.0144Z" fill="#4D6CFA"/>
<path d="M54.6737 2.0144H44.1495V11.7033H54.6737V2.0144Z" fill="#0F1020"/>
<path d="M1.71959 52.9648V1.68034H55.0086V52.9648H1.71959Z" stroke="#292929" stroke-width="2.0046"/>
<path d="M8.3865 44.6151C8.3865 44.1504 8.26303 43.8191 8.0161 43.621C7.77322 43.4231 7.43116 43.3241 6.98992 43.3241H5.24722V45.9548H6.98992C7.43116 45.9548 7.77322 45.8477 8.0161 45.6335C8.26303 45.4193 8.3865 45.0799 8.3865 44.6151ZM10.2385 44.603C10.2385 45.6578 9.97134 46.4033 9.43695 46.8397C8.90263 47.2762 8.13957 47.4944 7.14779 47.4944H5.24722V50.707H3.38916V41.7723H7.28745C8.18612 41.7723 8.90263 42.0026 9.43695 42.4633C9.97134 42.924 10.2385 43.6373 10.2385 44.603Z" fill="#292929"/>
<path d="M15.7451 47.4366C15.6358 47.5054 15.5245 47.5619 15.4112 47.6063C15.3019 47.6467 15.15 47.6852 14.9557 47.7215L14.5671 47.7943C14.2028 47.8589 13.9417 47.9377 13.7839 48.0306C13.5167 48.1883 13.383 48.4327 13.383 48.7641C13.383 49.0591 13.464 49.2733 13.626 49.4066C13.7919 49.5359 13.9923 49.6006 14.2271 49.6006C14.5995 49.6006 14.9415 49.4915 15.2533 49.2733C15.569 49.055 15.7329 48.657 15.7451 48.0791V47.4366ZM14.6946 46.6305C15.0144 46.5901 15.2432 46.5396 15.3808 46.479C15.6277 46.3738 15.7511 46.2102 15.7511 45.988C15.7511 45.7172 15.656 45.5313 15.4658 45.4303C15.2796 45.3252 15.0043 45.2727 14.64 45.2727C14.2311 45.2727 13.9417 45.3737 13.7717 45.5758C13.6502 45.7253 13.5692 45.9274 13.5288 46.1819H11.8589C11.8954 45.6041 12.0573 45.1292 12.3447 44.7574C12.8022 44.1755 13.5874 43.8846 14.7007 43.8846C15.4253 43.8846 16.0689 44.0281 16.6316 44.315C17.1943 44.6018 17.4757 45.1434 17.4757 45.9394V48.9702C17.4757 49.1804 17.4797 49.4349 17.4878 49.734C17.4999 49.9602 17.5344 50.1138 17.591 50.1947C17.6477 50.2755 17.7327 50.3421 17.846 50.3947V50.6493H15.9637C15.9111 50.5159 15.8747 50.3906 15.8544 50.2734C15.8342 50.1563 15.818 50.0229 15.8058 49.8734C15.567 50.132 15.2917 50.3522 14.98 50.5341C14.6076 50.7483 14.1866 50.8553 13.717 50.8553C13.1179 50.8553 12.622 50.6856 12.2294 50.3462C11.8407 50.0027 11.6465 49.5177 11.6465 48.8915C11.6465 48.0791 11.9602 47.4912 12.5877 47.1275C12.9317 46.9295 13.4377 46.7881 14.1056 46.7032L14.6946 46.6305Z" fill="#292929"/>
<path d="M20.9847 50.707H19.2542V41.7723H20.9847V50.707Z" fill="#292929"/>
<path d="M25.5263 45.3091C25.1255 45.3091 24.8139 45.4344 24.5912 45.6849C24.3726 45.9355 24.2349 46.2749 24.1783 46.7032H26.8683C26.8399 46.2466 26.7003 45.9011 26.4492 45.6667C26.2023 45.4283 25.8947 45.3091 25.5263 45.3091ZM25.5263 43.8846C26.0769 43.8846 26.5728 43.9877 27.014 44.1937C27.4552 44.3999 27.8195 44.7251 28.1069 45.1697C28.366 45.5616 28.534 46.0163 28.6109 46.5335C28.6555 46.8366 28.6737 47.2731 28.6656 47.8428H24.1358C24.1601 48.5055 24.3686 48.9703 24.7612 49.2369C25.0001 49.4027 25.2875 49.4855 25.6235 49.4855C25.9797 49.4855 26.2691 49.3845 26.4918 49.1824C26.6132 49.0733 26.7205 48.9218 26.8136 48.7278H28.5805C28.536 49.1198 28.3317 49.5178 27.9673 49.9219C27.4006 50.5644 26.6071 50.8857 25.587 50.8857C24.7451 50.8857 24.0022 50.6149 23.3586 50.0734C22.7149 49.532 22.3931 48.6511 22.3931 47.4306C22.3931 46.287 22.6825 45.4101 23.2614 44.7999C23.8444 44.1897 24.5993 43.8846 25.5263 43.8846Z" fill="#292929"/>
<path d="M30.0754 45.5496V44.3191H30.9984V42.4764H32.7108V44.3191H33.7855V45.5496H32.7108V49.0411C32.7108 49.3119 32.7451 49.4816 32.814 49.5502C32.8828 49.6149 33.0933 49.6472 33.4454 49.6472C33.4981 49.6472 33.5527 49.6472 33.6094 49.6472C33.6702 49.6432 33.7289 49.6391 33.7855 49.6352V50.9262L32.9658 50.9565C32.1481 50.9848 31.5894 50.8433 31.2899 50.5322C31.0956 50.3342 30.9984 50.0291 30.9984 49.6169V45.5496H30.0754Z" fill="#292929"/>
<path d="M35.1938 45.5496V44.3191H36.1168V42.4764H37.8292V44.3191H38.9039V45.5496H37.8292V49.0411C37.8292 49.3119 37.8635 49.4816 37.9323 49.5502C38.0012 49.6149 38.2117 49.6472 38.5638 49.6472C38.6165 49.6472 38.6711 49.6472 38.7278 49.6472C38.7886 49.6432 38.8473 49.6391 38.9039 49.6352V50.9262L38.0842 50.9565C37.2665 50.9848 36.7078 50.8433 36.4083 50.5322C36.2139 50.3342 36.1168 50.0291 36.1168 49.6169V45.5496H35.1938Z" fill="#292929"/>
<path d="M43.445 45.3091C43.0442 45.3091 42.7325 45.4344 42.5098 45.6849C42.2912 45.9355 42.1536 46.2749 42.0969 46.7032H44.7869C44.7586 46.2466 44.6189 45.9011 44.3679 45.6667C44.1209 45.4283 43.8133 45.3091 43.445 45.3091ZM43.445 43.8846C43.9955 43.8846 44.4914 43.9877 44.9326 44.1937C45.3738 44.3999 45.7382 44.7251 46.0255 45.1697C46.2846 45.5616 46.4526 46.0163 46.5295 46.5335C46.5741 46.8366 46.5923 47.2731 46.5842 47.8428H42.0544C42.0787 48.5055 42.2872 48.9703 42.6799 49.2369C42.9187 49.4027 43.2061 49.4855 43.5421 49.4855C43.8984 49.4855 44.1877 49.3845 44.4104 49.1824C44.5319 49.0733 44.6391 48.9218 44.7322 48.7278H46.4992C46.4547 49.1198 46.2503 49.5178 45.886 49.9219C45.3192 50.5644 44.5258 50.8857 43.5056 50.8857C42.6637 50.8857 41.9209 50.6149 41.2772 50.0734C40.6335 49.532 40.3118 48.6511 40.3118 47.4306C40.3118 46.287 40.6011 45.4101 41.1801 44.7999C41.763 44.1897 42.5179 43.8846 43.445 43.8846Z" fill="#292929"/>
</svg>
