<svg width="101" height="96" viewBox="0 0 101 96" fill="none" xmlns="http://www.w3.org/2000/svg">
<path d="M4.83312 94.2502V1.75012H96.1677V94.2502H4.83312Z" fill="white" stroke="#141414" stroke-width="3.43578"/>
<path d="M23.4446 2.43555H5.40674V19.8784H23.4446V2.43555Z" fill="#93E928"/>
<path d="M41.4802 2.43555H23.4424V19.8785H41.4802V2.43555Z" fill="#35A7FF"/>
<path d="M59.5188 2.43555H41.481V19.8785H59.5188V2.43555Z" fill="#FDE74C"/>
<path d="M77.5564 2.43555H59.5186V19.8785H77.5564V2.43555Z" fill="#FA8426"/>
<path d="M95.5945 2.43555H77.5566V19.8785H95.5945V2.43555Z" fill="#FB2022"/>
<path d="M4.83312 94.2502V1.75012H96.1677V94.2502H4.83312Z" stroke="#141414" stroke-width="3.43578"/>
<path d="M17.8346 79.9288C17.8346 79.135 17.6237 78.5691 17.202 78.2309C16.7872 77.8927 16.2029 77.7236 15.4493 77.7236H12.4728V82.2168H15.4493C16.2029 82.2168 16.7872 82.0339 17.202 81.6681C17.6237 81.3023 17.8346 80.7225 17.8346 79.9288ZM20.9978 79.9081C20.9978 81.7095 20.5414 82.9829 19.6288 83.7283C18.7162 84.4737 17.4129 84.8464 15.7189 84.8464H12.4728V90.3335H9.29932V75.0732H15.9575C17.4924 75.0732 18.7162 75.4667 19.6288 76.2535C20.5414 77.0403 20.9978 78.2585 20.9978 79.9081Z" fill="#141414"/>
<path d="M29.3879 84.8464C29.2012 84.9638 29.0111 85.0604 28.8175 85.1363C28.6308 85.2053 28.3715 85.2709 28.0397 85.333L27.3759 85.4572C26.7537 85.5677 26.3077 85.7023 26.0381 85.861C25.5817 86.1302 25.3536 86.5478 25.3536 87.1137C25.3536 87.6176 25.4919 87.9834 25.7684 88.2111C26.0519 88.432 26.3941 88.5424 26.7951 88.5424C27.4312 88.5424 28.0155 88.3561 28.5478 87.9834C29.0871 87.6107 29.3671 86.9308 29.3879 85.9438V84.8464ZM27.5937 83.4695C28.1399 83.4005 28.5305 83.3142 28.7656 83.2107C29.1874 83.0312 29.3982 82.7517 29.3982 82.3721C29.3982 81.9096 29.2358 81.5921 28.9108 81.4196C28.5928 81.2401 28.1226 81.1504 27.5004 81.1504C26.8021 81.1504 26.3077 81.323 26.0173 81.6681C25.8099 81.9234 25.6716 82.2685 25.6025 82.7034H22.7505C22.8127 81.7164 23.0892 80.9054 23.5801 80.2704C24.3614 79.2765 25.7027 78.7796 27.6041 78.7796C28.8417 78.7796 29.941 79.0246 30.902 79.5147C31.8631 80.0047 32.3436 80.9296 32.3436 82.2892V87.4657C32.3436 87.8246 32.3505 88.2594 32.3643 88.7702C32.3851 89.1567 32.4439 89.419 32.5407 89.557C32.6374 89.695 32.7826 89.8089 32.9762 89.8987V90.3335H29.7612C29.6714 90.1057 29.6091 89.8918 29.5746 89.6916C29.54 89.4914 29.5123 89.2637 29.4916 89.0083C29.0837 89.45 28.6135 89.8262 28.0811 90.1368C27.4451 90.5026 26.726 90.6855 25.924 90.6855C24.9007 90.6855 24.0537 90.3956 23.3831 89.8158C22.7193 89.2292 22.3875 88.4009 22.3875 87.3311C22.3875 85.9438 22.9233 84.9396 23.995 84.3184C24.5827 83.9802 25.4469 83.7387 26.5877 83.5937L27.5937 83.4695Z" fill="#141414"/>
<path d="M37.9958 90.3335H35.0401V75.0732H37.9958V90.3335Z" fill="#141414"/>
<path d="M45.3488 81.1815C44.6643 81.1815 44.1319 81.3954 43.7517 81.8234C43.3783 82.2513 43.1432 82.831 43.0464 83.5627H47.6408C47.5924 82.7827 47.3538 82.1926 46.9252 81.7923C46.5034 81.3851 45.978 81.1815 45.3488 81.1815ZM45.3488 78.7485C46.2891 78.7485 47.1361 78.9245 47.8897 79.2765C48.6433 79.6285 49.2656 80.1841 49.7565 80.9434C50.199 81.6129 50.4859 82.3893 50.6172 83.2728C50.6933 83.7904 50.7244 84.5358 50.7106 85.509H42.9738C43.0153 86.6409 43.3714 87.4347 44.0421 87.8902C44.45 88.1732 44.9409 88.3147 45.5147 88.3147C46.1232 88.3147 46.6175 88.1421 46.9978 87.797C47.2052 87.6107 47.3884 87.3518 47.5474 87.0205H50.5654C50.4893 87.69 50.1402 88.3699 49.5179 89.0601C48.55 90.1575 47.1948 90.7062 45.4525 90.7062C44.0144 90.7062 42.7457 90.2438 41.6464 89.3189C40.547 88.394 39.9974 86.8894 39.9974 84.805C39.9974 82.8518 40.4917 81.354 41.4804 80.3118C42.476 79.2696 43.7655 78.7485 45.3488 78.7485Z" fill="#141414"/>
<path d="M51.5506 81.2539V79.1523H53.127V76.005H56.0516V79.1523H57.8873V81.2539H56.0516V87.2172C56.0516 87.6797 56.1104 87.9696 56.2279 88.0869C56.3455 88.1973 56.705 88.2525 57.3065 88.2525C57.3964 88.2525 57.4897 88.2525 57.5865 88.2525C57.6902 88.2456 57.7905 88.2387 57.8873 88.2318V90.437L56.4872 90.4888C55.0906 90.5371 54.1365 90.2955 53.6248 89.7641C53.293 89.4259 53.127 88.9048 53.127 88.2008V81.2539H51.5506Z" fill="#141414"/>
<path d="M58.6236 81.2539V79.1523H60.2V76.005H63.1246V79.1523H64.9603V81.2539H63.1246V87.2172C63.1246 87.6797 63.1834 87.9696 63.3009 88.0869C63.4185 88.1973 63.778 88.2525 64.3795 88.2525C64.4694 88.2525 64.5627 88.2525 64.6595 88.2525C64.7632 88.2456 64.8635 88.2387 64.9603 88.2318V90.437L63.5602 90.4888C62.1636 90.5371 61.2095 90.2955 60.6978 89.7641C60.366 89.4259 60.2 88.9048 60.2 88.2008V81.2539H58.6236Z" fill="#141414"/>
<path d="M71.3177 81.1815C70.6332 81.1815 70.1008 81.3954 69.7206 81.8234C69.3472 82.2513 69.1121 82.831 69.0153 83.5627H73.6097C73.5613 82.7827 73.3227 82.1926 72.8941 81.7923C72.4723 81.3851 71.9469 81.1815 71.3177 81.1815ZM71.3177 78.7485C72.258 78.7485 73.105 78.9245 73.8586 79.2765C74.6122 79.6285 75.2345 80.1841 75.7254 80.9434C76.1678 81.6129 76.4548 82.3893 76.5861 83.2728C76.6622 83.7904 76.6933 84.5358 76.6795 85.509H68.9427C68.9842 86.6409 69.3403 87.4347 70.011 87.8902C70.4189 88.1732 70.9098 88.3147 71.4836 88.3147C72.0921 88.3147 72.5864 88.1421 72.9667 87.797C73.1741 87.6107 73.3573 87.3518 73.5163 87.0205H76.5343C76.4582 87.69 76.1091 88.3699 75.4868 89.0601C74.5189 90.1575 73.1637 90.7062 71.4214 90.7062C69.9833 90.7062 68.7146 90.2438 67.6153 89.3189C66.5159 88.394 65.9663 86.8894 65.9663 84.805C65.9663 82.8518 66.4606 81.354 67.4493 80.3118C68.4449 79.2696 69.7344 78.7485 71.3177 78.7485Z" fill="#141414"/>
</svg>
