<svg width="25" height="24" viewBox="0 0 25 24" fill="none" xmlns="http://www.w3.org/2000/svg">
<path d="M12.5 21C17.4705 21 21.5 16.9705 21.5 12C21.5 7.02945 17.4705 3 12.5 3C7.52945 3 3.5 7.02945 3.5 12C3.5 16.9705 7.52945 21 12.5 21Z" fill="#1FB6FF"/>
<path d="M11.6818 10.1528C12.3003 10.1594 11.2114 13.3523 11.3282 14.7404C11.4462 16.1408 13.0045 15.7376 12.9055 14.9314C12.7373 13.5609 13.6553 9.26633 14.5865 9.26633C15.2398 9.26633 13.8629 12.2269 14.1338 14.1228C14.3131 15.3771 15.94 14.942 15.7747 14.1983C15.2278 11.7369 16.9223 9.37145 16.7324 7.6955C16.6493 6.96218 16.2059 6.60358 15.7622 6.60007C14.2091 6.58819 13.0093 9.75552 13.0093 9.75552C13.0093 9.75552 13.1342 7.95533 11.9271 7.88922C10.0789 7.78797 8.24926 12.3875 8.30113 16.4945C8.31763 17.8047 9.9575 17.5815 9.87125 16.5369C9.7109 14.5942 10.8001 10.1433 11.6818 10.1528Z" fill="white"/>
</svg>
