<svg width="54" height="54" viewBox="0 0 54 54" fill="none" xmlns="http://www.w3.org/2000/svg">
<path d="M1.3939 52.3348V0.954228H52.1271V52.3348H1.3939Z" fill="white" stroke="black" stroke-width="1.90846"/>
<path d="M11.7318 1.33545H1.71242V11.0244H11.7318V1.33545Z" fill="#93E928"/>
<path d="M21.7498 1.33594H11.7304V11.0249H21.7498V1.33594Z" fill="#35A7FF"/>
<path d="M31.7699 1.33594H21.7506V11.0249H31.7699V1.33594Z" fill="#FDE74C"/>
<path d="M41.7891 1.33594H31.7698V11.0249H41.7891V1.33594Z" fill="#FA8426"/>
<path d="M51.8087 1.33594H41.7893V11.0249H51.8087V1.33594Z" fill="#FB2022"/>
<path d="M1.3939 52.3348V0.954228H52.1271V52.3348H1.3939Z" stroke="#0A0A0A" stroke-width="1.90846"/>
<path d="M8.61593 44.3802C8.61593 43.9393 8.49879 43.6249 8.26452 43.4371C8.0341 43.2492 7.70958 43.1553 7.29096 43.1553H5.63764V45.6511H7.29096C7.70958 45.6511 8.0341 45.5495 8.26452 45.3463C8.49879 45.1431 8.61593 44.8211 8.61593 44.3802ZM10.3729 44.3687C10.3729 45.3693 10.1195 46.0766 9.61253 46.4907C9.10559 46.9047 8.38166 47.1118 7.44074 47.1118H5.63764V50.1596H3.87486V41.6831H7.57324C8.42582 41.6831 9.10559 41.9016 9.61253 42.3387C10.1195 42.7757 10.3729 43.4524 10.3729 44.3687Z" fill="black"/>
<path d="M15.0334 47.1118C14.9297 47.1769 14.8241 47.2306 14.7165 47.2728C14.6128 47.3111 14.4688 47.3475 14.2845 47.382L13.9158 47.4511C13.5701 47.5124 13.3224 47.5872 13.1726 47.6753C12.9192 47.8249 12.7924 48.0568 12.7924 48.3712C12.7924 48.651 12.8693 48.8542 13.0229 48.9807C13.1803 49.1034 13.3704 49.1648 13.5932 49.1648C13.9465 49.1648 14.271 49.0613 14.5667 48.8542C14.8663 48.6472 15.0218 48.2696 15.0334 47.7213V47.1118ZM14.0368 46.3469C14.3402 46.3086 14.5571 46.2607 14.6877 46.2032C14.922 46.1035 15.0391 45.9482 15.0391 45.7373C15.0391 45.4805 14.9489 45.3041 14.7684 45.2083C14.5917 45.1086 14.3306 45.0588 13.9849 45.0588C13.597 45.0588 13.3224 45.1546 13.1611 45.3463C13.0459 45.4882 12.9691 45.6798 12.9307 45.9214H11.3465C11.3811 45.3731 11.5347 44.9227 11.8074 44.57C12.2413 44.0179 12.9864 43.7419 14.0425 43.7419C14.73 43.7419 15.3406 43.878 15.8744 44.1502C16.4082 44.4224 16.6752 44.9361 16.6752 45.6913V48.5667C16.6752 48.766 16.679 49.0076 16.6867 49.2913C16.6982 49.506 16.7308 49.6517 16.7846 49.7283C16.8384 49.805 16.919 49.8683 17.0266 49.9181V50.1596H15.2407C15.1908 50.0331 15.1563 49.9143 15.1371 49.8031C15.1178 49.6919 15.1025 49.5654 15.091 49.4235C14.8644 49.6689 14.6032 49.8779 14.3075 50.0504C13.9542 50.2536 13.5548 50.3552 13.1093 50.3552C12.5409 50.3552 12.0704 50.1941 11.6979 49.8721C11.3292 49.5462 11.1449 49.0862 11.1449 48.4919C11.1449 47.7213 11.4425 47.1635 12.0378 46.8185C12.3642 46.6306 12.8443 46.4964 13.478 46.4159L14.0368 46.3469Z" fill="black"/>
<path d="M19.8147 50.1596H18.1729V41.6831H19.8147V50.1596Z" fill="black"/>
<path d="M23.8991 45.076C23.5189 45.076 23.2232 45.1949 23.0119 45.4326C22.8046 45.6703 22.674 45.9923 22.6202 46.3987H25.1722C25.1453 45.9655 25.0128 45.6377 24.7747 45.4153C24.5404 45.1891 24.2486 45.076 23.8991 45.076ZM23.8991 43.7246C24.4214 43.7246 24.8919 43.8224 25.3105 44.0179C25.7291 44.2134 26.0747 44.522 26.3474 44.9438C26.5932 45.3156 26.7526 45.7469 26.8255 46.2377C26.8678 46.5252 26.8851 46.9392 26.8774 47.4798H22.5799C22.6029 48.1086 22.8007 48.5494 23.1732 48.8025C23.3998 48.9597 23.6725 49.0382 23.9913 49.0382C24.3292 49.0382 24.6038 48.9424 24.815 48.7507C24.9303 48.6472 25.032 48.5034 25.1204 48.3194H26.7967C26.7545 48.6913 26.5605 49.0689 26.2149 49.4523C25.6772 50.0619 24.9245 50.3667 23.9567 50.3667C23.1579 50.3667 22.4532 50.1098 21.8425 49.5961C21.2319 49.0823 20.9266 48.2466 20.9266 47.0888C20.9266 46.0038 21.2012 45.1719 21.7503 44.593C22.3034 44.0141 23.0196 43.7246 23.8991 43.7246Z" fill="black"/>
<path d="M27.344 45.1163V43.9489H28.2196V42.2007H29.8441V43.9489H30.8638V45.1163H29.8441V48.4287C29.8441 48.6855 29.8768 48.8466 29.9421 48.9117C30.0074 48.9731 30.2071 49.0037 30.5412 49.0037C30.5911 49.0037 30.643 49.0037 30.6967 49.0037C30.7543 48.9999 30.81 48.9961 30.8638 48.9922V50.2171L30.0861 50.2459C29.3103 50.2727 28.7803 50.1385 28.4961 49.8433C28.3118 49.6555 28.2196 49.366 28.2196 48.975V45.1163H27.344Z" fill="black"/>
<path d="M31.2728 45.1163V43.9489H32.1484V42.2007H33.7729V43.9489H34.7926V45.1163H33.7729V48.4287C33.7729 48.6855 33.8056 48.8466 33.8709 48.9117C33.9362 48.9731 34.1359 49.0037 34.47 49.0037C34.5199 49.0037 34.5718 49.0037 34.6255 49.0037C34.6831 48.9999 34.7388 48.9961 34.7926 48.9922V50.2171L34.0149 50.2459C33.2391 50.2727 32.7091 50.1385 32.4249 49.8433C32.2406 49.6555 32.1484 49.366 32.1484 48.975V45.1163H31.2728Z" fill="black"/>
<path d="M38.3239 45.076C37.9437 45.076 37.648 45.1949 37.4368 45.4326C37.2294 45.6703 37.0988 45.9923 37.045 46.3987H39.597C39.5701 45.9655 39.4376 45.6377 39.1995 45.4153C38.9653 45.1891 38.6734 45.076 38.3239 45.076ZM38.3239 43.7246C38.8462 43.7246 39.3167 43.8224 39.7353 44.0179C40.1539 44.2134 40.4995 44.522 40.7722 44.9438C41.018 45.3156 41.1774 45.7469 41.2504 46.2377C41.2926 46.5252 41.3099 46.9392 41.3022 47.4798H37.0047C37.0277 48.1086 37.2255 48.5494 37.5981 48.8025C37.8246 48.9597 38.0973 49.0382 38.4161 49.0382C38.754 49.0382 39.0286 48.9424 39.2399 48.7507C39.3551 48.6472 39.4568 48.5034 39.5452 48.3194H41.2215C41.1793 48.6913 40.9854 49.0689 40.6397 49.4523C40.102 50.0619 39.3493 50.3667 38.3815 50.3667C37.5827 50.3667 36.878 50.1098 36.2673 49.5961C35.6567 49.0823 35.3514 48.2466 35.3514 47.0888C35.3514 46.0038 35.626 45.1719 36.1752 44.593C36.7282 44.0141 37.4444 43.7246 38.3239 43.7246Z" fill="black"/>
</svg>
