<svg width="363" height="388" viewBox="0 0 363 388" fill="none" xmlns="http://www.w3.org/2000/svg">
<path d="M7.34721 380.828V7.0855H356.074V380.828H7.34721Z" fill="white" stroke="black" stroke-width="13.1183"/>
<path d="M78.4086 10.2256H9.53784V80.564H78.4086V10.2256Z" fill="#84D321"/>
<path d="M147.272 10.2256H78.4016V80.5641H147.272V10.2256Z" fill="#35A7FF"/>
<path d="M216.148 10.2256H147.277V80.5641H216.148V10.2256Z" fill="#FDE74C"/>
<path d="M285.018 10.2256H216.147V80.5641H285.018V10.2256Z" fill="#FA8426"/>
<path d="M353.888 10.2256H285.017V80.5641H353.888V10.2256Z" fill="#FB2022"/>
<path d="M7.34721 380.828V7.0855H356.074V380.828H7.34721Z" stroke="#0A0A0A" stroke-width="13.1183"/>
<path d="M56.9912 244.102C56.9912 241.071 56.1861 238.91 54.5758 237.619C52.9919 236.328 50.7612 235.682 47.8838 235.682H36.5192V252.837H47.8838C50.7612 252.837 52.9919 252.139 54.5758 250.742C56.1861 249.346 56.9912 247.132 56.9912 244.102ZM69.0685 244.022C69.0685 250.901 67.3262 255.763 63.8416 258.609C60.357 261.455 55.3809 262.878 48.9133 262.878H36.5192V283.828H24.4023V225.562H49.8241C55.6845 225.562 60.357 227.065 63.8416 230.069C67.3262 233.073 69.0685 237.724 69.0685 244.022Z" fill="black"/>
<path d="M101.103 262.878C100.39 263.326 99.6643 263.695 98.9252 263.985C98.2124 264.248 97.2225 264.498 95.9554 264.736L93.4211 265.21C91.0452 265.632 89.3425 266.145 88.313 266.752C86.5707 267.779 85.6996 269.374 85.6996 271.535C85.6996 273.458 86.2275 274.855 87.2835 275.725C88.3658 276.568 89.6725 276.99 91.2036 276.99C93.6323 276.99 95.863 276.278 97.8956 274.855C99.9547 273.432 101.024 270.836 101.103 267.068V262.878ZM94.2527 257.62C96.3381 257.357 97.8297 257.027 98.7272 256.632C100.338 255.947 101.143 254.88 101.143 253.43C101.143 251.665 100.522 250.453 99.2816 249.794C98.0672 249.109 96.2721 248.766 93.8963 248.766C91.23 248.766 89.3425 249.425 88.2338 250.742C87.4419 251.717 86.9139 253.035 86.6499 254.695H75.7605C75.9981 250.927 77.0541 247.83 78.9284 245.406C81.9114 241.611 87.0327 239.714 94.2923 239.714C99.0176 239.714 103.215 240.649 106.884 242.52C110.554 244.391 112.388 247.923 112.388 253.114V272.879C112.388 274.249 112.415 275.909 112.468 277.859C112.547 279.335 112.771 280.336 113.141 280.863C113.51 281.39 114.065 281.825 114.804 282.168V283.828H102.529C102.185 282.958 101.948 282.141 101.816 281.377C101.684 280.613 101.578 279.743 101.499 278.768C99.9415 280.455 98.1464 281.891 96.1138 283.077C93.6851 284.474 90.9397 285.172 87.8774 285.172C83.9705 285.172 80.7367 284.065 78.176 281.852C75.6418 279.612 74.3746 276.449 74.3746 272.365C74.3746 267.068 76.4205 263.234 80.5123 260.862C82.7561 259.57 86.0559 258.648 90.4117 258.095L94.2527 257.62Z" fill="black"/>
<path d="M133.969 283.828H122.684V225.562H133.969V283.828Z" fill="black"/>
<path d="M162.044 248.885C159.43 248.885 157.398 249.701 155.946 251.335C154.52 252.969 153.623 255.183 153.253 257.976H170.795C170.61 254.998 169.699 252.745 168.063 251.217C166.452 249.662 164.446 248.885 162.044 248.885ZM162.044 239.595C165.634 239.595 168.868 240.267 171.745 241.611C174.623 242.955 176.999 245.077 178.873 247.975C180.562 250.532 181.658 253.496 182.16 256.869C182.45 258.846 182.569 261.692 182.516 265.408H152.976C153.134 269.729 154.494 272.76 157.055 274.499C158.612 275.58 160.486 276.12 162.677 276.12C165.001 276.12 166.888 275.461 168.34 274.143C169.132 273.432 169.831 272.444 170.439 271.179H181.962C181.671 273.735 180.338 276.331 177.962 278.966C174.266 283.156 169.092 285.251 162.44 285.251C156.949 285.251 152.105 283.485 147.908 279.954C143.71 276.423 141.611 270.678 141.611 262.72C141.611 255.262 143.499 249.543 147.274 245.564C151.075 241.585 155.999 239.595 162.044 239.595Z" fill="black"/>
<path d="M185.723 249.161V241.137H191.742V229.12H202.909V241.137H209.917V249.161H202.909V271.93C202.909 273.695 203.133 274.802 203.582 275.25C204.031 275.672 205.403 275.883 207.7 275.883C208.043 275.883 208.4 275.883 208.769 275.883C209.165 275.856 209.548 275.83 209.917 275.804V284.223L204.572 284.421C199.239 284.605 195.596 283.683 193.643 281.654C192.376 280.363 191.742 278.373 191.742 275.685V249.161H185.723Z" fill="black"/>
<path d="M212.729 249.161V241.137H218.748V229.12H229.914V241.137H236.923V249.161H229.914V271.93C229.914 273.695 230.139 274.802 230.587 275.25C231.036 275.672 232.409 275.883 234.706 275.883C235.049 275.883 235.405 275.883 235.775 275.883C236.171 275.856 236.554 275.83 236.923 275.804V284.223L231.577 284.421C226.245 284.605 222.602 283.683 220.648 281.654C219.381 280.363 218.748 278.373 218.748 275.685V249.161H212.729Z" fill="black"/>
<path d="M261.197 248.885C258.583 248.885 256.55 249.701 255.098 251.335C253.673 252.969 252.775 255.183 252.406 257.976H269.948C269.763 254.998 268.852 252.745 267.215 251.217C265.605 249.662 263.599 248.885 261.197 248.885ZM261.197 239.595C264.787 239.595 268.021 240.267 270.898 241.611C273.775 242.955 276.151 245.077 278.026 247.975C279.715 250.532 280.811 253.496 281.312 256.869C281.603 258.846 281.721 261.692 281.669 265.408H252.129C252.287 269.729 253.647 272.76 256.207 274.499C257.765 275.58 259.639 276.12 261.83 276.12C264.153 276.12 266.041 275.461 267.493 274.143C268.284 273.432 268.984 272.444 269.591 271.179H281.114C280.824 273.735 279.491 276.331 277.115 278.966C273.419 283.156 268.245 285.251 261.592 285.251C256.102 285.251 251.257 283.485 247.06 279.954C242.863 276.423 240.764 270.678 240.764 262.72C240.764 255.262 242.652 249.543 246.427 245.564C250.228 241.585 255.151 239.595 261.197 239.595Z" fill="black"/>
</svg>
