<svg width="57" height="55" viewBox="0 0 57 55" fill="none" xmlns="http://www.w3.org/2000/svg">
<path d="M1.66877 53.4786V1.52131H55.6569V53.4786H1.66877Z" fill="white" stroke="#0A0A0A" stroke-width="2.0309"/>
<path d="M12.67 1.85938H2.00781V11.6754H12.67V1.85938Z" fill="#84D321"/>
<path d="M23.3312 1.85938H12.6689V11.6754H23.3312V1.85938Z" fill="#35A7FF"/>
<path d="M33.9943 1.85938H23.332V11.6754H33.9943V1.85938Z" fill="#F0DB49"/>
<path d="M44.6564 1.85938H33.9941V11.6754H44.6564V1.85938Z" fill="#FA8426"/>
<path d="M55.3185 1.85938H44.6562V11.6754H55.3185V1.85938Z" fill="#FB2022"/>
<path d="M1.66877 53.4786V1.52131H55.6569V53.4786H1.66877Z" stroke="#0A0A0A" stroke-width="2.0309"/>
<path d="M8.88998 45.0684C8.88998 44.5992 8.76533 44.2646 8.51603 44.0647C8.27081 43.8648 7.92547 43.7649 7.48 43.7649H5.7206V46.4208H7.48C7.92547 46.4208 8.27081 46.3127 8.51603 46.0965C8.76533 45.8802 8.88998 45.5375 8.88998 45.0684ZM10.7597 45.0561C10.7597 46.1209 10.49 46.8737 9.95052 47.3143C9.41105 47.7549 8.64068 47.9752 7.63939 47.9752H5.7206V51.2186H3.84473V42.1982H7.78039C8.68768 42.1982 9.41105 42.4308 9.95052 42.8959C10.49 43.361 10.7597 44.0811 10.7597 45.0561Z" fill="#0A0A0A"/>
<path d="M15.7191 47.9752C15.6088 48.0446 15.4964 48.1017 15.382 48.1466C15.2716 48.1874 15.1184 48.2261 14.9222 48.2628L14.5299 48.3363C14.162 48.4015 13.8984 48.4811 13.7391 48.5749C13.4693 48.734 13.3345 48.9809 13.3345 49.3154C13.3345 49.6132 13.4162 49.8295 13.5797 49.9641C13.7472 50.0946 13.9495 50.1599 14.1866 50.1599C14.5626 50.1599 14.9079 50.0498 15.2226 49.8295C15.5414 49.6092 15.7069 49.2073 15.7191 48.6239V47.9752ZM14.6586 47.1613C14.9815 47.1205 15.2124 47.0695 15.3513 47.0083C15.6006 46.9022 15.7253 46.737 15.7253 46.5126C15.7253 46.2393 15.6292 46.0516 15.4372 45.9496C15.2492 45.8435 14.9712 45.7905 14.6034 45.7905C14.1907 45.7905 13.8984 45.8925 13.7268 46.0965C13.6042 46.2474 13.5225 46.4514 13.4816 46.7084H11.7957C11.8325 46.125 11.996 45.6457 12.2862 45.2703C12.748 44.6828 13.5408 44.3891 14.6647 44.3891C15.3963 44.3891 16.0461 44.5339 16.6142 44.8236C17.1823 45.1132 17.4663 45.6599 17.4663 46.4636V49.5235C17.4663 49.7356 17.4704 49.9927 17.4785 50.2946C17.4908 50.523 17.5255 50.6781 17.5828 50.7596C17.64 50.8412 17.7258 50.9086 17.8402 50.9616V51.2186H15.9398C15.8867 51.084 15.8499 50.9575 15.8295 50.8392C15.8091 50.7209 15.7927 50.5863 15.7805 50.4353C15.5393 50.6964 15.2614 50.9188 14.9467 51.1023C14.5707 51.3186 14.1457 51.4267 13.6716 51.4267C13.0668 51.4267 12.5661 51.2553 12.1697 50.9126C11.7774 50.5659 11.5812 50.0763 11.5812 49.4439C11.5812 48.6239 11.8979 48.0303 12.5314 47.6631C12.8788 47.4632 13.3896 47.3204 14.064 47.2347L14.6586 47.1613Z" fill="#0A0A0A"/>
<path d="M20.8073 51.2186H19.0602V42.1982H20.8073V51.2186Z" fill="#0A0A0A"/>
<path d="M25.1537 45.8088C24.7491 45.8088 24.4344 45.9353 24.2096 46.1883C23.9889 46.4412 23.85 46.7839 23.7928 47.2164H26.5085C26.4799 46.7553 26.3389 46.4065 26.0855 46.1699C25.8362 45.9292 25.5256 45.8088 25.1537 45.8088ZM25.1537 44.3707C25.7095 44.3707 26.2102 44.4748 26.6556 44.6828C27.1011 44.8909 27.4689 45.2193 27.7591 45.6681C28.0206 46.0638 28.1903 46.5228 28.2679 47.045C28.3129 47.351 28.3313 47.7916 28.3231 48.3669H23.7499C23.7744 49.0359 23.9849 49.5051 24.3813 49.7744C24.6224 49.9417 24.9126 50.0253 25.2518 50.0253C25.6114 50.0253 25.9036 49.9233 26.1284 49.7193C26.251 49.6092 26.3593 49.4562 26.4533 49.2603H28.2373C28.1923 49.6561 27.9859 50.0579 27.6181 50.4659C27.0459 51.1146 26.2449 51.4389 25.215 51.4389C24.3649 51.4389 23.615 51.1656 22.9652 50.6189C22.3154 50.0722 21.9905 49.1828 21.9905 47.9507C21.9905 46.7961 22.2827 45.9108 22.8671 45.2948C23.4556 44.6787 24.2178 44.3707 25.1537 44.3707Z" fill="#0A0A0A"/>
<path d="M28.8196 45.8517V44.6094H29.7514V42.749H31.4802V44.6094H32.5653V45.8517H31.4802V49.3766C31.4802 49.6499 31.5149 49.8213 31.5844 49.8907C31.6539 49.9559 31.8664 49.9886 32.222 49.9886C32.2751 49.9886 32.3303 49.9886 32.3875 49.9886C32.4488 49.9845 32.508 49.9804 32.5653 49.9763V51.2798L31.7377 51.3104C30.9121 51.339 30.3481 51.1962 30.0457 50.882C29.8495 50.6821 29.7514 50.3741 29.7514 49.958V45.8517H28.8196Z" fill="#0A0A0A"/>
<path d="M33.0005 45.8517V44.6094H33.9323V42.749H35.6611V44.6094H36.7461V45.8517H35.6611V49.3766C35.6611 49.6499 35.6958 49.8213 35.7653 49.8907C35.8348 49.9559 36.0473 49.9886 36.4028 49.9886C36.456 49.9886 36.5111 49.9886 36.5684 49.9886C36.6297 49.9845 36.6889 49.9804 36.7461 49.9763V51.2798L35.9185 51.3104C35.093 51.339 34.529 51.1962 34.2266 50.882C34.0304 50.6821 33.9323 50.3741 33.9323 49.958V45.8517H33.0005Z" fill="#0A0A0A"/>
<path d="M40.504 45.8088C40.0994 45.8088 39.7847 45.9353 39.5599 46.1883C39.3393 46.4412 39.2003 46.7839 39.1431 47.2164H41.8588C41.8302 46.7553 41.6892 46.4065 41.4358 46.1699C41.1865 45.9292 40.8759 45.8088 40.504 45.8088ZM40.504 44.3707C41.0598 44.3707 41.5605 44.4748 42.0059 44.6828C42.4514 44.8909 42.8192 45.2193 43.1094 45.6681C43.371 46.0638 43.5406 46.5228 43.6182 47.045C43.6632 47.351 43.6816 47.7916 43.6734 48.3669H39.1002C39.1247 49.0359 39.3352 49.5051 39.7316 49.7744C39.9727 49.9417 40.2629 50.0253 40.6021 50.0253C40.9617 50.0253 41.254 49.9233 41.4787 49.7193C41.6013 49.6092 41.7096 49.4562 41.8036 49.2603H43.5876C43.5426 49.6561 43.3362 50.0579 42.9684 50.4659C42.3962 51.1146 41.5952 51.4389 40.5653 51.4389C39.7152 51.4389 38.9653 51.1656 38.3155 50.6189C37.6657 50.0722 37.3408 49.1828 37.3408 47.9507C37.3408 46.7961 37.633 45.9108 38.2174 45.2948C38.8059 44.6787 39.5681 44.3707 40.504 44.3707Z" fill="#0A0A0A"/>
</svg>
