<svg width="26" height="24" viewBox="0 0 26 24" fill="none" xmlns="http://www.w3.org/2000/svg">
<path d="M23.6434 16.7667V19.6263C23.6446 19.8918 23.5844 20.1546 23.4668 20.3978C23.3492 20.6411 23.1767 20.8594 22.9603 21.0389C22.744 21.2184 22.4886 21.355 22.2105 21.44C21.9324 21.5251 21.6377 21.5567 21.3453 21.5328C18.1014 21.2141 14.9854 20.2118 12.2478 18.6064C9.7007 17.1429 7.54123 15.1902 5.92272 12.887C4.14115 10.4003 3.03244 7.56897 2.68641 4.62256C2.66007 4.35896 2.69471 4.09329 2.78814 3.84246C2.88157 3.59163 3.03173 3.36114 3.22907 3.16567C3.4264 2.97019 3.66659 2.81401 3.93433 2.70707C4.20208 2.60013 4.49152 2.54478 4.78422 2.54453H7.94673C8.45833 2.53997 8.9543 2.70379 9.34221 3.00544C9.73011 3.30709 9.98348 3.726 10.0551 4.18407C10.1886 5.09923 10.4361 5.9978 10.793 6.86264C10.9348 7.20382 10.9655 7.57462 10.8815 7.93109C10.7974 8.28756 10.6021 8.61477 10.3186 8.87395L8.97982 10.0845C10.4805 12.471 12.6657 14.4469 15.3049 15.8039L16.6437 14.5933C16.9303 14.337 17.2921 14.1604 17.6864 14.0844C18.0806 14.0083 18.4906 14.0361 18.868 14.1643C19.8244 14.4871 20.8181 14.7109 21.8302 14.8316C22.3423 14.8969 22.8099 15.1302 23.1442 15.4869C23.4786 15.8437 23.6562 16.2992 23.6434 16.7667Z" stroke="white" stroke-width="1.68668" stroke-linecap="round" stroke-linejoin="round"/>
</svg>
