<svg width="25" height="24" viewBox="0 0 25 24" fill="none" xmlns="http://www.w3.org/2000/svg">
<path d="M4.03851 3.76929H20.9612V20.2304H4.03851V3.76929Z" fill="#0C0824"/>
<path d="M4.03868 3.76945H20.9613V20.2305H4.03868V3.76945ZM3.26923 21H21.7308V3H3.26923V21ZM15.7156 10.3846C15.1077 10.3846 14.9 10.6925 14.9 10.9464C14.9 11.2233 15.0385 11.4158 15.8541 11.8385C17.062 12.4233 17.4365 12.9844 17.4365 13.8079C17.4365 15.0389 16.4982 15.7002 15.229 15.7002C14.6843 15.7204 14.1429 15.6072 13.6519 15.3705C13.5978 15.3475 13.5905 15.3092 13.5905 15.2473V14.1152C13.5905 14.038 13.6288 14.0149 13.6829 14.0538C14.144 14.3504 14.6808 14.5079 15.229 14.5075C15.8369 14.5075 16.0908 14.2536 16.0908 13.9075C16.0908 13.6305 15.9141 13.3846 15.1367 12.9844C14.0442 12.4615 13.5905 11.9295 13.5905 11.0459C13.5905 10.0536 14.3672 9.23077 15.7136 9.23077C16.1823 9.21064 16.6503 9.28393 17.0903 9.44637C17.1157 9.46282 17.1362 9.48573 17.1497 9.51273C17.1633 9.53973 17.1694 9.56985 17.1675 9.6V10.6549C17.1675 10.7163 17.1292 10.7552 17.0521 10.7321C16.6454 10.498 16.1828 10.3783 15.7136 10.3859L15.7156 10.3846ZM9.09978 11.2998C9.27648 11.3149 9.41494 11.3149 9.72285 11.3149C10.6229 11.3149 11.4688 10.9998 11.4688 9.7767C11.4688 8.79956 10.8609 8.30769 9.83824 8.30769C9.53033 8.30769 9.23824 8.32286 9.09978 8.33077V11.2998ZM7.73032 7.21187C7.73032 7.1578 7.8378 7.11956 7.89978 7.11956C8.56096 7.09254 9.22265 7.07979 9.88439 7.08132C12.0154 7.08132 12.8461 8.25033 12.8461 9.74308C12.8461 11.6967 11.4305 12.5354 9.69252 12.5354C9.40043 12.5354 9.30022 12.5202 9.09252 12.5202V15.4741C9.09252 15.5354 9.06945 15.5664 9.00022 15.5664H7.82329C7.76197 15.5664 7.73098 15.5433 7.73098 15.4741V7.21517L7.73032 7.21187Z" fill="#31C5F0"/>
</svg>
