<svg width="1440" height="780" viewBox="0 0 1440 780" fill="none" xmlns="http://www.w3.org/2000/svg">
<g clip-path="url(#clip0)">
<rect width="1440" height="780" fill="black"/>
<path d="M-36.2651 413.416L-35.9457 439.24C-35.9457 439.24 -21.2611 459.569 18.234 459.08C57.7292 458.592 77.9827 437.831 77.9827 437.831L79.1823 411.988" stroke="white" stroke-opacity="0.3" stroke-width="1.20699"/>
<path d="M78.6123 413.502C78.712 421.556 72.5904 429.069 62.287 434.656C52.0112 440.228 37.7226 443.79 21.8604 443.986C5.99823 444.183 -8.3742 440.975 -18.7846 435.659C-29.223 430.329 -35.5286 422.969 -35.6282 414.915C-35.7278 406.861 -29.6062 399.348 -19.3028 393.762C-9.02708 388.19 5.26161 384.628 21.1238 384.431C36.9859 384.235 51.3584 387.443 61.7688 392.759C72.2072 398.089 78.5127 405.448 78.6123 413.502Z" stroke="white" stroke-opacity="0.3" stroke-width="1.20699"/>
<path d="M-36.2651 525.808L-35.9457 551.631C-35.9457 551.631 -21.2611 571.96 18.234 571.471C57.7292 570.983 77.9827 550.222 77.9827 550.222L79.1823 524.38" stroke="white" stroke-opacity="0.3" stroke-width="1.20699"/>
<path d="M78.6123 525.895C78.712 533.948 72.5904 541.462 62.287 547.048C52.0112 552.62 37.7226 556.182 21.8604 556.378C5.99823 556.575 -8.3742 553.367 -18.7846 548.051C-29.223 542.721 -35.5286 535.361 -35.6282 527.308C-35.7278 519.254 -29.6062 511.741 -19.3028 506.154C-9.02708 500.582 5.26161 497.02 21.1238 496.824C36.9859 496.627 51.3584 499.835 61.7688 505.151C72.2072 510.481 78.5127 517.841 78.6123 525.895Z" stroke="white" stroke-opacity="0.3" stroke-width="1.20699"/>
<path d="M-36.2651 638.199L-35.9457 664.023C-35.9457 664.023 -21.2611 684.352 18.234 683.863C57.7292 683.375 77.9827 662.614 77.9827 662.614L79.1823 636.771" stroke="white" stroke-opacity="0.3" stroke-width="1.20699"/>
<path d="M78.6123 638.287C78.712 646.341 72.5904 653.854 62.287 659.441C52.0112 665.012 37.7226 668.575 21.8604 668.771C5.99823 668.967 -8.3742 665.759 -18.7846 660.444C-29.223 655.113 -35.5286 647.754 -35.6282 639.7C-35.7278 631.646 -29.6062 624.133 -19.3028 618.546C-9.02708 612.975 5.26161 609.412 21.1238 609.216C36.9859 609.02 51.3584 612.228 61.7688 617.544C72.2072 622.874 78.5127 630.233 78.6123 638.287Z" stroke="white" stroke-opacity="0.3" stroke-width="1.20699"/>
<path d="M-36.2651 750.592L-35.9457 776.416C-35.9457 776.416 -21.2611 796.744 18.234 796.256C57.7292 795.767 77.9827 775.007 77.9827 775.007L79.1823 749.164" stroke="white" stroke-opacity="0.3" stroke-width="1.20699"/>
<path d="M78.6123 750.678C78.712 758.732 72.5904 766.245 62.287 771.832C52.0112 777.404 37.7226 780.966 21.8604 781.162C5.99823 781.359 -8.3742 778.151 -18.7846 772.835C-29.223 767.505 -35.5286 760.145 -35.6282 752.091C-35.7278 744.038 -29.6062 736.524 -19.3028 730.938C-9.02708 725.366 5.26161 721.804 21.1238 721.607C36.9859 721.411 51.3584 724.619 61.7688 729.935C72.2072 735.265 78.5127 742.624 78.6123 750.678Z" stroke="white" stroke-opacity="0.3" stroke-width="1.20699"/>
<path d="M107.632 413.741L107.952 439.565C107.952 439.565 122.636 459.893 162.131 459.405C201.627 458.916 221.88 438.155 221.88 438.155L223.08 412.313" stroke="white" stroke-opacity="0.3" stroke-width="1.20699"/>
<path d="M222.508 413.827C222.608 421.881 216.486 429.394 206.183 434.981C195.907 440.553 181.619 444.115 165.756 444.311C149.894 444.507 135.522 441.299 125.111 435.984C114.673 430.654 108.367 423.294 108.268 415.24C108.168 407.186 114.29 399.673 124.593 394.087C134.869 388.515 149.158 384.952 165.02 384.756C180.882 384.56 195.254 387.768 205.665 393.084C216.103 398.414 222.409 405.773 222.508 413.827Z" stroke="white" stroke-opacity="0.3" stroke-width="1.20699"/>
<path d="M107.631 526.134L107.951 551.958C107.951 551.958 122.635 572.286 162.131 571.798C201.626 571.309 221.879 550.549 221.879 550.549L223.079 524.706" stroke="white" stroke-opacity="0.3" stroke-width="1.20699"/>
<path d="M222.506 526.22C222.606 534.274 216.484 541.787 206.181 547.373C195.905 552.945 181.617 556.507 165.754 556.704C149.892 556.9 135.52 553.692 125.109 548.376C114.671 543.046 108.365 535.687 108.266 527.633C108.166 519.579 114.288 512.066 124.591 506.479C134.867 500.907 149.156 497.345 165.018 497.149C180.88 496.952 195.252 500.16 205.663 505.476C216.101 510.806 222.407 518.166 222.506 526.22Z" stroke="white" stroke-opacity="0.3" stroke-width="1.20699"/>
<path d="M107.632 638.526L107.952 664.349C107.952 664.349 122.636 684.678 162.131 684.189C201.627 683.701 221.88 662.94 221.88 662.94L223.08 637.098" stroke="white" stroke-opacity="0.3" stroke-width="1.20699"/>
<path d="M222.508 638.612C222.608 646.666 216.486 654.179 206.183 659.766C195.907 665.337 181.619 668.9 165.756 669.096C149.894 669.292 135.522 666.084 125.111 660.768C114.673 655.438 108.367 648.079 108.268 640.025C108.168 631.971 114.29 624.458 124.593 618.871C134.869 613.3 149.158 609.737 165.02 609.541C180.882 609.345 195.254 612.553 205.665 617.869C216.103 623.199 222.409 630.558 222.508 638.612Z" stroke="white" stroke-opacity="0.3" stroke-width="1.20699"/>
<path d="M107.631 750.918L107.951 776.742C107.951 776.742 122.635 797.071 162.131 796.582C201.626 796.094 221.879 775.333 221.879 775.333L223.079 749.491" stroke="white" stroke-opacity="0.3" stroke-width="1.20699"/>
<path d="M222.507 751.004C222.607 759.058 216.485 766.571 206.182 772.158C195.906 777.73 181.618 781.292 165.755 781.488C149.893 781.684 135.521 778.476 125.11 773.161C114.672 767.831 108.366 760.471 108.267 752.417C108.167 744.363 114.289 736.85 124.592 731.264C134.868 725.692 149.157 722.129 165.019 721.933C180.881 721.737 195.253 724.945 205.664 730.261C216.102 735.591 222.408 742.95 222.507 751.004Z" stroke="white" stroke-opacity="0.3" stroke-width="1.20699"/>
<path d="M539.331 413.559L539.65 439.383C539.65 439.383 554.335 459.712 593.83 459.223C633.325 458.735 653.579 437.974 653.579 437.974L654.779 412.131" stroke="white" stroke-opacity="0.3" stroke-width="1.20699"/>
<path d="M654.21 413.646C654.309 421.7 648.188 429.213 637.884 434.799C627.608 440.371 613.32 443.934 597.458 444.13C581.595 444.326 567.223 441.118 556.813 435.802C546.374 430.472 540.069 423.113 539.969 415.059C539.869 407.005 545.991 399.492 556.294 393.905C566.57 388.333 580.859 384.771 596.721 384.575C612.583 384.379 626.956 387.587 637.366 392.902C647.804 398.232 654.11 405.592 654.21 413.646Z" stroke="white" stroke-opacity="0.3" stroke-width="1.20699"/>
<path d="M539.331 525.951L539.65 551.775C539.65 551.775 554.335 572.104 593.83 571.615C633.325 571.127 653.579 550.366 653.579 550.366L654.779 524.523" stroke="white" stroke-opacity="0.3" stroke-width="1.20699"/>
<path d="M654.209 526.039C654.308 534.093 648.187 541.606 637.883 547.192C627.607 552.764 613.319 556.326 597.457 556.523C581.594 556.719 567.222 553.511 556.812 548.195C546.373 542.865 540.068 535.506 539.968 527.452C539.868 519.398 545.99 511.885 556.293 506.298C566.569 500.726 580.858 497.164 596.72 496.968C612.582 496.772 626.955 499.979 637.365 505.295C647.803 510.625 654.109 517.985 654.209 526.039Z" stroke="white" stroke-opacity="0.3" stroke-width="1.20699"/>
<path d="M539.331 638.344L539.65 664.168C539.65 664.168 554.335 684.497 593.83 684.008C633.325 683.52 653.579 662.759 653.579 662.759L654.779 636.917" stroke="white" stroke-opacity="0.3" stroke-width="1.20699"/>
<path d="M654.21 638.431C654.309 646.485 648.188 653.998 637.884 659.584C627.608 665.156 613.32 668.718 597.458 668.915C581.595 669.111 567.223 665.903 556.813 660.587C546.374 655.257 540.069 647.898 539.969 639.844C539.869 631.79 545.991 624.277 556.294 618.69C566.57 613.118 580.859 609.556 596.721 609.36C612.583 609.163 626.956 612.371 637.366 617.687C647.804 623.017 654.11 630.377 654.21 638.431Z" stroke="white" stroke-opacity="0.3" stroke-width="1.20699"/>
<path d="M539.331 750.736L539.65 776.56C539.65 776.56 554.335 796.889 593.83 796.4C633.325 795.912 653.579 775.151 653.579 775.151L654.779 749.308" stroke="white" stroke-opacity="0.3" stroke-width="1.20699"/>
<path d="M654.209 750.824C654.308 758.878 648.187 766.391 637.883 771.978C627.607 777.549 613.319 781.112 597.457 781.308C581.594 781.504 567.222 778.296 556.812 772.98C546.373 767.65 540.068 760.291 539.968 752.237C539.868 744.183 545.99 736.67 556.293 731.083C566.569 725.512 580.858 721.949 596.72 721.753C612.582 721.557 626.955 724.765 637.365 730.08C647.803 735.411 654.109 742.77 654.209 750.824Z" stroke="white" stroke-opacity="0.3" stroke-width="1.20699"/>
<path d="M683.23 413.885L683.549 439.709C683.549 439.709 698.234 460.038 737.729 459.549C777.224 459.061 797.478 438.3 797.478 438.3L798.677 412.457" stroke="white" stroke-opacity="0.3" stroke-width="1.20699"/>
<path d="M798.106 413.972C798.205 422.025 792.084 429.539 781.78 435.125C771.504 440.697 757.216 444.259 741.354 444.456C725.491 444.652 711.119 441.444 700.709 436.128C690.27 430.798 683.965 423.439 683.865 415.385C683.765 407.331 689.887 399.818 700.19 394.231C710.466 388.659 724.755 385.097 740.617 384.901C756.479 384.704 770.852 387.912 781.262 393.228C791.7 398.558 798.006 405.918 798.106 413.972Z" stroke="white" stroke-opacity="0.3" stroke-width="1.20699"/>
<path d="M683.229 526.277L683.549 552.101C683.549 552.101 698.233 572.43 737.729 571.941C777.224 571.453 797.477 550.692 797.477 550.692L798.677 524.85" stroke="white" stroke-opacity="0.3" stroke-width="1.20699"/>
<path d="M798.104 526.364C798.204 534.418 792.082 541.931 781.779 547.517C771.503 553.089 757.214 556.651 741.352 556.848C725.49 557.044 711.117 553.836 700.707 548.52C690.269 543.19 683.963 535.831 683.864 527.777C683.764 519.723 689.885 512.21 700.189 506.623C710.465 501.051 724.753 497.489 740.615 497.293C756.478 497.096 770.85 500.304 781.26 505.62C791.699 510.95 798.004 518.31 798.104 526.364Z" stroke="white" stroke-opacity="0.3" stroke-width="1.20699"/>
<path d="M683.229 638.67L683.549 664.494C683.549 664.494 698.233 684.823 737.729 684.334C777.224 683.846 797.477 663.085 797.477 663.085L798.677 637.242" stroke="white" stroke-opacity="0.3" stroke-width="1.20699"/>
<path d="M798.104 638.756C798.204 646.81 792.082 654.323 781.779 659.91C771.503 665.482 757.214 669.044 741.352 669.24C725.49 669.437 711.117 666.229 700.707 660.913C690.269 655.583 683.963 648.223 683.864 640.169C683.764 632.116 689.885 624.602 700.189 619.016C710.465 613.444 724.753 609.882 740.615 609.685C756.478 609.489 770.85 612.697 781.26 618.013C791.699 623.343 798.004 630.702 798.104 638.756Z" stroke="white" stroke-opacity="0.3" stroke-width="1.20699"/>
<path d="M683.229 751.062L683.549 776.886C683.549 776.886 698.233 797.215 737.729 796.726C777.224 796.238 797.477 775.477 797.477 775.477L798.677 749.635" stroke="white" stroke-opacity="0.3" stroke-width="1.20699"/>
<path d="M798.105 751.148C798.204 759.202 792.083 766.715 781.779 772.302C771.503 777.873 757.215 781.436 741.353 781.632C725.49 781.828 711.118 778.62 700.708 773.304C690.269 767.974 683.964 760.615 683.864 752.561C683.764 744.507 689.886 736.994 700.189 731.407C710.465 725.836 724.754 722.273 740.616 722.077C756.478 721.881 770.851 725.089 781.261 730.405C791.699 735.735 798.005 743.094 798.105 751.148Z" stroke="white" stroke-opacity="0.3" stroke-width="1.20699"/>
<path d="M251.531 413.561L251.851 439.384C251.851 439.384 266.535 459.713 306.03 459.224C345.526 458.736 365.779 437.975 365.779 437.975L366.979 412.133" stroke="white" stroke-opacity="0.3" stroke-width="1.20699"/>
<path d="M366.409 413.647C366.508 421.701 360.387 429.214 350.083 434.801C339.808 440.372 325.519 443.935 309.657 444.131C293.795 444.327 279.422 441.119 269.012 435.803C258.573 430.473 252.268 423.114 252.168 415.06C252.069 407.006 258.19 399.493 268.494 393.906C278.769 388.335 293.058 384.772 308.92 384.576C324.782 384.38 339.155 387.588 349.565 392.903C360.004 398.234 366.309 405.593 366.409 413.647Z" stroke="white" stroke-opacity="0.3" stroke-width="1.20699"/>
<path d="M251.531 525.952L251.851 551.776C251.851 551.776 266.535 572.105 306.03 571.616C345.526 571.128 365.779 550.367 365.779 550.367L366.979 524.524" stroke="white" stroke-opacity="0.3" stroke-width="1.20699"/>
<path d="M366.409 526.039C366.508 534.093 360.387 541.606 350.083 547.192C339.808 552.764 325.519 556.326 309.657 556.523C293.795 556.719 279.422 553.511 269.012 548.195C258.573 542.865 252.268 535.506 252.168 527.452C252.069 519.398 258.19 511.885 268.494 506.298C278.769 500.726 293.058 497.164 308.92 496.968C324.782 496.772 339.155 499.979 349.565 505.295C360.004 510.625 366.309 517.985 366.409 526.039Z" stroke="white" stroke-opacity="0.3" stroke-width="1.20699"/>
<path d="M251.531 638.345L251.851 664.169C251.851 664.169 266.535 684.497 306.03 684.009C345.526 683.52 365.779 662.759 365.779 662.759L366.979 636.917" stroke="white" stroke-opacity="0.3" stroke-width="1.20699"/>
<path d="M366.405 638.431C366.505 646.485 360.383 653.998 350.08 659.585C339.804 665.156 325.516 668.719 309.653 668.915C293.791 669.111 279.419 665.903 269.008 660.587C258.57 655.257 252.264 647.898 252.165 639.844C252.065 631.79 258.187 624.277 268.49 618.69C278.766 613.119 293.055 609.556 308.917 609.36C324.779 609.164 339.151 612.372 349.562 617.687C360 623.018 366.306 630.377 366.405 638.431Z" stroke="white" stroke-opacity="0.3" stroke-width="1.20699"/>
<path d="M251.531 750.737L251.85 776.561C251.85 776.561 266.535 796.889 306.03 796.401C345.525 795.912 365.779 775.152 365.779 775.152L366.978 749.309" stroke="white" stroke-opacity="0.3" stroke-width="1.20699"/>
<path d="M366.409 750.824C366.508 758.878 360.387 766.391 350.083 771.978C339.808 777.549 325.519 781.112 309.657 781.308C293.795 781.504 279.422 778.296 269.012 772.98C258.573 767.65 252.268 760.291 252.168 752.237C252.069 744.183 258.19 736.67 268.494 731.083C278.769 725.512 293.058 721.949 308.92 721.753C324.782 721.557 339.155 724.765 349.565 730.081C360.004 735.411 366.309 742.77 366.409 750.824Z" stroke="white" stroke-opacity="0.3" stroke-width="1.20699"/>
<path d="M395.431 413.885L395.75 439.709C395.75 439.709 410.435 460.038 449.93 459.549C489.425 459.061 509.678 438.3 509.678 438.3L510.878 412.458" stroke="white" stroke-opacity="0.3" stroke-width="1.20699"/>
<path d="M510.308 413.972C510.407 422.026 504.286 429.539 493.982 435.125C483.707 440.697 469.418 444.26 453.556 444.456C437.694 444.652 423.321 441.444 412.911 436.128C402.472 430.798 396.167 423.439 396.067 415.385C395.967 407.331 402.089 399.818 412.392 394.231C422.668 388.659 436.957 385.097 452.819 384.901C468.681 384.705 483.054 387.913 493.464 393.228C503.903 398.558 510.208 405.918 510.308 413.972Z" stroke="white" stroke-opacity="0.3" stroke-width="1.20699"/>
<path d="M395.431 526.277L395.75 552.101C395.75 552.101 410.435 572.429 449.93 571.941C489.425 571.452 509.678 550.692 509.678 550.692L510.878 524.849" stroke="white" stroke-opacity="0.3" stroke-width="1.20699"/>
<path d="M510.309 526.364C510.409 534.418 504.287 541.931 493.984 547.518C483.708 553.089 469.419 556.652 453.557 556.848C437.695 557.044 423.323 553.836 412.912 548.52C402.474 543.19 396.168 535.831 396.069 527.777C395.969 519.723 402.091 512.21 412.394 506.623C422.67 501.052 436.958 497.489 452.821 497.293C468.683 497.097 483.055 500.305 493.466 505.62C503.904 510.951 510.21 518.31 510.309 526.364Z" stroke="white" stroke-opacity="0.3" stroke-width="1.20699"/>
<path d="M395.431 638.67L395.75 664.494C395.75 664.494 410.435 684.823 449.93 684.334C489.425 683.846 509.678 663.085 509.678 663.085L510.878 637.242" stroke="white" stroke-opacity="0.3" stroke-width="1.20699"/>
<path d="M510.308 638.756C510.407 646.81 504.286 654.323 493.982 659.91C483.707 665.482 469.418 669.044 453.556 669.24C437.694 669.436 423.321 666.229 412.911 660.913C402.472 655.583 396.167 648.223 396.067 640.169C395.967 632.115 402.089 624.602 412.392 619.016C422.668 613.444 436.957 609.882 452.819 609.685C468.681 609.489 483.054 612.697 493.464 618.013C503.903 623.343 510.208 630.702 510.308 638.756Z" stroke="white" stroke-opacity="0.3" stroke-width="1.20699"/>
<path d="M395.431 751.062L395.75 776.885C395.75 776.885 410.435 797.214 449.93 796.726C489.425 796.237 509.678 775.476 509.678 775.476L510.878 749.634" stroke="white" stroke-opacity="0.3" stroke-width="1.20699"/>
<path d="M510.308 751.148C510.407 759.202 504.286 766.715 493.982 772.302C483.707 777.873 469.418 781.436 453.556 781.632C437.694 781.828 423.321 778.62 412.911 773.305C402.472 767.974 396.167 760.615 396.067 752.561C395.967 744.507 402.089 736.994 412.392 731.408C422.668 725.836 436.957 722.273 452.819 722.077C468.681 721.881 483.054 725.089 493.464 730.405C503.903 735.735 510.208 743.094 510.308 751.148Z" stroke="white" stroke-opacity="0.3" stroke-width="1.20699"/>
<path d="M-36.2651 -36.1553L-35.9457 -10.3316C-35.9457 -10.3316 -21.2611 9.99705 18.234 9.50855C57.7292 9.02004 77.9827 -11.7407 77.9827 -11.7407L79.1823 -37.5833" stroke="white" stroke-opacity="0.3" stroke-width="1.20699"/>
<path d="M-36.2651 76.237L-35.9457 102.061C-35.9457 102.061 -21.2611 122.389 18.234 121.901C57.7292 121.412 77.9827 100.652 77.9827 100.652L79.1823 74.8091" stroke="white" stroke-opacity="0.3" stroke-width="1.20699"/>
<path d="M78.6123 76.3236C78.712 84.3776 72.5904 91.8907 62.287 97.4773C52.0112 103.049 37.7226 106.611 21.8604 106.808C5.99823 107.004 -8.3742 103.796 -18.7846 98.4801C-29.223 93.15 -35.5286 85.7906 -35.6282 77.7367C-35.7278 69.6827 -29.6062 62.1697 -19.3028 56.583C-9.02708 51.0113 5.26161 47.4489 21.1238 47.2527C36.9859 47.0565 51.3584 50.2644 61.7688 55.5802C72.2072 60.9103 78.5127 68.2697 78.6123 76.3236Z" stroke="white" stroke-opacity="0.3" stroke-width="1.20699"/>
<path d="M-36.2651 188.63L-35.9457 214.453C-35.9457 214.453 -21.2611 234.782 18.234 234.293C57.7292 233.805 77.9827 213.044 77.9827 213.044L79.1823 187.202" stroke="white" stroke-opacity="0.3" stroke-width="1.20699"/>
<path d="M78.6123 188.716C78.712 196.77 72.5904 204.283 62.287 209.87C52.0112 215.442 37.7226 219.004 21.8604 219.2C5.99823 219.397 -8.3742 216.189 -18.7846 210.873C-29.223 205.543 -35.5286 198.183 -35.6282 190.129C-35.7278 182.075 -29.6062 174.562 -19.3028 168.976C-9.02708 163.404 5.26161 159.842 21.1238 159.645C36.9859 159.449 51.3584 162.657 61.7688 167.973C72.2072 173.303 78.5127 180.662 78.6123 188.716Z" stroke="white" stroke-opacity="0.3" stroke-width="1.20699"/>
<path d="M-36.2651 301.022L-35.9457 326.846C-35.9457 326.846 -21.2611 347.175 18.234 346.686C57.7292 346.198 77.9827 325.437 77.9827 325.437L79.1823 299.595" stroke="white" stroke-opacity="0.3" stroke-width="1.20699"/>
<path d="M78.6123 301.109C78.712 309.163 72.5904 316.676 62.287 322.263C52.0112 327.834 37.7226 331.397 21.8604 331.593C5.99823 331.789 -8.3742 328.581 -18.7846 323.265C-29.223 317.935 -35.5286 310.576 -35.6282 302.522C-35.7278 294.468 -29.6062 286.955 -19.3028 281.368C-9.02708 275.797 5.26161 272.234 21.1238 272.038C36.9859 271.842 51.3584 275.05 61.7688 280.366C72.2072 285.696 78.5127 293.055 78.6123 301.109Z" stroke="white" stroke-opacity="0.3" stroke-width="1.20699"/>
<path d="M107.632 -35.8288L107.952 -10.005C107.952 -10.005 122.636 10.3236 162.131 9.83508C201.627 9.34658 221.88 -11.4142 221.88 -11.4142L223.08 -37.2567" stroke="white" stroke-opacity="0.3" stroke-width="1.20699"/>
<path d="M107.632 76.5636L107.952 102.387C107.952 102.387 122.636 122.716 162.131 122.227C201.627 121.739 221.88 100.978 221.88 100.978L223.08 75.1357" stroke="white" stroke-opacity="0.3" stroke-width="1.20699"/>
<path d="M222.508 76.6502C222.608 84.7042 216.486 92.2173 206.183 97.8039C195.907 103.376 181.619 106.938 165.756 107.134C149.894 107.33 135.522 104.122 125.111 98.8067C114.673 93.4766 108.367 86.1172 108.268 78.0633C108.168 70.0093 114.29 62.4963 124.593 56.9096C134.869 51.3379 149.158 47.7755 165.02 47.5793C180.882 47.3831 195.254 50.591 205.665 55.9068C216.103 61.2369 222.409 68.5963 222.508 76.6502Z" stroke="white" stroke-opacity="0.3" stroke-width="1.20699"/>
<path d="M107.631 188.956L107.951 214.78C107.951 214.78 122.635 235.109 162.131 234.62C201.626 234.132 221.879 213.371 221.879 213.371L223.079 187.528" stroke="white" stroke-opacity="0.3" stroke-width="1.20699"/>
<path d="M222.507 189.042C222.607 197.096 216.485 204.609 206.182 210.196C195.906 215.767 181.618 219.33 165.755 219.526C149.893 219.722 135.521 216.514 125.11 211.199C114.672 205.868 108.366 198.509 108.267 190.455C108.167 182.401 114.289 174.888 124.592 169.301C134.868 163.73 149.157 160.167 165.019 159.971C180.881 159.775 195.253 162.983 205.664 168.299C216.102 173.629 222.408 180.988 222.507 189.042Z" stroke="white" stroke-opacity="0.3" stroke-width="1.20699"/>
<path d="M107.632 301.349L107.952 327.173C107.952 327.173 122.636 347.501 162.131 347.013C201.627 346.524 221.88 325.764 221.88 325.764L223.08 299.921" stroke="white" stroke-opacity="0.3" stroke-width="1.20699"/>
<path d="M222.508 301.436C222.608 309.489 216.486 317.003 206.183 322.589C195.907 328.161 181.619 331.723 165.756 331.919C149.894 332.116 135.522 328.908 125.111 323.592C114.673 318.262 108.367 310.902 108.268 302.849C108.168 294.795 114.29 287.282 124.593 281.695C134.869 276.123 149.158 272.561 165.02 272.365C180.882 272.168 195.254 275.376 205.665 280.692C216.103 286.022 222.409 293.382 222.508 301.436Z" stroke="white" stroke-opacity="0.3" stroke-width="1.20699"/>
<path d="M539.331 -36.01L539.65 -10.1862C539.65 -10.1862 554.335 10.1424 593.83 9.65387C633.325 9.16536 653.579 -11.5954 653.579 -11.5954L654.779 -37.438" stroke="white" stroke-opacity="0.3" stroke-width="1.20699"/>
<path d="M539.331 76.3817L539.65 102.205C539.65 102.205 554.335 122.534 593.83 122.046C633.325 121.557 653.579 100.796 653.579 100.796L654.779 74.9538" stroke="white" stroke-opacity="0.3" stroke-width="1.20699"/>
<path d="M654.21 76.4684C654.309 84.5224 648.188 92.0354 637.884 97.6221C627.608 103.194 613.32 106.756 597.458 106.952C581.595 107.149 567.223 103.941 556.813 98.6249C546.374 93.2947 540.069 85.9354 539.969 77.8814C539.869 69.8275 545.991 62.3144 556.294 56.7278C566.57 51.1561 580.859 47.5937 596.721 47.3975C612.583 47.2013 626.956 50.4092 637.366 55.725C647.804 61.0551 654.11 68.4145 654.21 76.4684Z" stroke="white" stroke-opacity="0.3" stroke-width="1.20699"/>
<path d="M539.331 188.774L539.65 214.598C539.65 214.598 554.335 234.927 593.83 234.438C633.325 233.95 653.579 213.189 653.579 213.189L654.779 187.346" stroke="white" stroke-opacity="0.3" stroke-width="1.20699"/>
<path d="M654.21 188.861C654.309 196.915 648.188 204.428 637.884 210.015C627.608 215.586 613.32 219.149 597.458 219.345C581.595 219.541 567.223 216.333 556.813 211.017C546.374 205.687 540.069 198.328 539.969 190.274C539.869 182.22 545.991 174.707 556.294 169.12C566.57 163.549 580.859 159.986 596.721 159.79C612.583 159.594 626.956 162.802 637.366 168.118C647.804 173.448 654.11 180.807 654.21 188.861Z" stroke="white" stroke-opacity="0.3" stroke-width="1.20699"/>
<path d="M539.331 301.167L539.65 326.991C539.65 326.991 554.335 347.319 593.83 346.831C633.325 346.342 653.579 325.582 653.579 325.582L654.779 299.739" stroke="white" stroke-opacity="0.3" stroke-width="1.20699"/>
<path d="M654.21 301.253C654.309 309.307 648.188 316.82 637.884 322.407C627.608 327.979 613.32 331.541 597.458 331.737C581.595 331.934 567.223 328.726 556.813 323.41C546.374 318.08 540.069 310.72 539.969 302.666C539.869 294.612 545.991 287.099 556.294 281.513C566.57 275.941 580.859 272.379 596.721 272.182C612.583 271.986 626.956 275.194 637.366 280.51C647.804 285.84 654.11 293.199 654.21 301.253Z" stroke="white" stroke-opacity="0.3" stroke-width="1.20699"/>
<path d="M683.229 -35.6842L683.549 -9.86043C683.549 -9.86043 698.233 10.4682 737.729 9.97968C777.224 9.49117 797.477 -11.2696 797.477 -11.2696L798.677 -37.1122" stroke="white" stroke-opacity="0.3" stroke-width="1.20699"/>
<path d="M683.229 76.7086L683.549 102.532C683.549 102.532 698.233 122.861 737.729 122.372C777.224 121.884 797.477 101.123 797.477 101.123L798.677 75.2806" stroke="white" stroke-opacity="0.3" stroke-width="1.20699"/>
<path d="M798.104 76.7948C798.204 84.8487 792.082 92.3618 781.779 97.9485C771.503 103.52 757.214 107.083 741.352 107.279C725.49 107.475 711.117 104.267 700.707 98.9512C690.269 93.6211 683.963 86.2617 683.864 78.2078C683.764 70.1538 689.885 62.6408 700.189 57.0541C710.465 51.4825 724.753 47.92 740.615 47.7238C756.478 47.5276 770.85 50.7356 781.26 56.0514C791.699 61.3815 798.004 68.7408 798.104 76.7948Z" stroke="white" stroke-opacity="0.3" stroke-width="1.20699"/>
<path d="M683.229 189.101L683.549 214.925C683.549 214.925 698.233 235.253 737.729 234.765C777.224 234.276 797.477 213.516 797.477 213.516L798.677 187.673" stroke="white" stroke-opacity="0.3" stroke-width="1.20699"/>
<path d="M798.104 189.187C798.204 197.241 792.082 204.754 781.779 210.341C771.503 215.912 757.214 219.475 741.352 219.671C725.49 219.867 711.117 216.659 700.707 211.343C690.269 206.013 683.963 198.654 683.864 190.6C683.764 182.546 689.885 175.033 700.189 169.446C710.465 163.875 724.753 160.312 740.615 160.116C756.478 159.92 770.85 163.128 781.26 168.443C791.699 173.774 798.004 181.133 798.104 189.187Z" stroke="white" stroke-opacity="0.3" stroke-width="1.20699"/>
<path d="M683.23 301.493L683.549 327.317C683.549 327.317 698.234 347.645 737.729 347.157C777.224 346.668 797.478 325.908 797.478 325.908L798.677 300.065" stroke="white" stroke-opacity="0.3" stroke-width="1.20699"/>
<path d="M798.106 301.58C798.205 309.634 792.084 317.147 781.78 322.733C771.504 328.305 757.216 331.867 741.354 332.064C725.491 332.26 711.119 329.052 700.709 323.736C690.27 318.406 683.965 311.047 683.865 302.993C683.765 294.939 689.887 287.426 700.19 281.839C710.466 276.267 724.755 272.705 740.617 272.509C756.479 272.313 770.852 275.52 781.262 280.836C791.7 286.166 798.006 293.526 798.106 301.58Z" stroke="white" stroke-opacity="0.3" stroke-width="1.20699"/>
<path d="M251.531 -36.0098L251.851 -10.1861C251.851 -10.1861 266.535 10.1426 306.03 9.65405C345.526 9.16555 365.779 -11.5952 365.779 -11.5952L366.979 -37.4378" stroke="white" stroke-opacity="0.3" stroke-width="1.20699"/>
<path d="M251.531 76.3829L251.851 102.207C251.851 102.207 266.535 122.535 306.03 122.047C345.526 121.558 365.779 100.797 365.779 100.797L366.979 74.9549" stroke="white" stroke-opacity="0.3" stroke-width="1.20699"/>
<path d="M366.409 76.4693C366.508 84.5233 360.387 92.0364 350.083 97.623C339.808 103.195 325.519 106.757 309.657 106.953C293.795 107.15 279.422 103.942 269.012 98.6258C258.573 93.2957 252.268 85.9363 252.168 77.8824C252.069 69.8284 258.19 62.3153 268.494 56.7287C278.769 51.157 293.058 47.5946 308.92 47.3984C324.782 47.2022 339.155 50.4101 349.565 55.7259C360.004 61.056 366.309 68.4154 366.409 76.4693Z" stroke="white" stroke-opacity="0.3" stroke-width="1.20699"/>
<path d="M251.531 188.776L251.851 214.599C251.851 214.599 266.535 234.928 306.03 234.44C345.526 233.951 365.779 213.19 365.779 213.19L366.979 187.348" stroke="white" stroke-opacity="0.3" stroke-width="1.20699"/>
<path d="M366.409 188.862C366.508 196.916 360.387 204.429 350.083 210.016C339.808 215.587 325.519 219.15 309.657 219.346C293.795 219.542 279.422 216.334 269.012 211.018C258.573 205.688 252.268 198.329 252.168 190.275C252.069 182.221 258.19 174.708 268.494 169.121C278.769 163.55 293.058 159.987 308.92 159.791C324.782 159.595 339.155 162.803 349.565 168.119C360.004 173.449 366.309 180.808 366.409 188.862Z" stroke="white" stroke-opacity="0.3" stroke-width="1.20699"/>
<path d="M251.531 301.168L251.851 326.992C251.851 326.992 266.535 347.321 306.03 346.832C345.526 346.344 365.779 325.583 365.779 325.583L366.979 299.74" stroke="white" stroke-opacity="0.3" stroke-width="1.20699"/>
<path d="M366.405 301.254C366.505 309.308 360.383 316.821 350.08 322.408C339.804 327.98 325.516 331.542 309.653 331.738C293.791 331.934 279.419 328.726 269.008 323.411C258.57 318.081 252.264 310.721 252.165 302.667C252.065 294.613 258.187 287.1 268.49 281.514C278.766 275.942 293.055 272.379 308.917 272.183C324.779 271.987 339.151 275.195 349.562 280.511C360 285.841 366.306 293.2 366.405 301.254Z" stroke="white" stroke-opacity="0.3" stroke-width="1.20699"/>
<path d="M395.431 -35.6841L395.75 -9.86037C395.75 -9.86037 410.435 10.4682 449.93 9.97974C489.425 9.49123 509.678 -11.2695 509.678 -11.2695L510.878 -37.1121" stroke="white" stroke-opacity="0.3" stroke-width="1.20699"/>
<path d="M395.431 76.7074L395.75 102.531C395.75 102.531 410.435 122.86 449.93 122.371C489.425 121.883 509.678 101.122 509.678 101.122L510.878 75.2795" stroke="white" stroke-opacity="0.3" stroke-width="1.20699"/>
<path d="M510.308 76.7939C510.407 84.8478 504.286 92.3609 493.982 97.9475C483.707 103.519 469.418 107.082 453.556 107.278C437.694 107.474 423.321 104.266 412.911 98.9503C402.472 93.6202 396.167 86.2608 396.067 78.2069C395.967 70.1529 402.089 62.6399 412.392 57.0532C422.668 51.4816 436.957 47.9191 452.819 47.7229C468.681 47.5267 483.054 50.7347 493.464 56.0504C503.903 61.3806 510.208 68.7399 510.308 76.7939Z" stroke="white" stroke-opacity="0.3" stroke-width="1.20699"/>
<path d="M395.431 189.1L395.75 214.924C395.75 214.924 410.435 235.252 449.93 234.764C489.425 234.275 509.678 213.514 509.678 213.514L510.878 187.672" stroke="white" stroke-opacity="0.3" stroke-width="1.20699"/>
<path d="M510.308 189.187C510.407 197.241 504.286 204.754 493.982 210.34C483.707 215.912 469.418 219.474 453.556 219.671C437.694 219.867 423.321 216.659 412.911 211.343C402.472 206.013 396.167 198.654 396.067 190.6C395.967 182.546 402.089 175.033 412.392 169.446C422.668 163.874 436.957 160.312 452.819 160.116C468.681 159.919 483.054 163.127 493.464 168.443C503.903 173.773 510.208 181.133 510.308 189.187Z" stroke="white" stroke-opacity="0.3" stroke-width="1.20699"/>
<path d="M395.431 301.494L395.75 327.317C395.75 327.317 410.435 347.646 449.93 347.157C489.425 346.669 509.678 325.908 509.678 325.908L510.878 300.066" stroke="white" stroke-opacity="0.3" stroke-width="1.20699"/>
<path d="M510.308 301.58C510.407 309.634 504.286 317.147 493.982 322.734C483.707 328.305 469.418 331.868 453.556 332.064C437.694 332.26 423.321 329.052 412.911 323.736C402.472 318.406 396.167 311.047 396.067 302.993C395.967 294.939 402.089 287.426 412.392 281.839C422.668 276.268 436.957 272.705 452.819 272.509C468.681 272.313 483.054 275.521 493.464 280.837C503.903 286.167 510.208 293.526 510.308 301.58Z" stroke="white" stroke-opacity="0.3" stroke-width="1.20699"/>
<path d="M838.122 413.416L838.441 439.24C838.441 439.24 853.126 459.569 892.621 459.08C932.116 458.592 952.369 437.831 952.369 437.831L953.569 411.988" stroke="white" stroke-opacity="0.3" stroke-width="1.20699"/>
<path d="M952.999 413.502C953.099 421.556 946.977 429.069 936.674 434.656C926.398 440.228 912.109 443.79 896.247 443.986C880.385 444.183 866.013 440.975 855.602 435.659C845.164 430.329 838.858 422.969 838.759 414.915C838.659 406.861 844.78 399.348 855.084 393.762C865.36 388.19 879.648 384.628 895.51 384.431C911.373 384.235 925.745 387.443 936.155 392.759C946.594 398.089 952.899 405.448 952.999 413.502Z" stroke="white" stroke-opacity="0.3" stroke-width="1.20699"/>
<path d="M838.122 525.808L838.441 551.631C838.441 551.631 853.126 571.96 892.621 571.471C932.116 570.983 952.369 550.222 952.369 550.222L953.569 524.38" stroke="white" stroke-opacity="0.3" stroke-width="1.20699"/>
<path d="M952.999 525.895C953.099 533.948 946.977 541.462 936.674 547.048C926.398 552.62 912.109 556.182 896.247 556.378C880.385 556.575 866.013 553.367 855.602 548.051C845.164 542.721 838.858 535.361 838.759 527.308C838.659 519.254 844.78 511.741 855.084 506.154C865.36 500.582 879.648 497.02 895.51 496.824C911.373 496.627 925.745 499.835 936.155 505.151C946.594 510.481 952.899 517.841 952.999 525.895Z" stroke="white" stroke-opacity="0.3" stroke-width="1.20699"/>
<path d="M838.122 638.199L838.441 664.023C838.441 664.023 853.126 684.352 892.621 683.863C932.116 683.375 952.369 662.614 952.369 662.614L953.569 636.771" stroke="white" stroke-opacity="0.3" stroke-width="1.20699"/>
<path d="M952.999 638.287C953.099 646.341 946.977 653.854 936.674 659.441C926.398 665.012 912.109 668.575 896.247 668.771C880.385 668.967 866.013 665.759 855.602 660.444C845.164 655.113 838.858 647.754 838.759 639.7C838.659 631.646 844.78 624.133 855.084 618.546C865.36 612.975 879.648 609.412 895.51 609.216C911.373 609.02 925.745 612.228 936.155 617.544C946.594 622.874 952.899 630.233 952.999 638.287Z" stroke="white" stroke-opacity="0.3" stroke-width="1.20699"/>
<path d="M838.122 750.592L838.441 776.416C838.441 776.416 853.126 796.744 892.621 796.256C932.116 795.767 952.369 775.007 952.369 775.007L953.569 749.164" stroke="white" stroke-opacity="0.3" stroke-width="1.20699"/>
<path d="M952.999 750.678C953.099 758.732 946.977 766.245 936.674 771.832C926.398 777.404 912.109 780.966 896.247 781.162C880.385 781.359 866.013 778.151 855.602 772.835C845.164 767.505 838.858 760.145 838.759 752.091C838.659 744.038 844.78 736.524 855.084 730.938C865.36 725.366 879.648 721.804 895.51 721.607C911.373 721.411 925.745 724.619 936.155 729.935C946.594 735.265 952.899 742.624 952.999 750.678Z" stroke="white" stroke-opacity="0.3" stroke-width="1.20699"/>
<path d="M982.019 413.741L982.338 439.565C982.338 439.565 997.023 459.893 1036.52 459.405C1076.01 458.916 1096.27 438.155 1096.27 438.155L1097.47 412.313" stroke="white" stroke-opacity="0.3" stroke-width="1.20699"/>
<path d="M1096.9 413.827C1096.99 421.881 1090.87 429.394 1080.57 434.981C1070.29 440.553 1056.01 444.115 1040.14 444.311C1024.28 444.507 1009.91 441.299 999.498 435.984C989.06 430.654 982.754 423.294 982.655 415.24C982.555 407.186 988.676 399.673 998.98 394.087C1009.26 388.515 1023.54 384.952 1039.41 384.756C1055.27 384.56 1069.64 387.768 1080.05 393.084C1090.49 398.414 1096.8 405.773 1096.9 413.827Z" stroke="white" stroke-opacity="0.3" stroke-width="1.20699"/>
<path d="M982.018 526.134L982.337 551.958C982.337 551.958 997.022 572.286 1036.52 571.798C1076.01 571.309 1096.27 550.549 1096.27 550.549L1097.47 524.706" stroke="white" stroke-opacity="0.3" stroke-width="1.20699"/>
<path d="M1096.89 526.22C1096.99 534.274 1090.87 541.787 1080.57 547.373C1070.29 552.945 1056 556.507 1040.14 556.704C1024.28 556.9 1009.91 553.692 999.496 548.376C989.058 543.046 982.752 535.687 982.653 527.633C982.553 519.579 988.675 512.066 998.978 506.479C1009.25 500.907 1023.54 497.345 1039.4 497.149C1055.27 496.952 1069.64 500.16 1080.05 505.476C1090.49 510.806 1096.79 518.166 1096.89 526.22Z" stroke="white" stroke-opacity="0.3" stroke-width="1.20699"/>
<path d="M982.019 638.526L982.338 664.349C982.338 664.349 997.023 684.678 1036.52 684.189C1076.01 683.701 1096.27 662.94 1096.27 662.94L1097.47 637.098" stroke="white" stroke-opacity="0.3" stroke-width="1.20699"/>
<path d="M1096.9 638.612C1096.99 646.666 1090.87 654.179 1080.57 659.766C1070.29 665.337 1056.01 668.9 1040.14 669.096C1024.28 669.292 1009.91 666.084 999.498 660.768C989.06 655.438 982.754 648.079 982.655 640.025C982.555 631.971 988.676 624.458 998.98 618.871C1009.26 613.3 1023.54 609.737 1039.41 609.541C1055.27 609.345 1069.64 612.553 1080.05 617.869C1090.49 623.199 1096.8 630.558 1096.9 638.612Z" stroke="white" stroke-opacity="0.3" stroke-width="1.20699"/>
<path d="M982.018 750.918L982.337 776.742C982.337 776.742 997.022 797.071 1036.52 796.582C1076.01 796.094 1096.27 775.333 1096.27 775.333L1097.47 749.491" stroke="white" stroke-opacity="0.3" stroke-width="1.20699"/>
<path d="M1096.89 751.004C1096.99 759.058 1090.87 766.571 1080.57 772.158C1070.29 777.73 1056 781.292 1040.14 781.488C1024.28 781.684 1009.91 778.476 999.497 773.161C989.059 767.831 982.753 760.471 982.654 752.417C982.554 744.363 988.676 736.85 998.979 731.264C1009.25 725.692 1023.54 722.129 1039.41 721.933C1055.27 721.737 1069.64 724.945 1080.05 730.261C1090.49 735.591 1096.79 742.95 1096.89 751.004Z" stroke="white" stroke-opacity="0.3" stroke-width="1.20699"/>
<path d="M1413.72 413.559L1414.04 439.383C1414.04 439.383 1428.72 459.712 1468.22 459.223C1507.71 458.735 1527.97 437.974 1527.97 437.974L1529.17 412.131" stroke="white" stroke-opacity="0.3" stroke-width="1.20699"/>
<path d="M1528.6 413.646C1528.7 421.7 1522.57 429.213 1512.27 434.799C1502 440.371 1487.71 443.934 1471.84 444.13C1455.98 444.326 1441.61 441.118 1431.2 435.802C1420.76 430.472 1414.46 423.113 1414.36 415.059C1414.26 407.005 1420.38 399.492 1430.68 393.905C1440.96 388.333 1455.25 384.771 1471.11 384.575C1486.97 384.379 1501.34 387.587 1511.75 392.902C1522.19 398.232 1528.5 405.592 1528.6 413.646Z" stroke="white" stroke-opacity="0.3" stroke-width="1.20699"/>
<path d="M1413.72 525.951L1414.04 551.775C1414.04 551.775 1428.72 572.104 1468.22 571.615C1507.71 571.127 1527.97 550.366 1527.97 550.366L1529.17 524.523" stroke="white" stroke-opacity="0.3" stroke-width="1.20699"/>
<path d="M1528.6 526.039C1528.69 534.093 1522.57 541.606 1512.27 547.192C1501.99 552.764 1487.71 556.326 1471.84 556.523C1455.98 556.719 1441.61 553.511 1431.2 548.195C1420.76 542.865 1414.45 535.506 1414.35 527.452C1414.26 519.398 1420.38 511.885 1430.68 506.298C1440.96 500.726 1455.24 497.164 1471.11 496.968C1486.97 496.772 1501.34 499.979 1511.75 505.295C1522.19 510.625 1528.5 517.985 1528.6 526.039Z" stroke="white" stroke-opacity="0.3" stroke-width="1.20699"/>
<path d="M1413.72 638.344L1414.04 664.168C1414.04 664.168 1428.72 684.497 1468.22 684.008C1507.71 683.52 1527.97 662.759 1527.97 662.759L1529.17 636.917" stroke="white" stroke-opacity="0.3" stroke-width="1.20699"/>
<path d="M1528.6 638.431C1528.7 646.485 1522.57 653.998 1512.27 659.584C1502 665.156 1487.71 668.718 1471.84 668.915C1455.98 669.111 1441.61 665.903 1431.2 660.587C1420.76 655.257 1414.46 647.898 1414.36 639.844C1414.26 631.79 1420.38 624.277 1430.68 618.69C1440.96 613.118 1455.25 609.556 1471.11 609.36C1486.97 609.163 1501.34 612.371 1511.75 617.687C1522.19 623.017 1528.5 630.377 1528.6 638.431Z" stroke="white" stroke-opacity="0.3" stroke-width="1.20699"/>
<path d="M1413.72 750.736L1414.04 776.56C1414.04 776.56 1428.72 796.889 1468.22 796.4C1507.71 795.912 1527.97 775.151 1527.97 775.151L1529.17 749.308" stroke="white" stroke-opacity="0.3" stroke-width="1.20699"/>
<path d="M1528.6 750.824C1528.69 758.878 1522.57 766.391 1512.27 771.978C1501.99 777.549 1487.71 781.112 1471.84 781.308C1455.98 781.504 1441.61 778.296 1431.2 772.98C1420.76 767.65 1414.45 760.291 1414.35 752.237C1414.26 744.183 1420.38 736.67 1430.68 731.083C1440.96 725.512 1455.24 721.949 1471.11 721.753C1486.97 721.557 1501.34 724.765 1511.75 730.08C1522.19 735.411 1528.5 742.77 1528.6 750.824Z" stroke="white" stroke-opacity="0.3" stroke-width="1.20699"/>
<path d="M1125.92 413.561L1126.24 439.384C1126.24 439.384 1140.92 459.713 1180.42 459.224C1219.91 458.736 1240.17 437.975 1240.17 437.975L1241.37 412.133" stroke="white" stroke-opacity="0.3" stroke-width="1.20699"/>
<path d="M1240.8 413.647C1240.9 421.701 1234.77 429.214 1224.47 434.801C1214.19 440.372 1199.91 443.935 1184.04 444.131C1168.18 444.327 1153.81 441.119 1143.4 435.803C1132.96 430.473 1126.65 423.114 1126.55 415.06C1126.46 407.006 1132.58 399.493 1142.88 393.906C1153.16 388.335 1167.44 384.772 1183.31 384.576C1199.17 384.38 1213.54 387.588 1223.95 392.903C1234.39 398.234 1240.7 405.593 1240.8 413.647Z" stroke="white" stroke-opacity="0.3" stroke-width="1.20699"/>
<path d="M1125.92 525.952L1126.24 551.776C1126.24 551.776 1140.92 572.105 1180.42 571.616C1219.91 571.128 1240.17 550.367 1240.17 550.367L1241.37 524.524" stroke="white" stroke-opacity="0.3" stroke-width="1.20699"/>
<path d="M1240.8 526.039C1240.9 534.093 1234.77 541.606 1224.47 547.192C1214.19 552.764 1199.91 556.326 1184.04 556.523C1168.18 556.719 1153.81 553.511 1143.4 548.195C1132.96 542.865 1126.65 535.506 1126.55 527.452C1126.46 519.398 1132.58 511.885 1142.88 506.298C1153.16 500.726 1167.44 497.164 1183.31 496.968C1199.17 496.772 1213.54 499.979 1223.95 505.295C1234.39 510.625 1240.7 517.985 1240.8 526.039Z" stroke="white" stroke-opacity="0.3" stroke-width="1.20699"/>
<path d="M1125.92 638.345L1126.24 664.169C1126.24 664.169 1140.92 684.497 1180.42 684.009C1219.91 683.52 1240.17 662.759 1240.17 662.759L1241.37 636.917" stroke="white" stroke-opacity="0.3" stroke-width="1.20699"/>
<path d="M1240.79 638.431C1240.89 646.485 1234.77 653.998 1224.47 659.585C1214.19 665.156 1199.9 668.719 1184.04 668.915C1168.18 669.111 1153.81 665.903 1143.4 660.587C1132.96 655.257 1126.65 647.898 1126.55 639.844C1126.45 631.79 1132.57 624.277 1142.88 618.69C1153.15 613.119 1167.44 609.556 1183.3 609.36C1199.17 609.164 1213.54 612.372 1223.95 617.687C1234.39 623.018 1240.69 630.377 1240.79 638.431Z" stroke="white" stroke-opacity="0.3" stroke-width="1.20699"/>
<path d="M1125.92 750.737L1126.24 776.561C1126.24 776.561 1140.92 796.889 1180.42 796.401C1219.91 795.912 1240.17 775.152 1240.17 775.152L1241.36 749.309" stroke="white" stroke-opacity="0.3" stroke-width="1.20699"/>
<path d="M1240.8 750.824C1240.9 758.878 1234.77 766.391 1224.47 771.978C1214.19 777.549 1199.91 781.112 1184.04 781.308C1168.18 781.504 1153.81 778.296 1143.4 772.98C1132.96 767.65 1126.65 760.291 1126.55 752.237C1126.46 744.183 1132.58 736.67 1142.88 731.083C1153.16 725.512 1167.44 721.949 1183.31 721.753C1199.17 721.557 1213.54 724.765 1223.95 730.081C1234.39 735.411 1240.7 742.77 1240.8 750.824Z" stroke="white" stroke-opacity="0.3" stroke-width="1.20699"/>
<path d="M1269.82 413.885L1270.14 439.709C1270.14 439.709 1284.82 460.038 1324.32 459.549C1363.81 459.061 1384.07 438.3 1384.07 438.3L1385.26 412.458" stroke="white" stroke-opacity="0.3" stroke-width="1.20699"/>
<path d="M1384.69 413.972C1384.79 422.026 1378.67 429.539 1368.37 435.125C1358.09 440.697 1343.8 444.26 1327.94 444.456C1312.08 444.652 1297.71 441.444 1287.3 436.128C1276.86 430.798 1270.55 423.439 1270.45 415.385C1270.35 407.331 1276.48 399.818 1286.78 394.231C1297.05 388.659 1311.34 385.097 1327.21 384.901C1343.07 384.705 1357.44 387.913 1367.85 393.228C1378.29 398.558 1384.59 405.918 1384.69 413.972Z" stroke="white" stroke-opacity="0.3" stroke-width="1.20699"/>
<path d="M1269.82 526.277L1270.14 552.101C1270.14 552.101 1284.82 572.429 1324.32 571.941C1363.81 571.452 1384.07 550.692 1384.07 550.692L1385.26 524.849" stroke="white" stroke-opacity="0.3" stroke-width="1.20699"/>
<path d="M1384.7 526.364C1384.8 534.418 1378.67 541.931 1368.37 547.518C1358.09 553.089 1343.81 556.652 1327.94 556.848C1312.08 557.044 1297.71 553.836 1287.3 548.52C1276.86 543.19 1270.55 535.831 1270.46 527.777C1270.36 519.723 1276.48 512.21 1286.78 506.623C1297.06 501.052 1311.35 497.489 1327.21 497.293C1343.07 497.097 1357.44 500.305 1367.85 505.62C1378.29 510.951 1384.6 518.31 1384.7 526.364Z" stroke="white" stroke-opacity="0.3" stroke-width="1.20699"/>
<path d="M1269.82 638.67L1270.14 664.494C1270.14 664.494 1284.82 684.823 1324.32 684.334C1363.81 683.846 1384.07 663.085 1384.07 663.085L1385.26 637.242" stroke="white" stroke-opacity="0.3" stroke-width="1.20699"/>
<path d="M1384.69 638.756C1384.79 646.81 1378.67 654.323 1368.37 659.91C1358.09 665.482 1343.8 669.044 1327.94 669.24C1312.08 669.436 1297.71 666.229 1287.3 660.913C1276.86 655.583 1270.55 648.223 1270.45 640.169C1270.35 632.115 1276.48 624.602 1286.78 619.016C1297.05 613.444 1311.34 609.882 1327.21 609.685C1343.07 609.489 1357.44 612.697 1367.85 618.013C1378.29 623.343 1384.59 630.702 1384.69 638.756Z" stroke="white" stroke-opacity="0.3" stroke-width="1.20699"/>
<path d="M1269.82 751.062L1270.14 776.885C1270.14 776.885 1284.82 797.214 1324.32 796.726C1363.81 796.237 1384.07 775.476 1384.07 775.476L1385.26 749.634" stroke="white" stroke-opacity="0.3" stroke-width="1.20699"/>
<path d="M1384.69 751.148C1384.79 759.202 1378.67 766.715 1368.37 772.302C1358.09 777.873 1343.8 781.436 1327.94 781.632C1312.08 781.828 1297.71 778.62 1287.3 773.305C1276.86 767.974 1270.55 760.615 1270.45 752.561C1270.35 744.507 1276.48 736.994 1286.78 731.408C1297.05 725.836 1311.34 722.273 1327.21 722.077C1343.07 721.881 1357.44 725.089 1367.85 730.405C1378.29 735.735 1384.59 743.094 1384.69 751.148Z" stroke="white" stroke-opacity="0.3" stroke-width="1.20699"/>
<path d="M838.122 -36.1553L838.441 -10.3316C838.441 -10.3316 853.126 9.99705 892.621 9.50855C932.116 9.02004 952.369 -11.7407 952.369 -11.7407L953.569 -37.5833" stroke="white" stroke-opacity="0.3" stroke-width="1.20699"/>
<path d="M838.122 76.237L838.441 102.061C838.441 102.061 853.126 122.389 892.621 121.901C932.116 121.412 952.369 100.652 952.369 100.652L953.569 74.8091" stroke="white" stroke-opacity="0.3" stroke-width="1.20699"/>
<path d="M952.999 76.3236C953.099 84.3776 946.977 91.8907 936.674 97.4773C926.398 103.049 912.109 106.611 896.247 106.808C880.385 107.004 866.013 103.796 855.602 98.4801C845.164 93.15 838.858 85.7906 838.759 77.7367C838.659 69.6827 844.78 62.1697 855.084 56.583C865.36 51.0113 879.648 47.4489 895.51 47.2527C911.373 47.0565 925.745 50.2644 936.155 55.5802C946.594 60.9103 952.899 68.2697 952.999 76.3236Z" stroke="white" stroke-opacity="0.3" stroke-width="1.20699"/>
<path d="M838.122 188.63L838.441 214.453C838.441 214.453 853.126 234.782 892.621 234.293C932.116 233.805 952.369 213.044 952.369 213.044L953.569 187.202" stroke="white" stroke-opacity="0.3" stroke-width="1.20699"/>
<path d="M952.999 188.716C953.099 196.77 946.977 204.283 936.674 209.87C926.398 215.442 912.109 219.004 896.247 219.2C880.385 219.397 866.013 216.189 855.602 210.873C845.164 205.543 838.858 198.183 838.759 190.129C838.659 182.075 844.78 174.562 855.084 168.976C865.36 163.404 879.648 159.842 895.51 159.645C911.373 159.449 925.745 162.657 936.155 167.973C946.594 173.303 952.899 180.662 952.999 188.716Z" stroke="white" stroke-opacity="0.3" stroke-width="1.20699"/>
<path d="M838.122 301.022L838.441 326.846C838.441 326.846 853.126 347.175 892.621 346.686C932.116 346.198 952.369 325.437 952.369 325.437L953.569 299.595" stroke="white" stroke-opacity="0.3" stroke-width="1.20699"/>
<path d="M952.999 301.109C953.099 309.163 946.977 316.676 936.674 322.263C926.398 327.834 912.109 331.397 896.247 331.593C880.385 331.789 866.013 328.581 855.602 323.265C845.164 317.935 838.858 310.576 838.759 302.522C838.659 294.468 844.78 286.955 855.084 281.368C865.36 275.797 879.648 272.234 895.51 272.038C911.373 271.842 925.745 275.05 936.155 280.366C946.594 285.696 952.899 293.055 952.999 301.109Z" stroke="white" stroke-opacity="0.3" stroke-width="1.20699"/>
<path d="M982.019 -35.8288L982.338 -10.005C982.338 -10.005 997.023 10.3236 1036.52 9.83508C1076.01 9.34658 1096.27 -11.4142 1096.27 -11.4142L1097.47 -37.2567" stroke="white" stroke-opacity="0.3" stroke-width="1.20699"/>
<path d="M982.019 76.5636L982.338 102.387C982.338 102.387 997.023 122.716 1036.52 122.227C1076.01 121.739 1096.27 100.978 1096.27 100.978L1097.47 75.1357" stroke="white" stroke-opacity="0.3" stroke-width="1.20699"/>
<path d="M1096.9 76.6502C1096.99 84.7042 1090.87 92.2173 1080.57 97.8039C1070.29 103.376 1056.01 106.938 1040.14 107.134C1024.28 107.33 1009.91 104.122 999.498 98.8067C989.06 93.4766 982.754 86.1172 982.655 78.0633C982.555 70.0093 988.676 62.4963 998.98 56.9096C1009.26 51.3379 1023.54 47.7755 1039.41 47.5793C1055.27 47.3831 1069.64 50.591 1080.05 55.9068C1090.49 61.2369 1096.8 68.5963 1096.9 76.6502Z" stroke="white" stroke-opacity="0.3" stroke-width="1.20699"/>
<path d="M982.018 188.956L982.337 214.78C982.337 214.78 997.022 235.109 1036.52 234.62C1076.01 234.132 1096.27 213.371 1096.27 213.371L1097.47 187.528" stroke="white" stroke-opacity="0.3" stroke-width="1.20699"/>
<path d="M1096.89 189.042C1096.99 197.096 1090.87 204.609 1080.57 210.196C1070.29 215.767 1056 219.33 1040.14 219.526C1024.28 219.722 1009.91 216.514 999.497 211.199C989.059 205.868 982.753 198.509 982.654 190.455C982.554 182.401 988.676 174.888 998.979 169.301C1009.25 163.73 1023.54 160.167 1039.41 159.971C1055.27 159.775 1069.64 162.983 1080.05 168.299C1090.49 173.629 1096.79 180.988 1096.89 189.042Z" stroke="white" stroke-opacity="0.3" stroke-width="1.20699"/>
<path d="M982.019 301.349L982.338 327.173C982.338 327.173 997.023 347.501 1036.52 347.013C1076.01 346.524 1096.27 325.764 1096.27 325.764L1097.47 299.921" stroke="white" stroke-opacity="0.3" stroke-width="1.20699"/>
<path d="M1096.9 301.436C1096.99 309.489 1090.87 317.003 1080.57 322.589C1070.29 328.161 1056.01 331.723 1040.14 331.919C1024.28 332.116 1009.91 328.908 999.498 323.592C989.06 318.262 982.754 310.902 982.655 302.849C982.555 294.795 988.676 287.282 998.98 281.695C1009.26 276.123 1023.54 272.561 1039.41 272.365C1055.27 272.168 1069.64 275.376 1080.05 280.692C1090.49 286.022 1096.8 293.382 1096.9 301.436Z" stroke="white" stroke-opacity="0.3" stroke-width="1.20699"/>
<path d="M1413.72 -36.01L1414.04 -10.1862C1414.04 -10.1862 1428.72 10.1424 1468.22 9.65387C1507.71 9.16536 1527.97 -11.5954 1527.97 -11.5954L1529.17 -37.438" stroke="white" stroke-opacity="0.3" stroke-width="1.20699"/>
<path d="M1413.72 76.3817L1414.04 102.205C1414.04 102.205 1428.72 122.534 1468.22 122.046C1507.71 121.557 1527.97 100.796 1527.97 100.796L1529.17 74.9538" stroke="white" stroke-opacity="0.3" stroke-width="1.20699"/>
<path d="M1528.6 76.4684C1528.7 84.5224 1522.57 92.0354 1512.27 97.6221C1502 103.194 1487.71 106.756 1471.84 106.952C1455.98 107.149 1441.61 103.941 1431.2 98.6249C1420.76 93.2947 1414.46 85.9354 1414.36 77.8814C1414.26 69.8275 1420.38 62.3144 1430.68 56.7278C1440.96 51.1561 1455.25 47.5937 1471.11 47.3975C1486.97 47.2013 1501.34 50.4092 1511.75 55.725C1522.19 61.0551 1528.5 68.4145 1528.6 76.4684Z" stroke="white" stroke-opacity="0.3" stroke-width="1.20699"/>
<path d="M1413.72 188.774L1414.04 214.598C1414.04 214.598 1428.72 234.927 1468.22 234.438C1507.71 233.95 1527.97 213.189 1527.97 213.189L1529.17 187.346" stroke="white" stroke-opacity="0.3" stroke-width="1.20699"/>
<path d="M1528.6 188.861C1528.7 196.915 1522.57 204.428 1512.27 210.015C1502 215.586 1487.71 219.149 1471.84 219.345C1455.98 219.541 1441.61 216.333 1431.2 211.017C1420.76 205.687 1414.46 198.328 1414.36 190.274C1414.26 182.22 1420.38 174.707 1430.68 169.12C1440.96 163.549 1455.25 159.986 1471.11 159.79C1486.97 159.594 1501.34 162.802 1511.75 168.118C1522.19 173.448 1528.5 180.807 1528.6 188.861Z" stroke="white" stroke-opacity="0.3" stroke-width="1.20699"/>
<path d="M1413.72 301.167L1414.04 326.991C1414.04 326.991 1428.72 347.319 1468.22 346.831C1507.71 346.342 1527.97 325.582 1527.97 325.582L1529.17 299.739" stroke="white" stroke-opacity="0.3" stroke-width="1.20699"/>
<path d="M1528.6 301.253C1528.7 309.307 1522.57 316.82 1512.27 322.407C1502 327.979 1487.71 331.541 1471.84 331.737C1455.98 331.934 1441.61 328.726 1431.2 323.41C1420.76 318.08 1414.46 310.72 1414.36 302.666C1414.26 294.612 1420.38 287.099 1430.68 281.513C1440.96 275.941 1455.25 272.379 1471.11 272.182C1486.97 271.986 1501.34 275.194 1511.75 280.51C1522.19 285.84 1528.5 293.199 1528.6 301.253Z" stroke="white" stroke-opacity="0.3" stroke-width="1.20699"/>
<path d="M1125.92 -36.0098L1126.24 -10.1861C1126.24 -10.1861 1140.92 10.1426 1180.42 9.65405C1219.91 9.16555 1240.17 -11.5952 1240.17 -11.5952L1241.37 -37.4378" stroke="white" stroke-opacity="0.3" stroke-width="1.20699"/>
<path d="M1125.92 76.3829L1126.24 102.207C1126.24 102.207 1140.92 122.535 1180.42 122.047C1219.91 121.558 1240.17 100.797 1240.17 100.797L1241.37 74.9549" stroke="white" stroke-opacity="0.3" stroke-width="1.20699"/>
<path d="M1240.8 76.4693C1240.9 84.5233 1234.77 92.0364 1224.47 97.623C1214.19 103.195 1199.91 106.757 1184.04 106.953C1168.18 107.15 1153.81 103.942 1143.4 98.6258C1132.96 93.2957 1126.65 85.9363 1126.55 77.8824C1126.46 69.8284 1132.58 62.3153 1142.88 56.7287C1153.16 51.157 1167.44 47.5946 1183.31 47.3984C1199.17 47.2022 1213.54 50.4101 1223.95 55.7259C1234.39 61.056 1240.7 68.4154 1240.8 76.4693Z" stroke="white" stroke-opacity="0.3" stroke-width="1.20699"/>
<path d="M1125.92 188.776L1126.24 214.599C1126.24 214.599 1140.92 234.928 1180.42 234.44C1219.91 233.951 1240.17 213.19 1240.17 213.19L1241.37 187.348" stroke="white" stroke-opacity="0.3" stroke-width="1.20699"/>
<path d="M1240.8 188.862C1240.9 196.916 1234.77 204.429 1224.47 210.016C1214.19 215.587 1199.91 219.15 1184.04 219.346C1168.18 219.542 1153.81 216.334 1143.4 211.018C1132.96 205.688 1126.65 198.329 1126.55 190.275C1126.46 182.221 1132.58 174.708 1142.88 169.121C1153.16 163.55 1167.44 159.987 1183.31 159.791C1199.17 159.595 1213.54 162.803 1223.95 168.119C1234.39 173.449 1240.7 180.808 1240.8 188.862Z" stroke="white" stroke-opacity="0.3" stroke-width="1.20699"/>
<path d="M1125.92 301.168L1126.24 326.992C1126.24 326.992 1140.92 347.321 1180.42 346.832C1219.91 346.344 1240.17 325.583 1240.17 325.583L1241.37 299.74" stroke="white" stroke-opacity="0.3" stroke-width="1.20699"/>
<path d="M1240.79 301.254C1240.89 309.308 1234.77 316.821 1224.47 322.408C1214.19 327.98 1199.9 331.542 1184.04 331.738C1168.18 331.934 1153.81 328.726 1143.4 323.411C1132.96 318.081 1126.65 310.721 1126.55 302.667C1126.45 294.613 1132.57 287.1 1142.88 281.514C1153.15 275.942 1167.44 272.379 1183.3 272.183C1199.17 271.987 1213.54 275.195 1223.95 280.511C1234.39 285.841 1240.69 293.2 1240.79 301.254Z" stroke="white" stroke-opacity="0.3" stroke-width="1.20699"/>
<path d="M1269.82 -35.6841L1270.14 -9.86037C1270.14 -9.86037 1284.82 10.4682 1324.32 9.97974C1363.81 9.49123 1384.07 -11.2695 1384.07 -11.2695L1385.26 -37.1121" stroke="white" stroke-opacity="0.3" stroke-width="1.20699"/>
<path d="M1269.82 76.7074L1270.14 102.531C1270.14 102.531 1284.82 122.86 1324.32 122.371C1363.81 121.883 1384.07 101.122 1384.07 101.122L1385.26 75.2795" stroke="white" stroke-opacity="0.3" stroke-width="1.20699"/>
<path d="M1384.69 76.7939C1384.79 84.8478 1378.67 92.3609 1368.37 97.9475C1358.09 103.519 1343.8 107.082 1327.94 107.278C1312.08 107.474 1297.71 104.266 1287.3 98.9503C1276.86 93.6202 1270.55 86.2608 1270.45 78.2069C1270.35 70.1529 1276.48 62.6399 1286.78 57.0532C1297.05 51.4816 1311.34 47.9191 1327.21 47.7229C1343.07 47.5267 1357.44 50.7347 1367.85 56.0504C1378.29 61.3806 1384.59 68.7399 1384.69 76.7939Z" stroke="white" stroke-opacity="0.3" stroke-width="1.20699"/>
<path d="M1269.82 189.1L1270.14 214.924C1270.14 214.924 1284.82 235.252 1324.32 234.764C1363.81 234.275 1384.07 213.514 1384.07 213.514L1385.26 187.672" stroke="white" stroke-opacity="0.3" stroke-width="1.20699"/>
<path d="M1384.69 189.187C1384.79 197.241 1378.67 204.754 1368.37 210.34C1358.09 215.912 1343.8 219.474 1327.94 219.671C1312.08 219.867 1297.71 216.659 1287.3 211.343C1276.86 206.013 1270.55 198.654 1270.45 190.6C1270.35 182.546 1276.48 175.033 1286.78 169.446C1297.05 163.874 1311.34 160.312 1327.21 160.116C1343.07 159.919 1357.44 163.127 1367.85 168.443C1378.29 173.773 1384.59 181.133 1384.69 189.187Z" stroke="white" stroke-opacity="0.3" stroke-width="1.20699"/>
<path d="M1269.82 301.494L1270.14 327.317C1270.14 327.317 1284.82 347.646 1324.32 347.157C1363.81 346.669 1384.07 325.908 1384.07 325.908L1385.26 300.066" stroke="white" stroke-opacity="0.3" stroke-width="1.20699"/>
<path d="M1384.69 301.58C1384.79 309.634 1378.67 317.147 1368.37 322.734C1358.09 328.305 1343.8 331.868 1327.94 332.064C1312.08 332.26 1297.71 329.052 1287.3 323.736C1276.86 318.406 1270.55 311.047 1270.45 302.993C1270.35 294.939 1276.48 287.426 1286.78 281.839C1297.05 276.268 1311.34 272.705 1327.21 272.509C1343.07 272.313 1357.44 275.521 1367.85 280.837C1378.29 286.167 1384.59 293.526 1384.69 301.58Z" stroke="white" stroke-opacity="0.3" stroke-width="1.20699"/>
<rect width="1440" height="780" fill="url(#paint0_radial)"/>
</g>
<defs>
<radialGradient id="paint0_radial" cx="0" cy="0" r="1" gradientUnits="userSpaceOnUse" gradientTransform="translate(772.376 694.068) rotate(-113.848) scale(615.575 1139.53)">
<stop stop-opacity="0"/>
<stop offset="1"/>
</radialGradient>
<clipPath id="clip0">
<rect width="1440" height="780" fill="white"/>
</clipPath>
</defs>
</svg>
