<svg width="25" height="24" viewBox="0 0 25 24" fill="none" xmlns="http://www.w3.org/2000/svg">
<path fill-rule="evenodd" clip-rule="evenodd" d="M18.5 10C19.603 10 20.5 10.897 20.5 12V20C20.5 21.103 19.603 22 18.5 22H6.5C5.397 22 4.5 21.103 4.5 20V12C4.5 10.897 5.397 10 6.5 10H7.5V7C7.5 4.243 9.743 2 12.5 2C15.257 2 17.5 4.243 17.5 7V10H18.5ZM12.5 4C10.846 4 9.5 5.346 9.5 7V10H15.5V7C15.5 5.346 14.154 4 12.5 4ZM14.4653 15.9949C14.7177 16.2678 14.9293 16.3122 15.0999 16.1279L17.5872 14.0092C17.6895 13.9 17.7407 13.7703 17.7407 13.6202C17.7407 13.4701 17.6895 13.3404 17.5872 13.2312L15.0999 11.1124C14.9293 10.9282 14.7177 10.9691 14.4653 11.2353V12.9549C13.4076 12.9617 12.4966 13.2108 11.7323 13.7021C12.1076 14.0364 12.3465 14.4118 12.4488 14.828C12.9538 14.5414 13.6259 14.364 14.4653 14.2957V15.9949ZM12.587 17.7247C12.0923 17.4859 11.8449 17.2095 11.8449 16.8956V15.5854C11.8449 15.1078 11.6692 14.6676 11.3178 14.265C10.9664 13.8624 10.4887 13.5434 9.88479 13.308C9.28089 13.0726 8.6241 12.9549 7.91442 12.9549C7.737 12.9549 7.58347 13.0197 7.45382 13.1494C7.32416 13.279 7.25934 13.4342 7.25934 13.6151C7.25934 13.7959 7.32416 13.9511 7.45382 14.0808C7.58347 14.2105 7.737 14.2753 7.91442 14.2753V14.2957C8.67186 14.3572 9.29795 14.5073 9.79267 14.7461C10.2874 14.985 10.5348 15.2647 10.5348 15.5854V16.8956C10.5348 17.3665 10.7105 17.8032 11.0619 18.2058C11.4133 18.6084 11.891 18.9274 12.4949 19.1628C13.0988 19.3982 13.7556 19.516 14.4653 19.516V21.2356C14.7177 21.5085 14.9293 21.5529 15.0999 21.3686L17.5872 19.2498C17.6895 19.1406 17.7407 19.011 17.7407 18.8609C17.7407 18.7107 17.6895 18.5811 17.5872 18.4719L15.0999 16.3531C14.9293 16.1689 14.7177 16.2098 14.4653 16.476V18.1751C13.7078 18.1137 13.0817 17.9635 12.587 17.7247ZM7.91442 18.1751V18.2058C7.737 18.2058 7.58347 18.2689 7.45382 18.3951C7.32416 18.5214 7.25934 18.6749 7.25934 18.8558C7.25934 19.0366 7.32416 19.1918 7.45382 19.3215C7.58347 19.4511 7.737 19.516 7.91442 19.516C8.97211 19.516 9.88309 19.2669 10.6474 18.7687C10.272 18.4276 10.0332 18.0523 9.93085 17.6428C9.42589 17.9294 8.75375 18.1068 7.91442 18.1751Z" fill="white"/>
</svg>
