<svg width="25" height="24" viewBox="0 0 25 24" fill="none" xmlns="http://www.w3.org/2000/svg">
<path fill-rule="evenodd" clip-rule="evenodd" d="M12.5012 18.064L12.5491 21C12.1109 21.0002 11.6899 20.8297 11.3753 20.5247L11.146 20.2518L5.57641 13.6287L3.68196 11.3739C3.67698 11.3712 3.673 11.367 3.67059 11.3619L3.64066 11.3272L3.63467 11.3194C3.59762 11.2706 3.56798 11.2165 3.54668 11.159C3.51835 11.0885 3.50275 11.0135 3.5006 10.9375V10.892C3.5006 10.8777 3.50179 10.8627 3.50479 10.8483C3.51788 10.7009 3.5803 10.5621 3.68196 10.4545C3.80347 10.3228 3.98004 10.239 4.17398 10.239H6.04448L12.5006 18.0652L12.5018 18.064H12.5012Z" fill="#FCD1CA"/>
<path fill-rule="evenodd" clip-rule="evenodd" d="M12.5 14.5433V18.182L3.66879 7.64368C3.61576 7.58428 3.57397 7.51573 3.54549 7.44136C3.51753 7.37013 3.50213 7.29459 3.5 7.2181V7.17321C3.50479 7.00441 3.57243 6.85298 3.68136 6.73745C3.80227 6.60398 3.97885 6.52197 4.17338 6.52197H5.84816L12.5 14.5427V14.5433Z" fill="#FF9D8D"/>
<path fill-rule="evenodd" clip-rule="evenodd" d="M4.1702 3.00061C3.97746 3.00061 3.80029 3.08202 3.68058 3.2149C3.57283 3.32803 3.5058 3.48126 3.50101 3.64826V3.69255C3.5028 3.77216 3.51837 3.84638 3.5465 3.91402C3.5471 3.9206 3.55009 3.92599 3.55248 3.93197C3.58171 4.00237 3.62349 4.06686 3.67579 4.12232L3.68536 4.13309L12.5004 14.5433V21C12.9361 21.0009 13.3549 20.8317 13.6676 20.5283C13.6694 20.5283 13.6694 20.5283 13.6694 20.5271L21.331 11.4314C21.3406 11.4218 21.3489 11.411 21.3573 11.4002C21.398 11.35 21.4303 11.2931 21.4543 11.2308C21.4842 11.1566 21.4998 11.0752 21.4998 10.9884V3.66921C21.5005 3.49956 21.4358 3.33617 21.319 3.2131C21.2566 3.1454 21.1808 3.09147 21.0964 3.05478C21.012 3.01808 20.9208 2.99943 20.8288 3.00001H4.1708L4.1702 3.00061Z" fill="#FF6661"/>
</svg>
