<svg width="116" height="94" viewBox="0 0 116 94" fill="none" xmlns="http://www.w3.org/2000/svg">
<g style="mix-blend-mode:overlay">
<path d="M25.2183 45.2751C25.2183 33.5411 35.2351 22.0933 49.5448 20.09V0.0563527C19.2082 4.06307 0.891743 26.3862 0.891743 59.5848C0.891743 80.7632 9.47758 93.9281 26.9354 93.9281C41.2452 93.9281 52.4067 85.0561 52.4067 69.6016C52.4067 54.1471 41.2452 45.2751 25.2183 45.2751ZM88.181 45.2751C88.181 33.5411 98.1978 22.0933 112.508 20.09V0.0563527C82.171 4.06307 63.8545 26.3862 63.8545 59.5848C63.8545 80.7632 72.4403 93.9281 89.8982 93.9281C104.208 93.9281 115.37 85.0561 115.37 69.6016C115.37 54.1471 104.208 45.2751 88.181 45.2751Z" fill="white"/>
</g>
</svg>
