<svg width="194" height="86" viewBox="0 0 194 86" fill="none" xmlns="http://www.w3.org/2000/svg">
<path d="M1.47239 16.3486H2.91239V11.7246H6.19239C9.08839 11.7246 8.00039 15.8686 8.49639 16.3486H10.0484V16.2526C9.45639 16.0606 10.3844 11.5646 7.84039 11.0686V11.0366C9.10439 10.7166 9.88839 9.80463 9.88839 8.15663C9.88839 6.12463 8.36839 4.90863 6.11239 4.90863H1.47239V16.3486ZM2.91239 6.18863H5.77639C6.96039 6.18863 8.44839 6.33263 8.44839 8.31663C8.44839 10.3006 6.96039 10.4446 5.77639 10.4446H2.91239V6.18863ZM15.4393 15.4526C13.6633 15.4526 12.7833 14.0766 12.7833 12.6046H19.2313C19.2313 9.70863 17.9833 7.96463 15.4233 7.96463C13.0393 7.96463 11.5033 9.54863 11.5033 12.2686C11.5033 14.8286 13.0073 16.5726 15.4873 16.5726C17.5193 16.5726 18.6873 15.3566 19.1033 13.8366H17.8233C17.6793 14.3966 17.0713 15.4526 15.4393 15.4526ZM15.4233 9.08463C16.9593 9.08463 17.9513 10.1726 17.9513 11.4846H12.7833C12.7833 10.1726 13.8873 9.08463 15.4233 9.08463ZM26.9465 8.18863V9.19663H26.9145C26.4345 8.57263 25.6665 7.96463 24.3225 7.96463C22.3065 7.96463 20.6745 9.26063 20.6745 11.9486C20.6745 14.6366 22.3065 15.9326 24.3225 15.9326C25.6665 15.9326 26.4345 15.3566 26.9145 14.6526H26.9465V15.8846C26.9465 17.4046 26.0665 18.0606 24.5465 18.0606C23.0265 18.0606 22.3545 17.4366 22.1945 16.6046H20.9145C21.0425 17.9966 22.3705 19.1806 24.6105 19.1806C26.8505 19.1806 28.2265 18.0766 28.2265 15.9006V8.18863H26.9465ZM24.4825 14.8126C22.8025 14.8126 21.9545 13.5486 21.9545 11.9486C21.9545 10.3486 22.8025 9.08463 24.4825 9.08463C26.0025 9.08463 26.9465 10.0286 26.9465 11.9486C26.9465 13.8686 26.0025 14.8126 24.4825 14.8126ZM31.4223 6.60463C31.7903 6.60463 32.2223 6.33263 32.2223 5.83663C32.2223 5.34063 31.7903 5.06863 31.4223 5.06863C31.0703 5.06863 30.6223 5.34063 30.6223 5.83663C30.6223 6.33263 31.0703 6.60463 31.4223 6.60463ZM30.7823 8.18863V16.3486H32.0623V8.18863H30.7823ZM37.9336 11.5006C36.7976 11.2286 35.6936 11.1486 35.6936 10.1886C35.6936 9.54863 36.3176 9.08463 37.4696 9.08463C39.0056 9.08463 39.3096 9.90063 39.4376 10.5246H40.7176C40.5896 9.11663 39.5016 7.96463 37.4696 7.96463C35.5496 7.96463 34.4136 9.00463 34.4136 10.2846C34.4136 12.2046 36.2696 12.3486 37.5176 12.6526C38.6856 12.9406 39.7576 13.0046 39.7576 14.1886C39.7576 14.7326 39.2136 15.4526 37.8216 15.4526C35.7736 15.4526 35.4536 14.5406 35.3736 13.6286H34.0936C34.1736 15.3886 35.3256 16.5726 37.8216 16.5726C39.6776 16.5726 41.0376 15.5966 41.0376 14.1086C41.0376 12.0926 39.3896 11.8526 37.9336 11.5006ZM46.3136 9.30863V8.18863H44.7136V5.46863H43.4336V8.18863H42.2336V9.30863H43.4336V14.3486C43.4336 16.0126 44.2656 16.4446 45.3536 16.4446C45.6896 16.4446 46.0256 16.4126 46.3136 16.3486V15.2286C45.2256 15.3086 44.7136 15.1486 44.7136 14.2206V9.30863H46.3136ZM51.8603 7.96463C50.6923 7.96463 50.0363 8.73263 49.6043 9.80463H49.5723V8.18863H48.2923V16.3486H49.5723V11.9966C49.5723 10.2526 50.8043 9.00463 52.5803 9.29263H52.6123V8.01263C52.3883 7.98063 52.1643 7.96463 51.8603 7.96463ZM59.0961 10.2686C59.0961 11.0846 58.4721 11.2606 57.0961 11.5166C54.9841 11.9166 53.6081 12.3966 53.6081 14.2526C53.6081 15.6286 54.6481 16.5726 56.2961 16.5726C57.6401 16.5726 58.5521 16.0926 59.0641 15.3246H59.0961C59.3201 16.2206 59.7841 16.4286 60.5521 16.4286C60.7921 16.4286 60.9681 16.4126 61.3041 16.3006V15.4046C60.4881 15.5006 60.3761 15.1486 60.3761 14.5086V10.5406C60.3761 8.57263 58.9841 7.96463 57.4321 7.96463C55.0641 7.96463 54.0881 9.14863 54.0081 10.7166H55.2881C55.3681 9.53263 55.8801 9.08463 57.4321 9.08463C58.7441 9.08463 59.0961 9.62863 59.0961 10.2686ZM56.4241 15.4526C55.3681 15.4526 54.8881 14.9886 54.8881 14.1886C54.8881 13.2126 55.6241 12.8126 57.2081 12.4766C58.0721 12.3006 58.8561 12.0766 59.0961 11.8366V13.1966C59.0961 14.7646 57.9441 15.4526 56.4241 15.4526ZM66.2961 9.30863V8.18863H64.6961V5.46863H63.4161V8.18863H62.2161V9.30863H63.4161V14.3486C63.4161 16.0126 64.2481 16.4446 65.3361 16.4446C65.6721 16.4446 66.0081 16.4126 66.2961 16.3486V15.2286C65.2081 15.3086 64.6961 15.1486 64.6961 14.2206V9.30863H66.2961ZM69.0748 6.60463C69.4428 6.60463 69.8748 6.33263 69.8748 5.83663C69.8748 5.34063 69.4428 5.06863 69.0748 5.06863C68.7228 5.06863 68.2748 5.34063 68.2748 5.83663C68.2748 6.33263 68.7228 6.60463 69.0748 6.60463ZM68.4348 8.18863V16.3486H69.7148V8.18863H68.4348ZM75.8101 16.5726C73.3141 16.5726 71.8101 14.8126 71.8101 12.2686C71.8101 9.72463 73.3141 7.96463 75.8101 7.96463C78.2901 7.96463 79.7941 9.72463 79.7941 12.2686C79.7941 14.8126 78.2901 16.5726 75.8101 16.5726ZM75.8101 15.4526C77.6341 15.4526 78.5141 14.0126 78.5141 12.2686C78.5141 10.5246 77.6341 9.08463 75.8101 9.08463C73.9701 9.08463 73.0901 10.5246 73.0901 12.2686C73.0901 14.0126 73.9701 15.4526 75.8101 15.4526ZM85.7266 7.96463C84.3346 7.96463 83.4706 8.58863 83.0386 9.16463H83.0066V8.18863H81.7266V16.3486H83.0066V11.2606C83.0066 9.99663 83.9666 9.08463 85.4066 9.08463C86.6866 9.08463 87.1826 9.91663 87.1826 10.9726V16.3486H88.4626V10.6526C88.4626 8.78063 87.2146 7.96463 85.7266 7.96463ZM94.1318 11.5006C92.9958 11.2286 91.8918 11.1486 91.8918 10.1886C91.8918 9.54863 92.5158 9.08463 93.6678 9.08463C95.2038 9.08463 95.5078 9.90063 95.6358 10.5246H96.9158C96.7878 9.11663 95.6998 7.96463 93.6678 7.96463C91.7478 7.96463 90.6118 9.00463 90.6118 10.2846C90.6118 12.2046 92.4678 12.3486 93.7158 12.6526C94.8838 12.9406 95.9558 13.0046 95.9558 14.1886C95.9558 14.7326 95.4118 15.4526 94.0198 15.4526C91.9718 15.4526 91.6518 14.5406 91.5718 13.6286H90.2918C90.3718 15.3886 91.5238 16.5726 94.0198 16.5726C95.8758 16.5726 97.2358 15.5966 97.2358 14.1086C97.2358 12.0926 95.5878 11.8526 94.1318 11.5006ZM111.439 8.68463H112.879C112.607 6.50863 110.815 4.68463 108.015 4.68463C104.879 4.68463 102.719 7.18063 102.719 10.6206C102.719 14.0766 104.879 16.5726 108.015 16.5726C110.831 16.5726 112.623 14.7486 112.879 12.2206H111.439C111.343 13.6606 110.415 15.2926 108.015 15.2926C105.295 15.2926 104.159 12.9406 104.159 10.6206C104.159 8.31663 105.295 5.96463 108.015 5.96463C110.399 5.96463 111.231 7.59663 111.439 8.68463ZM114.991 4.90863V16.3486H116.271V4.90863H114.991ZM122.26 16.5726C119.764 16.5726 118.26 14.8126 118.26 12.2686C118.26 9.72463 119.764 7.96463 122.26 7.96463C124.74 7.96463 126.244 9.72463 126.244 12.2686C126.244 14.8126 124.74 16.5726 122.26 16.5726ZM122.26 15.4526C124.084 15.4526 124.964 14.0126 124.964 12.2686C124.964 10.5246 124.084 9.08463 122.26 9.08463C120.42 9.08463 119.54 10.5246 119.54 12.2686C119.54 14.0126 120.42 15.4526 122.26 15.4526ZM131.488 11.5006C130.352 11.2286 129.248 11.1486 129.248 10.1886C129.248 9.54863 129.872 9.08463 131.024 9.08463C132.56 9.08463 132.864 9.90063 132.992 10.5246H134.272C134.144 9.11663 133.056 7.96463 131.024 7.96463C129.104 7.96463 127.968 9.00463 127.968 10.2846C127.968 12.2046 129.824 12.3486 131.072 12.6526C132.24 12.9406 133.312 13.0046 133.312 14.1886C133.312 14.7326 132.768 15.4526 131.376 15.4526C129.328 15.4526 129.008 14.5406 128.928 13.6286H127.648C127.728 15.3886 128.88 16.5726 131.376 16.5726C133.232 16.5726 134.592 15.5966 134.592 14.1086C134.592 12.0926 132.944 11.8526 131.488 11.5006ZM137.272 6.60463C137.64 6.60463 138.072 6.33263 138.072 5.83663C138.072 5.34063 137.64 5.06863 137.272 5.06863C136.92 5.06863 136.472 5.34063 136.472 5.83663C136.472 6.33263 136.92 6.60463 137.272 6.60463ZM136.632 8.18863V16.3486H137.912V8.18863H136.632ZM144.472 7.96463C143.08 7.96463 142.216 8.58863 141.784 9.16463H141.752V8.18863H140.472V16.3486H141.752V11.2606C141.752 9.99663 142.712 9.08463 144.152 9.08463C145.432 9.08463 145.928 9.91663 145.928 10.9726V16.3486H147.208V10.6526C147.208 8.78063 145.96 7.96463 144.472 7.96463ZM155.373 8.18863V9.19663H155.341C154.861 8.57263 154.093 7.96463 152.749 7.96463C150.733 7.96463 149.101 9.26063 149.101 11.9486C149.101 14.6366 150.733 15.9326 152.749 15.9326C154.093 15.9326 154.861 15.3566 155.341 14.6526H155.373V15.8846C155.373 17.4046 154.493 18.0606 152.973 18.0606C151.453 18.0606 150.781 17.4366 150.621 16.6046H149.341C149.469 17.9966 150.797 19.1806 153.037 19.1806C155.277 19.1806 156.653 18.0766 156.653 15.9006V8.18863H155.373ZM152.909 14.8126C151.229 14.8126 150.381 13.5486 150.381 11.9486C150.381 10.3486 151.229 9.08463 152.909 9.08463C154.429 9.08463 155.373 10.0286 155.373 11.9486C155.373 13.8686 154.429 14.8126 152.909 14.8126ZM168.252 16.5726C171.612 16.5726 173.852 14.0606 173.852 10.6206C173.852 7.18063 171.612 4.68463 168.252 4.68463C164.892 4.68463 162.652 7.18063 162.652 10.6206C162.652 14.0606 164.892 16.5726 168.252 16.5726ZM168.252 15.2926C165.372 15.2926 164.092 13.0846 164.092 10.6206C164.092 8.15663 165.372 5.96463 168.252 5.96463C171.132 5.96463 172.412 8.15663 172.412 10.6206C172.412 13.0846 171.132 15.2926 168.252 15.2926ZM180.016 7.96463C178.624 7.96463 177.76 8.58863 177.328 9.16463H177.296V8.18863H176.016V16.3486H177.296V11.2606C177.296 9.99663 178.256 9.08463 179.696 9.08463C180.976 9.08463 181.472 9.91663 181.472 10.9726V16.3486H182.752V10.6526C182.752 8.78063 181.504 7.96463 180.016 7.96463Z" fill="white"/>
<path d="M6.76839 33.1321C6.54439 35.8521 5.39239 37.8361 1.39239 37.8361V40.4921C3.24839 40.4921 4.72039 40.4921 6.03239 39.2121V55.2441H9.74439V33.1321H6.76839ZM13.0159 49.0041C13.0159 53.4841 16.7279 55.7241 21.5599 55.7241C26.3919 55.7241 30.1359 53.4841 30.1359 49.0041C30.1359 45.9641 28.0879 44.3961 26.0079 43.4681V43.4041C27.5439 42.5721 29.0479 41.1961 29.0479 38.7001C29.0479 34.8921 25.8799 32.6521 21.5599 32.6521C17.2399 32.6521 14.0719 34.8921 14.0719 38.7001C14.0719 41.1961 15.5439 42.5721 17.1119 43.4041V43.4681C14.9999 44.3961 13.0159 45.9641 13.0159 49.0041ZM21.5599 42.0921C19.0959 42.0921 17.5599 41.0041 17.5599 38.8601C17.5599 36.7481 19.0959 35.5961 21.5599 35.5961C24.0239 35.5961 25.5599 36.7481 25.5599 38.8601C25.5599 41.0041 24.0239 42.0921 21.5599 42.0921ZM21.5599 52.6841C18.5839 52.6841 16.6959 51.2121 16.6959 48.7801C16.6959 46.3801 18.5839 44.9081 21.5599 44.9081C24.5679 44.9081 26.4239 46.3801 26.4239 48.7801C26.4239 51.2121 24.5679 52.6841 21.5599 52.6841ZM39.0711 55.2441H42.7831V37.9001H42.8471L48.8951 55.2441H51.9351L57.9831 37.9001H58.0471V55.2441H61.7591V32.3641H56.8311L50.4631 49.9641H50.3991L43.9991 32.3641H39.0711V55.2441ZM78.8831 49.8361L80.7391 55.2441H84.6111L76.2271 32.3641H72.2271L63.8111 55.2441H67.6831L69.5391 49.8361H78.8831ZM70.5951 46.6681L74.2111 35.8521H74.2751L77.8591 46.6681H70.5951ZM82.4056 32.3641L90.5336 46.1561V55.2441H94.3416V46.1561L102.47 32.3641H98.4056L92.4536 42.9881H92.3896L86.4696 32.3641H82.4056ZM113.799 40.9721C113.799 37.9321 115.047 35.8201 118.343 35.8201C121.191 35.8201 122.055 37.6441 122.055 39.4681C122.055 42.6041 119.463 43.6601 115.399 46.3481C112.007 48.4921 109.671 51.3401 109.671 55.2441H125.543V52.1081H114.503V52.0441C116.327 47.5321 125.767 46.3481 125.767 39.3081C125.767 35.0841 122.535 32.6521 118.439 32.6521C112.775 32.6521 110.215 36.2041 110.215 40.9721H113.799ZM137.012 55.7241C143.252 55.7241 145.908 50.4761 145.908 44.2041C145.908 37.9321 143.252 32.6521 137.012 32.6521C130.772 32.6521 128.116 37.9321 128.116 44.2041C128.116 50.4761 130.772 55.7241 137.012 55.7241ZM137.012 52.5561C133.108 52.5561 131.796 48.8121 131.796 44.2041C131.796 39.5961 133.108 35.8201 137.012 35.8201C140.916 35.8201 142.196 39.5961 142.196 44.2041C142.196 48.8121 140.916 52.5561 137.012 52.5561ZM151.893 40.9721C151.893 37.9321 153.141 35.8201 156.437 35.8201C159.285 35.8201 160.149 37.6441 160.149 39.4681C160.149 42.6041 157.557 43.6601 153.493 46.3481C150.101 48.4921 147.765 51.3401 147.765 55.2441H163.637V52.1081H152.597V52.0441C154.421 47.5321 163.861 46.3481 163.861 39.3081C163.861 35.0841 160.629 32.6521 156.533 32.6521C150.869 32.6521 148.309 36.2041 148.309 40.9721H151.893ZM171.393 33.1321C171.169 35.8521 170.017 37.8361 166.017 37.8361V40.4921C167.873 40.4921 169.345 40.4921 170.657 39.2121V55.2441H174.369V33.1321H171.393Z" fill="#84D321"/>
<path d="M3.58439 68.1881C3.47239 69.5481 2.89639 70.5401 0.896391 70.5401V71.8681C1.82439 71.8681 2.56039 71.8681 3.21639 71.2281V79.2441H5.07239V68.1881H3.58439ZM10.0681 68.1881C9.95614 69.5481 9.38014 70.5401 7.38014 70.5401V71.8681C8.30814 71.8681 9.04414 71.8681 9.70014 71.2281V79.2441H11.5561V68.1881H10.0681ZM15.0959 74.4601C15.6719 74.4601 16.1199 74.0601 16.1199 73.4201C16.1199 72.7961 15.6719 72.3801 15.0959 72.3801C14.5039 72.3801 14.0559 72.7961 14.0559 73.4201C14.0559 74.0601 14.5039 74.4601 15.0959 74.4601ZM15.0959 79.3721C15.6719 79.3721 16.1199 78.9721 16.1199 78.3321C16.1199 77.7081 15.6719 77.2921 15.0959 77.2921C14.5039 77.2921 14.0559 77.7081 14.0559 78.3321C14.0559 78.9721 14.5039 79.3721 15.0959 79.3721ZM22.517 71.7881C21.365 71.7881 20.549 72.1561 19.973 72.7481V72.7161L20.565 69.7561H25.541V68.1881H19.173L17.973 74.2201H19.845C20.373 73.5641 21.157 73.2601 22.021 73.2601C23.365 73.2601 24.245 73.9641 24.245 75.4681C24.245 77.0681 23.285 77.9001 21.925 77.9001C20.389 77.9001 19.733 76.9721 19.621 75.9801H17.781C17.845 77.8841 19.317 79.4841 22.021 79.4841C24.325 79.4841 26.101 77.9481 26.101 75.4841C26.101 73.3241 24.645 71.7881 22.517 71.7881ZM34.1414 74.0601V74.0921C34.1094 76.1081 33.6454 77.9641 31.6454 77.9641C30.4774 77.9641 29.9014 77.2921 29.7894 76.4441H27.9334C28.1574 78.1081 29.5494 79.4841 31.6294 79.4841C34.4134 79.4841 35.9974 77.4521 35.9974 73.6761C35.9974 70.3641 34.8614 67.9481 31.6294 67.9481C29.1494 67.9481 27.6294 69.6441 27.6294 71.8201C27.6294 73.9961 29.1174 75.5001 31.2934 75.5001C32.5734 75.5001 33.5974 74.9561 34.1414 74.0601ZM31.6934 69.4681C33.1654 69.4681 34.0454 70.3801 34.0454 71.6921C34.0454 73.0521 33.0694 73.9801 31.5974 73.9801C30.3334 73.9801 29.4374 73.1321 29.4374 71.7241C29.4374 70.3801 30.2694 69.4681 31.6934 69.4681ZM42.2185 70.8441C40.9385 70.8441 40.1385 71.4521 39.7065 72.0281H39.6745V71.0681H37.9785V82.0281H39.6745V78.2681H39.7065C40.1385 78.8761 40.9385 79.4841 42.2185 79.4841C44.2985 79.4841 45.8505 77.8521 45.8505 75.1641C45.8505 72.4761 44.2985 70.8441 42.2185 70.8441ZM41.8985 78.1081C40.5385 78.1081 39.6905 76.9721 39.6905 75.1641C39.6905 73.3401 40.5385 72.2201 41.8985 72.2201C43.3705 72.2201 44.1545 73.5641 44.1545 75.1641C44.1545 76.7641 43.3705 78.1081 41.8985 78.1081ZM56.7363 70.8441C55.4723 70.8441 54.6723 71.4681 54.0643 72.2521H54.0323C53.6963 71.3721 53.0083 70.8441 51.8563 70.8441C50.6243 70.8441 49.8563 71.4841 49.4243 72.1241H49.3923V71.0681H47.7123V79.2441H49.3923V74.2681C49.3923 73.0521 50.1123 72.2681 51.2323 72.2681C52.4003 72.2681 52.6243 72.9721 52.6243 74.0761V79.2441H54.3203V74.2681C54.3203 73.0521 55.0243 72.2681 56.1603 72.2681C57.3123 72.2681 57.5363 72.9721 57.5363 74.0761V79.2441H59.2323V73.5961C59.2323 71.8361 58.3843 70.8441 56.7363 70.8441ZM65.3253 67.8041V79.2441H67.2293V67.8041H65.3253ZM74.2224 72.4281C72.6224 72.0281 71.5504 71.8041 71.5504 70.5561C71.5504 69.7081 72.3664 69.1961 73.7264 69.1961C75.3104 69.1961 76.1424 69.9001 76.3184 71.2281H78.2224C78.0624 68.8761 76.2384 67.5641 73.7264 67.5641C71.2304 67.5641 69.6624 68.7001 69.6624 70.7321C69.6624 72.9081 71.5984 73.5961 73.3904 74.0441C75.6464 74.6041 76.6224 74.8601 76.6224 76.2201C76.6224 77.1001 75.9664 77.8521 74.2704 77.8521C72.2224 77.8521 71.2304 76.8921 71.1344 75.4361H69.2304C69.3424 78.0281 71.4704 79.4841 74.2704 79.4841C77.1504 79.4841 78.5264 77.9641 78.5264 76.1401C78.5264 73.5801 76.6704 73.0521 74.2224 72.4281ZM83.1438 79.2441H85.0478V69.4201H88.6958V67.8041H79.4798V69.4201H83.1438V79.2441Z" fill="white"/>
</svg>
