<svg width="200" height="85" viewBox="0 0 200 85" fill="none" xmlns="http://www.w3.org/2000/svg">
<path d="M1.64004 16H3.08004V11.376H6.36004C9.25604 11.376 8.16804 15.52 8.66404 16H10.216V15.904C9.62404 15.712 10.552 11.216 8.00804 10.72V10.688C9.27204 10.368 10.056 9.456 10.056 7.808C10.056 5.776 8.53604 4.56 6.28004 4.56H1.64004V16ZM3.08004 5.84H5.94404C7.12804 5.84 8.61604 5.984 8.61604 7.968C8.61604 9.952 7.12804 10.096 5.94404 10.096H3.08004V5.84ZM15.6069 15.104C13.8309 15.104 12.9509 13.728 12.9509 12.256H19.3989C19.3989 9.36 18.1509 7.616 15.5909 7.616C13.2069 7.616 11.6709 9.2 11.6709 11.92C11.6709 14.48 13.1749 16.224 15.6549 16.224C17.6869 16.224 18.8549 15.008 19.2709 13.488H17.9909C17.8469 14.048 17.2389 15.104 15.6069 15.104ZM15.5909 8.736C17.1269 8.736 18.1189 9.824 18.1189 11.136H12.9509C12.9509 9.824 14.0549 8.736 15.5909 8.736ZM27.1142 7.84V8.848H27.0822C26.6022 8.224 25.8342 7.616 24.4902 7.616C22.4742 7.616 20.8422 8.912 20.8422 11.6C20.8422 14.288 22.4742 15.584 24.4902 15.584C25.8342 15.584 26.6022 15.008 27.0822 14.304H27.1142V15.536C27.1142 17.056 26.2342 17.712 24.7142 17.712C23.1942 17.712 22.5222 17.088 22.3622 16.256H21.0822C21.2102 17.648 22.5382 18.832 24.7782 18.832C27.0182 18.832 28.3942 17.728 28.3942 15.552V7.84H27.1142ZM24.6502 14.464C22.9702 14.464 22.1222 13.2 22.1222 11.6C22.1222 10 22.9702 8.736 24.6502 8.736C26.1702 8.736 27.1142 9.68 27.1142 11.6C27.1142 13.52 26.1702 14.464 24.6502 14.464ZM31.5899 6.256C31.9579 6.256 32.3899 5.984 32.3899 5.488C32.3899 4.992 31.9579 4.72 31.5899 4.72C31.2379 4.72 30.7899 4.992 30.7899 5.488C30.7899 5.984 31.2379 6.256 31.5899 6.256ZM30.9499 7.84V16H32.2299V7.84H30.9499ZM38.1013 11.152C36.9653 10.88 35.8613 10.8 35.8613 9.84C35.8613 9.2 36.4853 8.736 37.6373 8.736C39.1733 8.736 39.4773 9.552 39.6053 10.176H40.8853C40.7573 8.768 39.6693 7.616 37.6373 7.616C35.7173 7.616 34.5813 8.656 34.5813 9.936C34.5813 11.856 36.4373 12 37.6853 12.304C38.8533 12.592 39.9253 12.656 39.9253 13.84C39.9253 14.384 39.3813 15.104 37.9893 15.104C35.9413 15.104 35.6213 14.192 35.5413 13.28H34.2613C34.3413 15.04 35.4933 16.224 37.9893 16.224C39.8453 16.224 41.2053 15.248 41.2053 13.76C41.2053 11.744 39.5573 11.504 38.1013 11.152ZM46.4813 8.96V7.84H44.8813V5.12H43.6013V7.84H42.4013V8.96H43.6013V14C43.6013 15.664 44.4333 16.096 45.5213 16.096C45.8573 16.096 46.1933 16.064 46.4813 16V14.88C45.3933 14.96 44.8813 14.8 44.8813 13.872V8.96H46.4813ZM52.0279 7.616C50.8599 7.616 50.2039 8.384 49.7719 9.456H49.7399V7.84H48.4599V16H49.7399V11.648C49.7399 9.904 50.9719 8.656 52.7479 8.944H52.7799V7.664C52.5559 7.632 52.3319 7.616 52.0279 7.616ZM59.2638 9.92C59.2638 10.736 58.6398 10.912 57.2638 11.168C55.1518 11.568 53.7758 12.048 53.7758 13.904C53.7758 15.28 54.8158 16.224 56.4638 16.224C57.8078 16.224 58.7198 15.744 59.2318 14.976H59.2638C59.4878 15.872 59.9518 16.08 60.7198 16.08C60.9598 16.08 61.1358 16.064 61.4718 15.952V15.056C60.6558 15.152 60.5438 14.8 60.5438 14.16V10.192C60.5438 8.224 59.1518 7.616 57.5998 7.616C55.2318 7.616 54.2558 8.8 54.1758 10.368H55.4558C55.5358 9.184 56.0478 8.736 57.5998 8.736C58.9118 8.736 59.2638 9.28 59.2638 9.92ZM56.5918 15.104C55.5358 15.104 55.0558 14.64 55.0558 13.84C55.0558 12.864 55.7918 12.464 57.3758 12.128C58.2398 11.952 59.0238 11.728 59.2638 11.488V12.848C59.2638 14.416 58.1118 15.104 56.5918 15.104ZM66.4638 8.96V7.84H64.8638V5.12H63.5838V7.84H62.3838V8.96H63.5838V14C63.5838 15.664 64.4158 16.096 65.5038 16.096C65.8398 16.096 66.1758 16.064 66.4638 16V14.88C65.3758 14.96 64.8638 14.8 64.8638 13.872V8.96H66.4638ZM69.2424 6.256C69.6104 6.256 70.0424 5.984 70.0424 5.488C70.0424 4.992 69.6104 4.72 69.2424 4.72C68.8904 4.72 68.4424 4.992 68.4424 5.488C68.4424 5.984 68.8904 6.256 69.2424 6.256ZM68.6024 7.84V16H69.8824V7.84H68.6024ZM75.9778 16.224C73.4818 16.224 71.9778 14.464 71.9778 11.92C71.9778 9.376 73.4818 7.616 75.9778 7.616C78.4578 7.616 79.9618 9.376 79.9618 11.92C79.9618 14.464 78.4578 16.224 75.9778 16.224ZM75.9778 15.104C77.8018 15.104 78.6818 13.664 78.6818 11.92C78.6818 10.176 77.8018 8.736 75.9778 8.736C74.1378 8.736 73.2578 10.176 73.2578 11.92C73.2578 13.664 74.1378 15.104 75.9778 15.104ZM85.8943 7.616C84.5023 7.616 83.6383 8.24 83.2063 8.816H83.1743V7.84H81.8943V16H83.1743V10.912C83.1743 9.648 84.1343 8.736 85.5743 8.736C86.8543 8.736 87.3503 9.568 87.3503 10.624V16H88.6303V10.304C88.6303 8.432 87.3823 7.616 85.8943 7.616ZM94.2994 11.152C93.1634 10.88 92.0594 10.8 92.0594 9.84C92.0594 9.2 92.6834 8.736 93.8354 8.736C95.3714 8.736 95.6754 9.552 95.8034 10.176H97.0834C96.9554 8.768 95.8674 7.616 93.8354 7.616C91.9154 7.616 90.7794 8.656 90.7794 9.936C90.7794 11.856 92.6354 12 93.8834 12.304C95.0514 12.592 96.1234 12.656 96.1234 13.84C96.1234 14.384 95.5794 15.104 94.1874 15.104C92.1394 15.104 91.8194 14.192 91.7394 13.28H90.4594C90.5394 15.04 91.6914 16.224 94.1874 16.224C96.0434 16.224 97.4034 15.248 97.4034 13.76C97.4034 11.744 95.7554 11.504 94.2994 11.152ZM111.607 8.336H113.047C112.775 6.16 110.983 4.336 108.183 4.336C105.047 4.336 102.887 6.832 102.887 10.272C102.887 13.728 105.047 16.224 108.183 16.224C110.999 16.224 112.791 14.4 113.047 11.872H111.607C111.511 13.312 110.583 14.944 108.183 14.944C105.463 14.944 104.327 12.592 104.327 10.272C104.327 7.968 105.463 5.616 108.183 5.616C110.567 5.616 111.399 7.248 111.607 8.336ZM115.159 4.56V16H116.439V4.56H115.159ZM122.427 16.224C119.931 16.224 118.427 14.464 118.427 11.92C118.427 9.376 119.931 7.616 122.427 7.616C124.907 7.616 126.411 9.376 126.411 11.92C126.411 14.464 124.907 16.224 122.427 16.224ZM122.427 15.104C124.251 15.104 125.131 13.664 125.131 11.92C125.131 10.176 124.251 8.736 122.427 8.736C120.587 8.736 119.707 10.176 119.707 11.92C119.707 13.664 120.587 15.104 122.427 15.104ZM131.656 11.152C130.52 10.88 129.416 10.8 129.416 9.84C129.416 9.2 130.04 8.736 131.192 8.736C132.728 8.736 133.032 9.552 133.16 10.176H134.44C134.312 8.768 133.224 7.616 131.192 7.616C129.272 7.616 128.136 8.656 128.136 9.936C128.136 11.856 129.992 12 131.24 12.304C132.408 12.592 133.48 12.656 133.48 13.84C133.48 14.384 132.936 15.104 131.544 15.104C129.496 15.104 129.176 14.192 129.096 13.28H127.816C127.896 15.04 129.048 16.224 131.544 16.224C133.4 16.224 134.76 15.248 134.76 13.76C134.76 11.744 133.112 11.504 131.656 11.152ZM137.44 6.256C137.808 6.256 138.24 5.984 138.24 5.488C138.24 4.992 137.808 4.72 137.44 4.72C137.088 4.72 136.64 4.992 136.64 5.488C136.64 5.984 137.088 6.256 137.44 6.256ZM136.8 7.84V16H138.08V7.84H136.8ZM144.639 7.616C143.247 7.616 142.383 8.24 141.951 8.816H141.919V7.84H140.639V16H141.919V10.912C141.919 9.648 142.879 8.736 144.319 8.736C145.599 8.736 146.095 9.568 146.095 10.624V16H147.375V10.304C147.375 8.432 146.127 7.616 144.639 7.616ZM155.54 7.84V8.848H155.508C155.028 8.224 154.26 7.616 152.916 7.616C150.9 7.616 149.268 8.912 149.268 11.6C149.268 14.288 150.9 15.584 152.916 15.584C154.26 15.584 155.028 15.008 155.508 14.304H155.54V15.536C155.54 17.056 154.66 17.712 153.14 17.712C151.62 17.712 150.948 17.088 150.788 16.256H149.508C149.636 17.648 150.964 18.832 153.204 18.832C155.444 18.832 156.82 17.728 156.82 15.552V7.84H155.54ZM153.076 14.464C151.396 14.464 150.548 13.2 150.548 11.6C150.548 10 151.396 8.736 153.076 8.736C154.596 8.736 155.54 9.68 155.54 11.6C155.54 13.52 154.596 14.464 153.076 14.464ZM168.419 16.224C171.779 16.224 174.019 13.712 174.019 10.272C174.019 6.832 171.779 4.336 168.419 4.336C165.059 4.336 162.819 6.832 162.819 10.272C162.819 13.712 165.059 16.224 168.419 16.224ZM168.419 14.944C165.539 14.944 164.259 12.736 164.259 10.272C164.259 7.808 165.539 5.616 168.419 5.616C171.299 5.616 172.579 7.808 172.579 10.272C172.579 12.736 171.299 14.944 168.419 14.944ZM180.184 7.616C178.792 7.616 177.928 8.24 177.496 8.816H177.464V7.84H176.184V16H177.464V10.912C177.464 9.648 178.424 8.736 179.864 8.736C181.144 8.736 181.64 9.568 181.64 10.624V16H182.92V10.304C182.92 8.432 181.672 7.616 180.184 7.616Z" fill="white"/>
<path d="M6.774 40.728C6.774 37.688 8.022 35.576 11.318 35.576C14.166 35.576 15.03 37.4 15.03 39.224C15.03 42.36 12.438 43.416 8.374 46.104C4.982 48.248 2.646 51.096 2.646 55H18.518V51.864H7.478V51.8C9.302 47.288 18.742 46.104 18.742 39.064C18.742 34.84 15.51 32.408 11.414 32.408C5.75 32.408 3.19 35.96 3.19 40.728H6.774ZM20.4845 32.888V36.024H32.0685V36.088C28.1325 39.576 23.7805 47.704 23.7805 55H27.6845C27.6845 47.96 31.0765 39.896 36.1005 35.704V32.888H20.4845ZM44.6083 55H48.3203V37.656H48.3843L54.4323 55H57.4723L63.5203 37.656H63.5843V55H67.2963V32.12H62.3683L56.0003 49.72H55.9363L49.5363 32.12H44.6083V55ZM84.4203 49.592L86.2763 55H90.1483L81.7643 32.12H77.7643L69.3483 55H73.2203L75.0763 49.592H84.4203ZM76.1323 46.424L79.7483 35.608H79.8123L83.3963 46.424H76.1323ZM87.9428 32.12L96.0708 45.912V55H99.8788V45.912L108.007 32.12H103.943L97.9908 42.744H97.9268L92.0068 32.12H87.9428ZM119.337 40.728C119.337 37.688 120.585 35.576 123.881 35.576C126.729 35.576 127.593 37.4 127.593 39.224C127.593 42.36 125.001 43.416 120.937 46.104C117.545 48.248 115.209 51.096 115.209 55H131.081V51.864H120.041V51.8C121.865 47.288 131.305 46.104 131.305 39.064C131.305 34.84 128.073 32.408 123.977 32.408C118.312 32.408 115.753 35.96 115.753 40.728H119.337ZM142.55 55.48C148.79 55.48 151.446 50.232 151.446 43.96C151.446 37.688 148.79 32.408 142.55 32.408C136.31 32.408 133.654 37.688 133.654 43.96C133.654 50.232 136.31 55.48 142.55 55.48ZM142.55 52.312C138.646 52.312 137.334 48.568 137.334 43.96C137.334 39.352 138.646 35.576 142.55 35.576C146.454 35.576 147.734 39.352 147.734 43.96C147.734 48.568 146.454 52.312 142.55 52.312ZM157.43 40.728C157.43 37.688 158.678 35.576 161.974 35.576C164.822 35.576 165.686 37.4 165.686 39.224C165.686 42.36 163.094 43.416 159.03 46.104C155.638 48.248 153.302 51.096 153.302 55H169.174V51.864H158.134V51.8C159.958 47.288 169.398 46.104 169.398 39.064C169.398 34.84 166.166 32.408 162.07 32.408C156.406 32.408 153.846 35.96 153.846 40.728H157.43ZM176.931 32.888C176.707 35.608 175.555 37.592 171.555 37.592V40.248C173.411 40.248 174.883 40.248 176.195 38.968V55H179.907V32.888H176.931Z" fill="#84D321"/>
<path d="M56.8794 79.24C59.9994 79.24 61.3274 76.616 61.3274 73.48C61.3274 70.344 59.9994 67.704 56.8794 67.704C53.7594 67.704 52.4314 70.344 52.4314 73.48C52.4314 76.616 53.7594 79.24 56.8794 79.24ZM56.8794 77.656C54.9274 77.656 54.2714 75.784 54.2714 73.48C54.2714 71.176 54.9274 69.288 56.8794 69.288C58.8314 69.288 59.4714 71.176 59.4714 73.48C59.4714 75.784 58.8314 77.656 56.8794 77.656ZM62.4869 67.944V69.512H68.2789V69.544C66.3109 71.288 64.1349 75.352 64.1349 79H66.0869C66.0869 75.48 67.7829 71.448 70.2949 69.352V67.944H62.4869ZM72.4564 74.216C73.0324 74.216 73.4804 73.816 73.4804 73.176C73.4804 72.552 73.0324 72.136 72.4564 72.136C71.8644 72.136 71.4164 72.552 71.4164 73.176C71.4164 73.816 71.8644 74.216 72.4564 74.216ZM72.4564 79.128C73.0324 79.128 73.4804 78.728 73.4804 78.088C73.4804 77.464 73.0324 77.048 72.4564 77.048C71.8644 77.048 71.4164 77.464 71.4164 78.088C71.4164 78.728 71.8644 79.128 72.4564 79.128ZM79.9244 79.24C83.0444 79.24 84.3724 76.616 84.3724 73.48C84.3724 70.344 83.0444 67.704 79.9244 67.704C76.8044 67.704 75.4764 70.344 75.4764 73.48C75.4764 76.616 76.8044 79.24 79.9244 79.24ZM79.9244 77.656C77.9724 77.656 77.3164 75.784 77.3164 73.48C77.3164 71.176 77.9724 69.288 79.9244 69.288C81.8764 69.288 82.5164 71.176 82.5164 73.48C82.5164 75.784 81.8764 77.656 79.9244 77.656ZM90.6582 79.24C93.7782 79.24 95.1062 76.616 95.1062 73.48C95.1062 70.344 93.7782 67.704 90.6582 67.704C87.5382 67.704 86.2102 70.344 86.2102 73.48C86.2102 76.616 87.5382 79.24 90.6582 79.24ZM90.6582 77.656C88.7062 77.656 88.0502 75.784 88.0502 73.48C88.0502 71.176 88.7062 69.288 90.6582 69.288C92.6102 69.288 93.2502 71.176 93.2502 73.48C93.2502 75.784 92.6102 77.656 90.6582 77.656ZM101.376 70.6C100.096 70.6 99.2959 71.208 98.8639 71.784H98.8319V70.824H97.1359V81.784H98.8319V78.024H98.8639C99.2959 78.632 100.096 79.24 101.376 79.24C103.456 79.24 105.008 77.608 105.008 74.92C105.008 72.232 103.456 70.6 101.376 70.6ZM101.056 77.864C99.6959 77.864 98.8479 76.728 98.8479 74.92C98.8479 73.096 99.6959 71.976 101.056 71.976C102.528 71.976 103.312 73.32 103.312 74.92C103.312 76.52 102.528 77.864 101.056 77.864ZM115.894 70.6C114.63 70.6 113.83 71.224 113.222 72.008H113.19C112.854 71.128 112.166 70.6 111.014 70.6C109.782 70.6 109.014 71.24 108.582 71.88H108.55V70.824H106.87V79H108.55V74.024C108.55 72.808 109.27 72.024 110.39 72.024C111.558 72.024 111.782 72.728 111.782 73.832V79H113.478V74.024C113.478 72.808 114.182 72.024 115.318 72.024C116.47 72.024 116.694 72.728 116.694 73.832V79H118.39V73.352C118.39 71.592 117.542 70.6 115.894 70.6ZM124.483 67.56V79H126.387V67.56H124.483ZM133.38 72.184C131.78 71.784 130.708 71.56 130.708 70.312C130.708 69.464 131.524 68.952 132.884 68.952C134.468 68.952 135.3 69.656 135.476 70.984H137.38C137.22 68.632 135.396 67.32 132.884 67.32C130.388 67.32 128.82 68.456 128.82 70.488C128.82 72.664 130.756 73.352 132.548 73.8C134.804 74.36 135.78 74.616 135.78 75.976C135.78 76.856 135.124 77.608 133.428 77.608C131.38 77.608 130.388 76.648 130.292 75.192H128.388C128.5 77.784 130.628 79.24 133.428 79.24C136.308 79.24 137.684 77.72 137.684 75.896C137.684 73.336 135.828 72.808 133.38 72.184ZM142.301 79H144.205V69.176H147.853V67.56H138.637V69.176H142.301V79Z" fill="white"/>
</svg>
