<svg width="572" height="160" viewBox="0 0 572 160" fill="none" xmlns="http://www.w3.org/2000/svg">
<g style="mix-blend-mode:overlay">
<path d="M64.2869 52.1132L64.8265 50.7101L64.8205 50.7078L64.2869 52.1132ZM45.4481 37.2134L43.9571 37.0223L43.9565 37.027L45.4481 37.2134ZM82.6118 41.6662L81.1096 41.6106L81.0519 43.1694H82.6118V41.6662ZM112.925 41.6662V43.1694H114.428V41.6662H112.925ZM14.9636 36.3571L13.4753 36.146L13.4746 36.1506L14.9636 36.3571ZM48.3596 76.946L48.8771 75.5347L48.8733 75.5333L48.3596 76.946ZM74.22 93.9009L75.7149 94.06L75.7158 94.0505L74.22 93.9009ZM32.4323 88.078H33.9355V86.5748H32.4323V88.078ZM1.94775 88.078V86.5748H0.44452V88.078H1.94775ZM104.876 94.9285L103.376 94.8241L103.376 94.8278L104.876 94.9285ZM64.8205 50.7078C58.0057 48.1199 53.2815 46.173 50.3449 44.0812C48.9044 43.055 47.9917 42.0588 47.468 41.0281C46.9554 40.0192 46.7569 38.8628 46.9398 37.3999L43.9565 37.027C43.7112 38.9892 43.9623 40.7657 44.7877 42.39C45.6019 43.9925 46.9156 45.3296 48.6006 46.5299C51.9151 48.8909 57.0384 50.9686 63.7532 53.5185L64.8205 50.7078ZM46.9392 37.4046C47.2851 34.706 48.9878 32.6796 51.9577 31.2718C54.9735 29.8422 59.1767 29.126 64.1156 29.126V26.1196C58.9501 26.1196 54.2477 26.8591 50.6699 28.5551C47.0463 30.2728 44.4674 33.0416 43.9571 37.0223L46.9392 37.4046ZM64.1156 29.126C69.4075 29.126 73.7725 30.2881 76.7287 32.3997C79.6158 34.4619 81.2621 37.493 81.1096 41.6106L84.114 41.7219C84.3041 36.5913 82.1826 32.6007 78.4762 29.9532C74.8389 27.3551 69.7845 26.1196 64.1156 26.1196V29.126ZM82.6118 43.1694H112.925V40.163H82.6118V43.1694ZM114.428 41.6662C114.428 29.5216 109.759 19.2841 101.219 12.1074C92.7041 4.95237 80.4708 0.944145 65.4857 0.944145V3.95061C79.9576 3.95061 91.4439 7.8204 99.2847 14.4091C107.1 20.9761 111.422 30.348 111.422 41.6662H114.428ZM65.4857 0.944145C52.5606 0.944145 40.4866 3.41255 31.1611 9.06104C21.7803 14.743 15.2541 23.6056 13.4753 36.146L16.452 36.5682C18.0984 24.9608 24.0742 16.8685 32.7187 11.6326C41.4184 6.36314 52.8929 3.95061 65.4857 3.95061V0.944145ZM13.4746 36.1506C11.7881 48.3117 15.0837 57.0504 21.5983 63.6781C28.0165 70.2077 37.4585 74.5815 47.8459 78.3588L48.8733 75.5333C38.5381 71.7751 29.655 67.5858 23.7424 61.5706C17.9262 55.6534 14.8852 47.8653 16.4526 36.5636L13.4746 36.1506ZM47.8421 78.3574C51.7291 79.7827 55.3767 80.9194 58.5816 81.9638C61.8149 83.0174 64.572 83.9693 66.8029 85.0438C69.0367 86.1197 70.599 87.253 71.56 88.5891C72.4864 89.8773 72.9505 91.489 72.7243 93.7513L75.7158 94.0505C76.0034 91.175 75.4185 88.8049 74.0008 86.8337C72.6176 84.9105 70.5406 83.507 68.1075 82.3351C65.6716 81.1619 62.7342 80.1549 59.5131 79.1053C56.2636 78.0463 52.6968 76.9353 48.8771 75.5347L47.8421 78.3574ZM72.7252 93.7419C72.3457 97.3091 70.7218 99.7043 68.0437 101.274C65.2736 102.898 61.2613 103.701 56.0663 103.701V106.707C61.4896 106.707 66.1259 105.883 69.5641 103.868C73.0942 101.799 75.238 98.542 75.7148 94.0599L72.7252 93.7419ZM56.0663 103.701C50.2019 103.701 44.6067 102.689 40.5289 100.234C36.5526 97.8406 33.9355 94.038 33.9355 88.078H30.929C30.929 95.134 34.1348 99.8944 38.9784 102.81C43.7207 105.665 49.9425 106.707 56.0663 106.707V103.701ZM32.4323 86.5748H1.94775V89.5813H32.4323V86.5748ZM0.44452 88.078C0.44452 101.423 5.54404 112.441 14.9347 120.092C24.2903 127.714 37.7631 131.883 54.3537 131.883V128.876C38.2335 128.876 25.5032 124.824 16.8336 117.761C8.19899 110.726 3.45099 100.593 3.45099 88.078H0.44452ZM54.3537 131.883C69.4394 131.883 82.0176 128.722 91.0636 122.498C100.163 116.239 105.575 106.953 106.376 95.0292L103.376 94.8278C102.635 105.853 97.6864 114.293 89.3596 120.021C80.9797 125.786 69.0675 128.876 54.3537 128.876V131.883ZM106.375 95.0329C106.858 88.0991 106.075 82.395 104.17 77.5932C102.261 72.782 99.2604 68.962 95.438 65.7544C87.879 59.411 76.9738 55.3822 64.8265 50.7101L63.7472 53.5162C76.0903 58.2635 86.4215 62.1127 93.5054 68.0574C97.0044 70.9937 99.6767 74.4203 101.375 78.7019C103.078 82.993 103.835 88.2282 103.376 94.8241L106.375 95.0329ZM150.758 47.6604L149.278 47.3972L148.413 52.2627L151.841 48.7031L150.758 47.6604ZM152.128 39.9536L153.608 40.2167L153.922 38.4504H152.128V39.9536ZM124.726 39.9536V38.4504H123.487L123.25 39.6666L124.726 39.9536ZM101.777 157.953L100.301 157.666L99.9533 159.456H101.777V157.953ZM129.179 157.953V159.456H130.42L130.655 158.238L129.179 157.953ZM136.714 118.905L135.881 117.654L135.357 118.003L135.238 118.62L136.714 118.905ZM137.742 118.22L139.056 117.49L138.264 116.065L136.908 116.969L137.742 118.22ZM207.103 85.3379L205.628 85.048L205.628 85.0483L207.103 85.3379ZM180.386 82.2552L181.86 82.55L181.862 82.5425L181.863 82.535L180.386 82.2552ZM143.736 85.3379L142.262 85.043L142.261 85.0505L142.259 85.058L143.736 85.3379ZM176.618 35.7102C164.683 35.7102 154.373 41.7389 149.675 46.6177L151.841 48.7031C156.048 44.3337 165.604 38.7167 176.618 38.7167V35.7102ZM152.238 47.9235L153.608 40.2167L150.648 39.6905L149.278 47.3972L152.238 47.9235ZM152.128 38.4504H124.726V41.4568H152.128V38.4504ZM123.25 39.6666L100.301 157.666L103.253 158.24L126.202 40.2406L123.25 39.6666ZM101.777 159.456H129.179V156.449H101.777V159.456ZM130.655 158.238L138.19 119.19L135.238 118.62L127.703 157.668L130.655 158.238ZM137.548 120.156L138.576 119.471L136.908 116.969L135.881 117.654L137.548 120.156ZM136.428 118.95C139.242 124.016 147.775 131.883 161.89 131.883V128.876C148.945 128.876 141.379 121.672 139.056 117.49L136.428 118.95ZM161.89 131.883C185.274 131.883 203.009 113.995 208.578 85.6274L205.628 85.0483C200.236 112.512 183.376 128.876 161.89 128.876V131.883ZM208.578 85.6277C211.532 70.5944 209.979 58.1243 204.366 49.3546C198.709 40.5183 189.106 35.7102 176.618 35.7102V38.7167C188.278 38.7167 196.829 43.1566 201.833 50.9755C206.881 58.861 208.496 70.4531 205.628 85.048L208.578 85.6277ZM178.912 81.9603C175.384 99.6017 166.169 108.325 155.211 108.325V111.331C168.229 111.331 178.195 100.874 181.86 82.55L178.912 81.9603ZM155.211 108.325C152.84 108.325 150.916 107.851 149.393 106.984C147.883 106.122 146.682 104.826 145.818 103.032C144.059 99.3786 143.692 93.6456 145.213 85.6177L142.259 85.058C140.697 93.3 140.93 99.8122 143.11 104.337C144.215 106.631 145.819 108.407 147.905 109.596C149.979 110.778 152.443 111.331 155.211 111.331V108.325ZM145.21 85.6327C148.738 67.9913 157.953 59.268 168.911 59.268V56.2616C155.893 56.2616 145.927 66.7195 142.262 85.043L145.21 85.6327ZM168.911 59.268C171.282 59.268 173.206 59.7417 174.729 60.6095C176.239 61.4705 177.44 62.767 178.304 64.5611C180.064 68.2145 180.43 73.9474 178.909 81.9753L181.863 82.535C183.425 74.293 183.192 67.7808 181.012 63.2564C179.907 60.9617 178.303 59.1862 176.217 57.9975C174.143 56.8154 171.679 56.2616 168.911 56.2616V59.268ZM238.258 90.647V89.1437H237L236.778 90.3814L238.258 90.647ZM301.282 90.647V92.1502H302.514L302.756 90.9418L301.282 90.647ZM213.082 79.1724L214.555 79.4753L214.555 79.4747L213.082 79.1724ZM298.199 100.409L299.579 101.006L300.487 98.9056H298.199V100.409ZM270.626 100.409V98.9056H269.394L269.152 100.114L270.626 100.409ZM277.476 75.2334V76.7367H278.755L278.96 75.4745L277.476 75.2334ZM241.512 75.2334L240.036 74.9465L239.688 76.7367H241.512V75.2334ZM253.5 108.325C249.347 108.325 245.37 106.965 242.725 104.207C240.125 101.495 238.606 97.2169 239.737 90.9125L236.778 90.3814C235.512 97.4354 237.161 102.748 240.555 106.287C243.904 109.78 248.748 111.331 253.5 111.331V108.325ZM238.258 92.1502H301.282V89.1437H238.258V92.1502ZM302.756 90.9418C305.882 75.3128 304.461 61.5117 298.095 51.5601C291.681 41.5326 280.44 35.7102 264.632 35.7102V38.7167C279.65 38.7167 289.817 44.1975 295.563 53.1801C301.357 62.2384 302.847 75.1541 299.808 90.3521L302.756 90.9418ZM264.632 35.7102C250.796 35.7102 238.888 39.8304 229.747 47.3333C220.608 54.8352 214.325 65.6449 211.61 78.8701L214.555 79.4747C217.149 66.8395 223.111 56.6697 231.654 49.6572C240.196 42.6458 251.408 38.7167 264.632 38.7167V35.7102ZM211.61 78.8696C208.468 94.1416 210.65 107.415 217.675 116.909C224.72 126.429 236.437 131.883 251.787 131.883V128.876C237.167 128.876 226.449 123.712 220.092 115.121C213.716 106.504 211.531 94.1741 214.555 79.4753L211.61 78.8696ZM251.787 131.883C263.508 131.883 273.356 129.081 281.348 123.775C289.338 118.471 295.374 110.729 299.579 101.006L296.819 99.8122C292.803 109.099 287.108 116.342 279.685 121.271C272.263 126.198 263.016 128.876 251.787 128.876V131.883ZM298.199 98.9056H270.626V101.912H298.199V98.9056ZM269.152 100.114C268.828 101.735 267.449 103.78 264.794 105.452C262.171 107.104 258.388 108.325 253.5 108.325V111.331C258.887 111.331 263.239 109.984 266.396 107.996C269.521 106.029 271.568 103.364 272.1 100.704L269.152 100.114ZM263.604 57.5554C268.139 57.5554 271.652 58.8481 273.813 61.4626C275.978 64.0825 277.069 68.3713 275.993 74.9923L278.96 75.4745C280.111 68.3946 279.06 63.0928 276.131 59.5474C273.196 55.9965 268.66 54.5489 263.604 54.5489V57.5554ZM277.476 73.7302H241.512V76.7367H277.476V73.7302ZM242.987 75.5204C244.133 69.6296 246.685 65.159 250.195 62.1619C253.701 59.1678 258.266 57.5554 263.604 57.5554V54.5489C257.639 54.5489 252.357 56.3618 248.242 59.8756C244.131 63.3864 241.288 68.5065 240.036 74.9465L242.987 75.5204ZM393.845 75.0622L395.32 75.351L395.321 75.3464L393.845 75.0622ZM315.407 68.8968L313.941 68.5648L313.525 70.4H315.407V68.8968ZM340.925 68.8968V70.4H342.037L342.362 69.3368L340.925 68.8968ZM368.84 62.7314L370.312 63.0393L370.314 63.0262L368.84 62.7314ZM342.295 75.2334L342.634 76.698L342.636 76.6975L342.295 75.2334ZM305.302 102.293L306.779 102.576L306.779 102.575L305.302 102.293ZM358.565 119.248L360.067 119.293L360.176 115.71L357.544 118.144L358.565 119.248ZM387.679 127.982L388.351 129.326L389.009 128.998L389.153 128.277L387.679 127.982ZM389.049 121.131L390.523 121.426L390.883 119.628H389.049V121.131ZM385.966 115.309L384.491 115.02L384.49 115.027L384.488 115.035L385.966 115.309ZM362.675 94.9285L364.126 95.3215L364.13 95.3045L364.135 95.2874L362.675 94.9285ZM332.704 101.436L331.221 101.189L331.22 101.196L332.704 101.436ZM351.2 88.9343L350.897 87.4619L350.885 87.4645L351.2 88.9343ZM365.244 84.4816L366.704 84.8405L367.557 81.3684L364.479 83.1874L365.244 84.4816ZM395.321 75.3464C398.016 61.3478 396.147 51.2828 389.876 44.7564C383.662 38.289 373.502 35.7102 360.62 35.7102V38.7167C373.256 38.7167 382.362 41.2757 387.708 46.8394C392.998 52.3442 394.982 61.2034 392.368 74.778L395.321 75.3464ZM360.62 35.7102C346.504 35.7102 335.879 39.1545 328.232 45.0575C320.58 50.964 316.057 59.2191 313.941 68.5648L316.873 69.2287C318.867 60.4207 323.078 52.8342 330.069 47.4374C337.065 42.0371 346.991 38.7167 360.62 38.7167V35.7102ZM315.407 70.4H340.925V67.3935H315.407V70.4ZM342.362 69.3368C343.573 65.3813 345.504 62.4895 348.288 60.5638C351.086 58.6278 354.91 57.5554 360.106 57.5554V54.5489C354.513 54.5489 350.03 55.7029 346.577 58.0913C343.11 60.4899 340.845 64.0204 339.487 68.4567L342.362 69.3368ZM360.106 57.5554C363.333 57.5554 365.317 58.147 366.375 58.9718C367.285 59.6814 367.709 60.7223 367.366 62.4366L370.314 63.0262C370.828 60.4588 370.224 58.1602 368.223 56.6006C366.37 55.1561 363.559 54.5489 360.106 54.5489V57.5554ZM367.369 62.4234C366.773 65.269 363.991 67.4185 359.147 69.2457C354.387 71.0412 348.28 72.2961 341.954 73.7694L342.636 76.6975C348.811 75.2594 355.207 73.9453 360.208 72.0587C365.126 70.2037 369.366 67.558 370.312 63.0393L367.369 62.4234ZM341.956 73.7689C321.217 78.568 306.927 85.7737 303.826 102.011L306.779 102.575C309.5 88.3272 321.928 81.4895 342.634 76.698L341.956 73.7689ZM303.826 102.009C302.142 110.785 303.561 118.324 308.19 123.677C312.809 129.02 320.364 131.883 330.307 131.883V128.876C320.897 128.876 314.322 126.173 310.464 121.711C306.616 117.26 305.209 110.756 306.779 102.576L303.826 102.009ZM330.307 131.883C341.333 131.883 352.48 126.924 359.585 120.351L357.544 118.144C350.949 124.245 340.517 128.876 330.307 128.876V131.883ZM357.062 119.202C356.967 122.352 357.88 125.615 360.653 128.06C363.388 130.472 367.703 131.883 373.978 131.883V128.876C368.094 128.876 364.616 127.547 362.642 125.805C360.705 124.098 359.991 121.795 360.067 119.293L357.062 119.202ZM373.978 131.883C378.626 131.883 383.903 131.551 388.351 129.326L387.007 126.637C383.235 128.523 378.578 128.876 373.978 128.876V131.883ZM389.153 128.277L390.523 121.426L387.575 120.837L386.205 127.687L389.153 128.277ZM389.049 119.628C387.462 119.628 387.324 119.305 387.291 119.243C387.224 119.119 387.128 118.823 387.133 118.18C387.137 117.547 387.237 116.705 387.445 115.582L384.488 115.035C384.268 116.224 384.132 117.266 384.126 118.159C384.12 119.041 384.238 119.912 384.642 120.665C385.551 122.358 387.382 122.635 389.049 122.635V119.628ZM387.442 115.597L395.32 75.351L392.369 74.7734L384.491 115.02L387.442 115.597ZM361.224 94.5355C360.165 98.4468 358.187 102.324 355.043 105.21C351.927 108.072 347.584 110.038 341.61 110.038V113.044C348.309 113.044 353.385 110.814 357.077 107.425C360.741 104.06 362.959 99.6307 364.126 95.3215L361.224 94.5355ZM341.61 110.038C339.01 110.038 336.964 109.2 335.684 107.836C334.429 106.499 333.736 104.467 334.188 101.677L331.22 101.196C330.645 104.743 331.493 107.763 333.492 109.893C335.467 111.998 338.386 113.044 341.61 113.044V110.038ZM334.187 101.684C334.626 99.0507 335.99 96.9098 338.686 95.0806C341.446 93.2079 345.591 91.6738 351.515 90.4042L350.885 87.4645C344.822 88.7638 340.232 90.398 336.998 92.5928C333.7 94.831 331.81 97.6568 331.221 101.189L334.187 101.684ZM351.504 90.4067C357.291 89.2152 361.991 88.1496 366.009 85.7757L364.479 83.1874C360.961 85.2663 356.756 86.2559 350.897 87.462L351.504 90.4067ZM363.784 84.1226L361.215 94.5695L364.135 95.2874L366.704 84.8405L363.784 84.1226ZM422.077 5.18755V3.68432H420.838L420.602 4.90069L422.077 5.18755ZM398.272 127.639L396.796 127.353L396.448 129.143H398.272V127.639ZM425.674 127.639V129.143H426.9L427.146 127.942L425.674 127.639ZM430.983 101.779L430.024 100.621L429.617 100.959L429.51 101.477L430.983 101.779ZM441.944 92.7021L443.345 92.1592L442.592 90.2135L440.985 91.5443L441.944 92.7021ZM455.473 127.639L454.071 128.182L454.443 129.143H455.473V127.639ZM487.328 127.639V129.143H489.613L488.708 127.044L487.328 127.639ZM463.694 72.8358L462.708 71.701L461.878 72.4218L462.313 73.431L463.694 72.8358ZM501.542 39.9536L502.528 41.0884L505.565 38.4504H501.542V39.9536ZM468.146 39.9536V38.4504H467.551L467.117 38.8584L468.146 39.9536ZM436.634 69.5818L435.16 69.2878L434.241 73.8953L437.664 70.677L436.634 69.5818ZM449.479 5.18755L450.953 5.48161L451.312 3.68432H449.479V5.18755ZM420.602 4.90069L396.796 127.353L399.747 127.926L423.553 5.47442L420.602 4.90069ZM398.272 129.143H425.674V126.136H398.272V129.143ZM427.146 127.942L432.455 102.081L429.51 101.477L424.201 127.337L427.146 127.942ZM431.942 102.937L442.902 93.8599L440.985 91.5443L430.024 100.621L431.942 102.937ZM440.542 93.2449L454.071 128.182L456.875 127.097L443.345 92.1592L440.542 93.2449ZM455.473 129.143H487.328V126.136H455.473V129.143ZM488.708 127.044L465.074 72.2405L462.313 73.431L485.947 128.235L488.708 127.044ZM464.68 73.9706L502.528 41.0884L500.557 38.8188L462.708 71.701L464.68 73.9706ZM501.542 38.4504H468.146V41.4568H501.542V38.4504ZM467.117 38.8584L435.605 68.4866L437.664 70.677L469.176 41.0488L467.117 38.8584ZM438.109 69.8759L450.953 5.48161L448.005 4.8935L435.16 69.2878L438.109 69.8759ZM449.479 3.68432H422.077V6.69079H449.479V3.68432ZM515.387 90.647V89.1437H514.129L513.907 90.3814L515.387 90.647ZM578.411 90.647V92.1502H579.643L579.885 90.9418L578.411 90.647ZM490.211 79.1724L491.684 79.4753L491.684 79.4747L490.211 79.1724ZM575.328 100.409L576.708 101.006L577.616 98.9056H575.328V100.409ZM547.755 100.409V98.9056H546.523L546.281 100.114L547.755 100.409ZM554.605 75.2334V76.7367H555.884L556.089 75.4745L554.605 75.2334ZM518.641 75.2334L517.165 74.9465L516.817 76.7367H518.641V75.2334ZM530.629 108.325C526.475 108.325 522.499 106.965 519.854 104.207C517.253 101.495 515.735 97.2169 516.866 90.9125L513.907 90.3814C512.641 97.4354 514.29 102.748 517.684 106.287C521.033 109.78 525.877 111.331 530.629 111.331V108.325ZM515.387 92.1502H578.411V89.1437H515.387V92.1502ZM579.885 90.9418C583.01 75.3128 581.59 61.5117 575.224 51.5601C568.81 41.5326 557.569 35.7102 541.761 35.7102V38.7167C556.779 38.7167 566.946 44.1975 572.692 53.1801C578.486 62.2384 579.976 75.1541 576.937 90.3521L579.885 90.9418ZM541.761 35.7102C527.925 35.7102 516.017 39.8304 506.876 47.3333C497.736 54.8352 491.454 65.6449 488.739 78.8701L491.684 79.4747C494.278 66.8395 500.24 56.6697 508.783 49.6572C517.325 42.6458 528.537 38.7167 541.761 38.7167V35.7102ZM488.739 78.8696C485.597 94.1416 487.779 107.415 494.804 116.909C501.849 126.429 513.566 131.883 528.916 131.883V128.876C514.296 128.876 503.578 123.712 497.221 115.121C490.845 106.504 488.66 94.1741 491.684 79.4753L488.739 78.8696ZM528.916 131.883C540.637 131.883 550.485 129.081 558.477 123.775C566.467 118.471 572.503 110.729 576.708 101.006L573.948 99.8122C569.932 109.099 564.237 116.342 556.814 121.271C549.392 126.198 540.145 128.876 528.916 128.876V131.883ZM575.328 98.9056H547.755V101.912H575.328V98.9056ZM546.281 100.114C545.957 101.735 544.578 103.78 541.923 105.452C539.3 107.104 535.517 108.325 530.629 108.325V111.331C536.016 111.331 540.368 109.984 543.525 107.996C546.65 106.029 548.697 103.364 549.229 100.704L546.281 100.114ZM540.733 57.5554C545.268 57.5554 548.781 58.8481 550.942 61.4626C553.107 64.0825 554.198 68.3713 553.122 74.9923L556.089 75.4745C557.24 68.3946 556.189 63.0928 553.259 59.5474C550.325 55.9965 545.789 54.5489 540.733 54.5489V57.5554ZM554.605 73.7302H518.641V76.7367H554.605V73.7302ZM520.116 75.5204C521.261 69.6296 523.814 65.159 527.323 62.1619C530.83 59.1678 535.395 57.5554 540.733 57.5554V54.5489C534.768 54.5489 529.486 56.3618 525.371 59.8756C521.26 63.3864 518.417 68.5065 517.165 74.9465L520.116 75.5204ZM621.69 53.6545L620.419 52.8518L620.29 53.0558L620.232 53.2899L621.69 53.6545ZM621.519 54.3396L620.046 54.0414L622.977 54.7041L621.519 54.3396ZM624.43 39.9536L625.904 40.2518L626.268 38.4504H624.43V39.9536ZM597.029 39.9536V38.4504H595.791L595.553 39.6655L597.029 39.9536ZM579.903 127.639L578.427 127.351L578.077 129.143H579.903V127.639ZM607.304 127.639V129.143H608.541L608.779 127.929L607.304 127.639ZM615.182 87.5643L616.657 87.8542L616.657 87.8538L615.182 87.5643ZM649.092 62.7314L648.864 64.2171L650.329 64.4426L650.575 62.9802L649.092 62.7314ZM653.031 39.2686L654.514 39.5174L654.75 38.1106L653.357 37.8011L653.031 39.2686ZM644.811 36.909C635.39 36.909 626.755 42.8207 620.419 52.8518L622.961 54.4572C628.957 44.9645 636.763 39.9155 644.811 39.9155V36.909ZM620.232 53.2899L620.061 53.975L622.977 54.7041L623.149 54.0191L620.232 53.2899ZM622.992 54.6377L625.904 40.2518L622.957 39.6554L620.046 54.0414L622.992 54.6377ZM624.43 38.4504H597.029V41.4568H624.43V38.4504ZM595.553 39.6655L578.427 127.351L581.378 127.928L598.504 40.2418L595.553 39.6655ZM579.903 129.143H607.304V126.136H579.903V129.143ZM608.779 127.929L616.657 87.8542L613.707 87.2743L605.829 127.349L608.779 127.929ZM616.657 87.8538C620.082 70.4035 636.215 62.2712 648.864 64.2171L649.321 61.2456C635.253 59.0813 617.475 68.0751 613.707 87.2747L616.657 87.8538ZM650.575 62.9802L654.514 39.5174L651.549 39.0197L647.61 62.4825L650.575 62.9802ZM653.357 37.8011C650.152 37.0889 648.158 36.909 644.811 36.909V39.9155C647.972 39.9155 649.745 40.0781 652.705 40.736L653.357 37.8011ZM700.203 72.6645L700.655 71.2308L700.646 71.2282L700.203 72.6645ZM709.451 66.1566L707.952 66.0469L707.834 67.6598H709.451V66.1566ZM734.626 66.1566V67.6598H736.13V66.1566H734.626ZM684.618 92.017L685.076 90.5851L685.074 90.5846L684.618 92.017ZM674.171 99.21L675.667 99.3567L675.829 97.7068H674.171V99.21ZM648.824 99.21V97.7068H647.321V99.21H648.824ZM700.646 71.2282C694.712 69.3955 690.984 68.3386 688.666 67.1001C687.553 66.5052 686.915 65.9398 686.536 65.3494C686.166 64.7737 685.95 64.0302 685.95 62.9026H682.944C682.944 64.4296 683.242 65.784 684.006 66.9744C684.762 68.1502 685.879 69.0191 687.249 69.7516C689.898 71.1675 694.048 72.3371 699.759 74.1008L700.646 71.2282ZM685.95 62.9026C685.95 61.1082 686.758 59.8714 688.343 58.9945C690.032 58.0602 692.604 57.5554 695.921 57.5554V54.5489C692.389 54.5489 689.223 55.0717 686.888 56.3638C684.448 57.7133 682.944 59.9017 682.944 62.9026H685.95ZM695.921 57.5554C699.796 57.5554 702.965 58.3043 705.056 59.7169C707.045 61.0606 708.17 63.0671 707.952 66.0469L710.95 66.2663C711.246 62.2243 709.63 59.1786 706.739 57.2255C703.949 55.3414 700.096 54.5489 695.921 54.5489V57.5554ZM709.451 67.6598H734.626V64.6534H709.451V67.6598ZM736.13 66.1566C736.13 58.8546 734.032 51.1675 727.798 45.3222C721.578 39.4892 711.473 35.7102 695.921 35.7102V38.7167C711.026 38.7167 720.273 42.3875 725.742 47.5153C731.197 52.6306 733.123 59.4152 733.123 66.1566H736.13ZM695.921 35.7102C684.642 35.7102 674.625 38.5497 667.388 43.9277C660.109 49.3358 655.713 57.2673 655.713 67.1842H658.72C658.72 58.2622 662.63 51.2084 669.181 46.3409C675.772 41.4431 685.108 38.7167 695.921 38.7167V35.7102ZM655.713 67.1842C655.713 74.7437 659.073 80.1664 664.344 84.2563C669.536 88.2848 676.609 91.0463 684.162 93.4495L685.074 90.5846C677.556 88.1925 670.928 85.5592 666.187 81.881C661.525 78.2641 658.72 73.668 658.72 67.1842H655.713ZM684.161 93.449C687.265 94.4405 689.993 95.2096 692.285 95.8859C694.603 96.5701 696.444 97.1513 697.888 97.7828C699.333 98.415 700.235 99.0382 700.786 99.7252C701.303 100.37 701.611 101.197 701.611 102.464H704.618C704.618 100.649 704.155 99.1201 703.131 97.8439C702.141 96.6096 700.73 95.7449 699.093 95.0284C697.454 94.3112 695.441 93.6829 693.136 93.0024C690.803 92.314 688.137 91.5631 685.076 90.5851L684.161 93.449ZM701.611 102.464C701.611 104.952 700.584 106.745 698.66 107.987C696.647 109.286 693.552 110.038 689.413 110.038V113.044C693.838 113.044 697.593 112.254 700.29 110.513C703.076 108.715 704.618 105.97 704.618 102.464H701.611ZM689.413 110.038C684.573 110.038 680.937 109.151 678.644 107.445C676.468 105.826 675.28 103.303 675.667 99.3567L672.675 99.0634C672.206 103.852 673.673 107.494 676.849 109.857C679.907 112.132 684.32 113.044 689.413 113.044V110.038ZM674.171 97.7068H648.824V100.713H674.171V97.7068ZM647.321 99.21C647.321 107.702 649.672 115.961 656.375 122.071C663.052 128.158 673.799 131.883 690.098 131.883V128.876C674.2 128.876 664.311 125.237 658.4 119.849C652.515 114.485 650.328 107.159 650.328 99.21H647.321ZM690.098 131.883C701.987 131.883 712.397 129.589 719.877 124.4C727.441 119.153 731.848 111.054 731.848 99.8951H728.842C728.842 110.144 724.857 117.287 718.163 121.93C711.386 126.631 701.673 128.876 690.098 128.876V131.883ZM731.848 99.8951C731.848 91.5404 727.952 85.5635 722.093 81.102C716.305 76.6941 708.552 73.7203 700.655 71.2308L699.751 74.0982C707.609 76.5753 714.928 79.4244 720.272 83.4939C725.545 87.5098 728.842 92.665 728.842 99.8951H731.848Z" fill="white"/>
</g>
</svg>
