<svg width="176" height="353" viewBox="0 0 176 353" fill="none" xmlns="http://www.w3.org/2000/svg">
<g style="mix-blend-mode:overlay">
<path d="M64.1499 115.196L67.2025 118.559L128.167 85.7389L76.9766 132.358L79.1358 136.354L146.183 119.077L85.3234 152.091L86.4637 156.488L155.698 155.758L88.7053 173.248L88.7603 177.79L156.157 193.651L86.9257 194.6L85.8923 199.023L147.535 230.552L80.088 214.905L78.0263 218.952L130.332 264.317L68.5897 232.984L65.6194 236.42L105.549 292.984L53.0988 247.786L49.3927 250.411L74.6251 314.887L34.5159 258.451L30.2892 260.112L39.3582 328.754L13.9207 264.358L9.41913 264.96L1.79767 333.777L-7.48974 265.165L-12.0046 264.672L-35.8736 329.666L-28.4712 260.825L-32.7369 259.266L-71.4662 316.658L-47.8042 251.589L-51.573 249.055L-102.912 295.511L-64.3654 237.996L-67.418 234.633L-128.383 267.453L-77.192 220.834L-79.3512 216.838L-146.399 234.115L-85.5389 201.101L-86.6791 196.705L-155.913 197.434L-88.9208 179.944L-88.9758 175.402L-156.372 159.541L-87.1411 158.592L-86.1078 154.169L-147.75 122.64L-80.3035 138.287L-78.2418 134.24L-130.548 88.8751L-68.8051 120.208L-65.8349 116.772L-105.764 60.2078L-53.3143 105.406L-49.6082 102.781L-74.8406 38.3047L-34.7314 94.7415L-30.5047 93.0797L-39.5737 24.4384L-14.1362 88.8341L-9.6346 88.232L-2.01316 19.415L7.27427 88.027L11.7891 88.5198L35.6581 23.5264L28.2557 92.3673L32.5215 93.9262L71.2508 36.5337L47.5888 101.603L51.3575 104.137L102.696 57.6808L64.1499 115.196Z" stroke="white" stroke-width="4.67943"/>
</g>
</svg>
