<svg width="142" height="295" viewBox="0 0 142 295" fill="none" xmlns="http://www.w3.org/2000/svg">
<path opacity="0.5" d="M185.118 110.807L186.963 112.789L221.102 92.7307L192.167 119.76L193.542 122.091L231.195 109.841L197.126 130.018L197.968 132.59L237.374 128.721L199.764 141.103L200.033 143.796L239.35 148.488L199.957 152.495L199.641 155.183L237.03 168.218L197.697 163.663L196.811 166.22L230.523 186.987L193.089 174.083L191.673 176.39L220.134 203.919L186.349 183.27L184.47 185.219L206.347 218.222L177.791 190.793L175.538 192.292L189.808 229.227L167.816 196.3L165.293 197.28L171.29 236.419L156.891 199.534L154.216 199.949L151.659 239.462L145.525 200.344L142.824 200.174L131.833 238.213L134.252 198.692L131.65 197.945L112.738 232.732L123.597 194.655L121.217 193.366L95.2688 223.275L114.059 188.421L112.011 186.651L80.2407 210.283L106.084 180.283L104.465 178.115L68.3568 194.364L100.045 170.621L98.9298 168.155L60.1729 176.262L96.224 159.887L95.6652 157.239L56.0716 156.825L94.7999 148.582L94.8235 145.876L56.2446 136.96L95.8394 137.236L96.4443 134.598L60.6839 117.597L99.2937 126.378L100.452 123.932L69.182 99.6409L105.001 116.517L106.658 114.376L81.3414 83.9315L112.696 108.113L114.774 106.379L96.5935 71.2032L122.016 101.559L124.419 100.312L114.225 62.0513L132.528 97.1629L135.142 96.4616L133.412 56.9036L143.739 95.129L146.443 95.006L153.257 56.001L155.125 95.5526L157.793 96.0138L172.832 59.3855L166.154 98.4141L168.66 99.4378L191.222 66.8989L176.31 103.579L178.537 105.118L207.567 78.19L185.118 110.807Z" stroke="white" stroke-width="2.77254"/>
</svg>
