<svg width="195" height="354" viewBox="0 0 195 354" fill="none" xmlns="http://www.w3.org/2000/svg">
<g style="mix-blend-mode:overlay">
<path d="M240.183 115.675L243.235 119.038L304.2 86.2177L253.009 132.837L255.168 136.833L322.216 119.556L261.356 152.57L262.496 156.966L331.73 156.237L264.738 173.727L264.793 178.268L332.19 194.129L262.958 195.079L261.925 199.501L323.567 231.03L256.121 215.384L254.059 219.431L306.365 264.796L244.622 233.463L241.652 236.899L281.582 293.463L229.132 248.265L225.425 250.89L250.658 315.366L210.549 258.929L206.322 260.591L215.391 329.232L189.953 264.837L185.452 265.439L177.83 334.256L168.543 265.644L164.028 265.151L140.159 330.144L147.562 261.303L143.296 259.745L104.567 317.137L128.228 252.068L124.46 249.534L73.1209 295.99L111.667 238.474L108.615 235.112L47.65 267.932L98.8407 221.312L96.6815 217.317L29.6339 234.594L90.4939 201.579L89.3536 197.183L20.1196 197.912L87.112 180.422L87.0569 175.881L19.6604 160.02L88.8916 159.071L89.9249 154.648L28.2825 123.119L95.7292 138.766L97.7909 134.719L45.4851 89.3539L107.228 120.687L110.198 117.251L70.2684 60.6866L122.718 105.885L126.425 103.26L101.192 38.7834L141.301 95.2203L145.528 93.5584L136.459 24.9172L161.897 89.3128L166.398 88.7108L174.02 19.8938L183.307 88.5058L187.822 88.9985L211.691 24.0052L204.288 92.8461L208.554 94.405L247.283 37.0125L223.621 102.081L227.39 104.616L278.729 58.1596L240.183 115.675Z" stroke="white" stroke-width="4.67943"/>
</g>
</svg>
