<svg width="229" height="223" viewBox="0 0 229 223" fill="none" xmlns="http://www.w3.org/2000/svg">
<g style="mix-blend-mode:overlay">
<path d="M99.7957 4.76805L101.94 7.13033L144.767 -15.9255L108.806 16.8242L110.323 19.631L157.423 7.49435L114.67 30.6864L115.471 33.7746L164.107 33.2625L117.046 45.549L117.084 48.7392L164.43 59.8813L115.795 60.5483L115.07 63.6551L158.373 85.8039L110.992 74.8125L109.544 77.6553L146.288 109.524L102.915 87.5128L100.828 89.9263L128.878 129.662L92.0325 97.9109L89.4289 99.755L107.154 145.049L78.9782 105.403L76.0089 106.57L82.3798 154.79L64.5103 109.553L61.3479 109.975L55.994 158.319L49.4696 110.119L46.298 109.773L29.5303 155.43L34.7304 107.07L31.7338 105.975L4.52684 146.293L21.1491 100.583L18.5017 98.8023L-17.5633 131.437L9.51514 91.0333L7.37067 88.671L-35.4564 111.727L0.504509 78.9772L-1.01231 76.1703L-48.1125 88.307L-5.35905 65.115L-6.16006 62.0267L-54.7961 62.5389L-7.73479 50.2523L-7.77346 47.0621L-55.1189 35.92L-6.48463 35.253L-5.75871 32.1463L-49.0618 9.99745L-1.68125 20.9888L-0.232916 18.146L-36.9772 -13.7223L6.39623 8.28856L8.4828 5.87498L-19.5672 -33.8608L17.2784 -2.10956L19.8819 -3.95366L2.1564 -49.2476L30.3327 -9.60128L33.3019 -10.7687L26.931 -58.9885L44.8006 -13.7512L47.9629 -14.1741L53.3169 -62.5173L59.8412 -14.3181L63.0128 -13.972L79.7805 -59.6291L74.5804 -11.2691L77.5771 -10.174L104.784 -50.4917L88.1617 -4.78138L90.8092 -3.00094L126.874 -35.636L99.7957 4.76805Z" stroke="white" stroke-width="3.28725"/>
</g>
</svg>
