<svg width="116" height="244" viewBox="0 0 116 244" fill="none" xmlns="http://www.w3.org/2000/svg">
<g style="mix-blend-mode:overlay">
<path d="M25.5647 92.0791L27.0572 93.7232L56.8642 77.6767L31.8359 100.47L32.8916 102.423L65.6726 93.9765L35.9169 110.118L36.4744 112.267L70.3243 111.911L37.5703 120.462L37.5972 122.682L70.5489 130.437L36.7003 130.901L36.195 133.063L66.3333 148.479L33.3572 140.829L32.3492 142.807L57.9226 164.987L27.7354 149.668L26.2832 151.348L45.8055 179.003L20.1616 156.905L18.3496 158.188L30.6862 189.712L11.076 162.119L9.00945 162.932L13.4435 196.492L1.00655 165.007L-1.19437 165.302L-4.92066 198.948L-9.46148 165.402L-11.6689 165.161L-23.3389 196.938L-19.7197 163.28L-21.8054 162.518L-40.7409 190.578L-29.1721 158.765L-31.0147 157.525L-56.1154 180.239L-37.2692 152.118L-38.7617 150.474L-68.5687 166.521L-43.5404 143.727L-44.5961 141.774L-77.3771 150.221L-47.6214 134.08L-48.1789 131.93L-82.0288 132.287L-49.2748 123.735L-49.3018 121.515L-82.2534 113.76L-48.4048 113.296L-47.8995 111.134L-78.0378 95.7187L-45.0617 103.368L-44.0537 101.39L-69.6271 79.2101L-39.4399 94.5293L-37.9877 92.8495L-57.51 65.194L-31.8661 87.2924L-30.0541 86.0089L-42.3907 54.4851L-22.7805 82.0782L-20.714 81.2657L-25.148 47.7056L-12.7111 79.19L-10.5101 78.8956L-6.78386 45.2495L-2.24303 78.7954L-0.0356231 79.0363L11.6344 47.2597L8.01524 80.9175L10.1008 81.6796L29.0364 53.6192L17.4676 85.4328L19.3102 86.672L44.4109 63.9585L25.5647 92.0791Z" stroke="white" stroke-width="2.28787"/>
</g>
</svg>
