<svg width="194" height="424" viewBox="0 0 194 424" fill="none" xmlns="http://www.w3.org/2000/svg">
<g style="mix-blend-mode:overlay">
<path d="M36.2532 159.476L38.8627 162.35L90.9757 134.295L47.2176 174.146L49.0633 177.561L106.376 162.793L54.3525 191.014L55.3272 194.772L114.509 194.149L57.2433 209.099L57.2904 212.981L114.901 226.539L55.7221 227.35L54.8388 231.131L107.531 258.082L49.8772 244.708L48.1149 248.167L92.8261 286.945L40.0484 260.162L37.5094 263.098L71.6412 311.45L26.8068 272.814L23.6387 275.058L45.2075 330.173L10.9219 281.93L7.30894 283.351L15.0612 342.026L-6.68292 286.98L-10.5309 287.495L-17.0457 346.32L-24.9847 287.67L-28.844 287.249L-49.2473 342.805L-42.9197 283.96L-46.5661 282.627L-79.6721 331.687L-59.4457 276.065L-62.6672 273.899L-106.552 313.61L-73.6022 264.445L-76.2117 261.571L-128.325 289.626L-84.5666 249.775L-86.4123 246.36L-143.725 261.128L-91.7015 232.907L-92.6762 229.149L-151.858 229.773L-94.5923 214.822L-94.6394 210.94L-152.25 197.382L-93.0711 196.571L-92.1878 192.79L-144.88 165.839L-87.2262 179.214L-85.4639 175.754L-130.175 136.976L-77.3974 163.76L-74.8584 160.823L-108.99 112.471L-64.1558 151.107L-60.9877 148.863L-82.5565 93.7484L-48.2709 141.991L-44.6579 140.57L-52.4102 81.8955L-30.6661 136.941L-26.8181 136.427L-20.3033 77.6015L-12.3643 136.251L-8.505 136.673L11.8983 81.1159L5.57071 139.961L9.21709 141.294L42.3231 92.2346L22.0967 147.856L25.3182 150.022L69.2029 110.311L36.2532 159.476Z" stroke="white" stroke-width="4"/>
</g>
</svg>
