<svg width="24" height="25" viewBox="0 0 24 25" fill="none" xmlns="http://www.w3.org/2000/svg">
<g clip-path="url(#clip0)">
<circle cx="12" cy="12.5" r="12" fill="white"/>
<path d="M17.9789 10.3563C17.9843 10.4744 17.9868 10.593 17.9868 10.7122C17.9868 14.3518 15.2164 18.5488 10.1501 18.549C8.5946 18.549 7.14716 18.093 5.92822 17.3117C6.14374 17.3372 6.3631 17.3498 6.58521 17.3498C7.87573 17.3498 9.06335 16.9096 10.0062 16.1708C8.80042 16.1484 7.78381 15.3521 7.43298 14.2577C7.60089 14.2899 7.77356 14.3075 7.95062 14.3075C8.20203 14.3075 8.44556 14.2736 8.677 14.2105C7.41669 13.9581 6.46729 12.8443 6.46729 11.5106C6.46729 11.4981 6.46729 11.4869 6.46765 11.4754C6.83881 11.6818 7.26324 11.8059 7.71515 11.8198C6.97559 11.3264 6.48944 10.4828 6.48944 9.52716C6.48944 9.02252 6.62585 8.54974 6.86243 8.1427C8.2207 9.80933 10.2506 10.9054 12.5398 11.0206C12.4926 10.8188 12.4682 10.6086 12.4682 10.3925C12.4682 8.87201 13.7018 7.63843 15.2228 7.63843C16.0151 7.63843 16.7307 7.97333 17.2333 8.50873C17.8608 8.38495 18.4501 8.1557 18.9824 7.84021C18.7764 8.48309 18.3398 9.02252 17.7711 9.36365C18.3283 9.297 18.8593 9.14923 19.3528 8.92987C18.9842 9.4823 18.5167 9.96753 17.9789 10.3563Z" fill="#141414"/>
</g>
<defs>
<clipPath id="clip0">
<rect width="24" height="24" fill="white" transform="translate(0 0.5)"/>
</clipPath>
</defs>
</svg>
