<svg width="25" height="24" viewBox="0 0 25 24" fill="none" xmlns="http://www.w3.org/2000/svg">
<g clip-path="url(#clip0)">
<path d="M18.302 8.55997C18.302 8.55997 16.356 14.663 16.197 15.167C15.707 11.342 15.2123 7.5177 14.713 3.69397C11.397 3.69397 9.624 6.05397 8.687 8.54497L6.122 15.182C6.107 14.706 5.762 8.61697 5.762 8.61697C5.558 5.56497 2.762 3.70697 0.5 3.70697L3.239 20.307C6.713 20.292 8.586 17.946 9.567 15.455C9.567 15.455 11.657 10.057 11.743 9.81197C11.758 10.042 13.243 20.306 13.243 20.306C16.731 20.306 18.605 18.104 19.613 15.7L24.5 3.70797C21.055 3.70797 19.239 6.05397 18.302 8.55897V8.55997Z" fill="#4353FF"/>
</g>
<defs>
<clipPath id="clip0">
<rect width="24" height="24" fill="white" transform="translate(0.5)"/>
</clipPath>
</defs>
</svg>
