<svg width="21" height="20" viewBox="0 0 21 20" fill="none" xmlns="http://www.w3.org/2000/svg">
<path d="M10.5 20C4.977 20 0.5 15.523 0.5 10C0.5 4.477 4.977 0 10.5 0C16.023 0 20.5 4.477 20.5 10C20.5 15.523 16.023 20 10.5 20ZM16.855 13.952V13.847C16.855 12.925 16.855 12.504 16.203 12.131C15.9934 12.0122 15.7782 11.9037 15.558 11.806C15.191 11.639 14.948 11.53 14.62 11.05C14.5808 10.993 14.5422 10.9357 14.504 10.878C14.159 10.353 13.91 9.975 12.962 10.125C11.097 10.421 10.959 10.749 10.877 11.303L10.864 11.394C10.743 12.204 10.721 12.476 11.059 12.831C12.324 14.158 13.082 15.115 13.312 15.675C13.424 15.948 13.712 16.775 13.514 17.593C14.7278 17.1095 15.8083 16.3425 16.665 15.356C16.775 14.982 16.855 14.516 16.855 13.952ZM10.5 1.833C8.183 1.833 6.09 2.799 4.604 4.349C4.781 4.472 4.935 4.645 5.041 4.883C5.245 5.34 5.245 5.811 5.245 6.228C5.245 6.556 5.245 6.868 5.35 7.093C5.494 7.401 6.116 7.533 6.665 7.647C6.862 7.689 7.064 7.731 7.248 7.782C7.754 7.922 8.146 8.377 8.459 8.742C8.589 8.893 8.782 9.116 8.879 9.172C8.929 9.136 9.09 8.961 9.169 8.674C9.231 8.454 9.213 8.26 9.124 8.154C8.564 7.494 8.595 6.224 8.768 5.755C9.04 5.016 9.89 5.071 10.512 5.111C10.744 5.126 10.962 5.141 11.126 5.12C11.748 5.042 11.94 4.095 12.075 3.91C12.367 3.51 13.261 2.907 13.815 2.535C12.7715 2.07099 11.642 1.83181 10.5 1.833Z" fill="white"/>
</svg>
